M48
; DRILL file {KiCad 9.0.6} date 2026-01-31T12:01:57+0900
; FORMAT={-:-/ absolute / metric / decimal}
; #@! TF.CreationDate,2026-01-31T12:01:57+09:00
; #@! TF.GenerationSoftware,Kicad,Pcbnew,9.0.6
; #@! TF.FileFunction,Plated,1,2,PTH
FMAT,2
METRIC
; #@! TA.AperFunction,Plated,PTH,ViaDrill
T1C0.300
; #@! TA.AperFunction,Plated,PTH,ComponentDrill
T2C0.750
; #@! TA.AperFunction,Plated,PTH,ComponentDrill
T3C0.800
; #@! TA.AperFunction,Plated,PTH,ComponentDrill
T4C1.000
; #@! TA.AperFunction,Plated,PTH,ComponentDrill
T5C1.100
; #@! TA.AperFunction,Plated,PTH,ComponentDrill
T6C1.200
; #@! TA.AperFunction,Plated,PTH,ComponentDrill
T7C2.000
; #@! TA.AperFunction,Plated,PTH,ComponentDrill
T8C2.700
; #@! TA.AperFunction,Plated,PTH,ComponentDrill
T9C4.500
%
G90
G05
T1
X133.0Y-118.25
T3
X122.09Y-125.5
X132.25Y-125.5
X136.0Y-95.25
X136.0Y-105.41
X139.5Y-95.25
X139.5Y-105.41
X143.0Y-95.17
X143.0Y-105.33
X147.5Y-98.75
X147.5Y-101.29
X147.5Y-103.83
T4
X124.0Y-130.25
X124.0Y-132.75
X125.0Y-113.5
X126.25Y-106.5
X127.5Y-113.5
X128.75Y-99.5
X128.75Y-106.5
X131.25Y-99.5
T5
X124.92Y-120.75
X127.46Y-120.75
X130.0Y-120.75
X169.5Y-123.73
X169.5Y-126.27
T6
X152.926Y-120.25
X153.0Y-133.5
X157.926Y-120.25
X158.0Y-133.5
T7
X165.75Y-111.15
X165.75Y-117.85
X165.75Y-128.3
X165.75Y-135.0
T8
X130.25Y-130.25
X130.25Y-135.25
T9
X153.05Y-90.75
X160.25Y-90.75
T2
G00X142.375Y-133.25
M15
G01X140.125Y-133.25
M16
G05
G00X142.375Y-139.25
M15
G01X140.125Y-139.25
M16
G05
G00X161.0Y-102.125
M15
G01X161.0Y-104.375
M16
G05
G00X167.0Y-102.125
M15
G01X167.0Y-104.375
M16
G05
M30
