%TF.GenerationSoftware,KiCad,Pcbnew,9.0.4-9.0.4-0~ubuntu22.04.1*%
%TF.CreationDate,2025-10-04T20:24:53+09:00*%
%TF.ProjectId,practice10.13,70726163-7469-4636-9531-302e31332e6b,rev?*%
%TF.SameCoordinates,Original*%
%TF.FileFunction,Copper,L2,Bot*%
%TF.FilePolarity,Positive*%
%FSLAX46Y46*%
G04 Gerber Fmt 4.6, Leading zero omitted, Abs format (unit mm)*
G04 Created by KiCad (PCBNEW 9.0.4-9.0.4-0~ubuntu22.04.1) date 2025-10-04 20:24:53*
%MOMM*%
%LPD*%
G01*
G04 APERTURE LIST*
G04 Aperture macros list*
%AMRoundRect*
0 Rectangle with rounded corners*
0 $1 Rounding radius*
0 $2 $3 $4 $5 $6 $7 $8 $9 X,Y pos of 4 corners*
0 Add a 4 corners polygon primitive as box body*
4,1,4,$2,$3,$4,$5,$6,$7,$8,$9,$2,$3,0*
0 Add four circle primitives for the rounded corners*
1,1,$1+$1,$2,$3*
1,1,$1+$1,$4,$5*
1,1,$1+$1,$6,$7*
1,1,$1+$1,$8,$9*
0 Add four rect primitives between the rounded corners*
20,1,$1+$1,$2,$3,$4,$5,0*
20,1,$1+$1,$4,$5,$6,$7,0*
20,1,$1+$1,$6,$7,$8,$9,0*
20,1,$1+$1,$8,$9,$2,$3,0*%
G04 Aperture macros list end*
%TA.AperFunction,ComponentPad*%
%ADD10C,1.800000*%
%TD*%
%TA.AperFunction,ComponentPad*%
%ADD11R,1.800000X1.800000*%
%TD*%
%TA.AperFunction,ComponentPad*%
%ADD12C,1.600000*%
%TD*%
%TA.AperFunction,ComponentPad*%
%ADD13RoundRect,0.250000X-0.600000X-0.750000X0.600000X-0.750000X0.600000X0.750000X-0.600000X0.750000X0*%
%TD*%
%TA.AperFunction,ComponentPad*%
%ADD14O,1.700000X2.000000*%
%TD*%
%TA.AperFunction,ComponentPad*%
%ADD15RoundRect,0.250000X-0.550000X-0.550000X0.550000X-0.550000X0.550000X0.550000X-0.550000X0.550000X0*%
%TD*%
%TA.AperFunction,ViaPad*%
%ADD16C,0.600000*%
%TD*%
%TA.AperFunction,Conductor*%
%ADD17C,0.200000*%
%TD*%
G04 APERTURE END LIST*
D10*
%TO.P,Q2,2,E*%
%TO.N,Net-(Q2-E)*%
X113030000Y-50800000D03*
D11*
%TO.P,Q2,1,C*%
%TO.N,VCC*%
X113030000Y-48260000D03*
%TD*%
D12*
%TO.P,R5,1*%
%TO.N,VCC*%
X139700000Y-60960000D03*
%TO.P,R5,2*%
%TO.N,Net-(J2-Pin_5)*%
X139700000Y-50800000D03*
%TD*%
D13*
%TO.P,J2,1,Pin_1*%
%TO.N,GND*%
X153710000Y-66040000D03*
D14*
%TO.P,J2,2,Pin_2*%
%TO.N,VCC*%
X156210000Y-66040000D03*
%TD*%
D11*
%TO.P,D1,1,K*%
%TO.N,Net-(D1-K)*%
X184150000Y-48260000D03*
D10*
%TO.P,D1,2,A*%
%TO.N,VCC*%
X184150000Y-50800000D03*
%TD*%
D12*
%TO.P,R1,1*%
%TO.N,Net-(D1-K)*%
X177800000Y-48260000D03*
%TO.P,R1,2*%
%TO.N,Net-(R1-Pad2)*%
X167640000Y-48260000D03*
%TD*%
%TO.P,R6,1*%
%TO.N,VCC*%
X177800000Y-60960000D03*
%TO.P,R6,2*%
%TO.N,Net-(J2-Pin_4)*%
X167640000Y-60960000D03*
%TD*%
D11*
%TO.P,D2,1,K*%
%TO.N,Net-(D2-K)*%
X113030000Y-55880000D03*
D10*
%TO.P,D2,2,A*%
%TO.N,VCC*%
X113030000Y-53340000D03*
%TD*%
D12*
%TO.P,R4,1*%
%TO.N,Net-(Q2-E)*%
X125730000Y-48260000D03*
%TO.P,R4,2*%
%TO.N,Net-(R1-Pad2)*%
X135890000Y-48260000D03*
%TD*%
%TO.P,C1,1*%
%TO.N,VCC*%
X146050000Y-53340000D03*
%TO.P,C1,2*%
%TO.N,GND*%
X146050000Y-58340000D03*
%TD*%
%TO.P,R3,1*%
%TO.N,Net-(Q1-E)*%
X177800000Y-54610000D03*
%TO.P,R3,2*%
%TO.N,Net-(R1-Pad2)*%
X167640000Y-54610000D03*
%TD*%
D15*
%TO.P,U1,1*%
%TO.N,Net-(J2-Pin_5)*%
X151130000Y-50800000D03*
D12*
%TO.P,U1,2,-*%
%TO.N,Net-(Q2-E)*%
X151130000Y-53340000D03*
%TO.P,U1,3,+*%
%TO.N,Net-(J2-Pin_3)*%
X151130000Y-55880000D03*
%TO.P,U1,4,V-*%
%TO.N,GND*%
X151130000Y-58420000D03*
%TO.P,U1,5,+*%
%TO.N,Net-(J2-Pin_3)*%
X158750000Y-58420000D03*
%TO.P,U1,6,-*%
%TO.N,Net-(Q1-E)*%
X158750000Y-55880000D03*
%TO.P,U1,7*%
%TO.N,Net-(J2-Pin_4)*%
X158750000Y-53340000D03*
%TO.P,U1,8,V+*%
%TO.N,VCC*%
X158750000Y-50800000D03*
%TD*%
%TO.P,R2,1*%
%TO.N,Net-(D2-K)*%
X153670000Y-45720000D03*
%TO.P,R2,2*%
%TO.N,Net-(R1-Pad2)*%
X163830000Y-45720000D03*
%TD*%
D11*
%TO.P,Q1,1,C*%
%TO.N,VCC*%
X184150000Y-53340000D03*
D10*
%TO.P,Q1,2,E*%
%TO.N,Net-(Q1-E)*%
X184150000Y-55880000D03*
%TD*%
D16*
%TO.N,Net-(J2-Pin_5)*%
X143510000Y-50800000D03*
X148590000Y-50800000D03*
%TO.N,VCC*%
X142240000Y-57150000D03*
%TD*%
D17*
%TO.N,Net-(Q1-E)*%
X175260000Y-57150000D02*
X167640000Y-57150000D01*
X167640000Y-57150000D02*
X166370000Y-55880000D01*
X166370000Y-55880000D02*
X158750000Y-55880000D01*
X175260000Y-57150000D02*
X175895000Y-56515000D01*
%TO.N,Net-(J2-Pin_5)*%
X148590000Y-50800000D02*
X143510000Y-50800000D01*
%TO.N,VCC*%
X142240000Y-57150000D02*
X146050000Y-53340000D01*
%TO.N,Net-(Q1-E)*%
X175260000Y-57150000D02*
X177800000Y-54610000D01*
%TD*%
%TA.AperFunction,Conductor*%
%TO.N,GND*%
G36*
X187903039Y-43199685D02*
G01*
X187948794Y-43252489D01*
X187960000Y-43304000D01*
X187960000Y-58365146D01*
X187940315Y-58432185D01*
X187919411Y-58456899D01*
X186257169Y-59968028D01*
X176351452Y-68973226D01*
X174025472Y-71087753D01*
X173962626Y-71118283D01*
X173942061Y-71120000D01*
X144817544Y-71120000D01*
X144750505Y-71100315D01*
X144748761Y-71099174D01*
X138883067Y-67188711D01*
X142929500Y-67188711D01*
X142929500Y-67431288D01*
X142961161Y-67671785D01*
X143023947Y-67906104D01*
X143116773Y-68130205D01*
X143116776Y-68130212D01*
X143238064Y-68340289D01*
X143238066Y-68340292D01*
X143238067Y-68340293D01*
X143385733Y-68532736D01*
X143385739Y-68532743D01*
X143557256Y-68704260D01*
X143557262Y-68704265D01*
X143749711Y-68851936D01*
X143959788Y-68973224D01*
X144183900Y-69066054D01*
X144418211Y-69128838D01*
X144598586Y-69152584D01*
X144658711Y-69160500D01*
X144658712Y-69160500D01*
X144901289Y-69160500D01*
X144949388Y-69154167D01*
X145141789Y-69128838D01*
X145376100Y-69066054D01*
X145600212Y-68973224D01*
X145810289Y-68851936D01*
X146002738Y-68704265D01*
X146174265Y-68532738D01*
X146321936Y-68340289D01*
X146443224Y-68130212D01*
X146536054Y-67906100D01*
X146598838Y-67671789D01*
X146630500Y-67431288D01*
X146630500Y-67188712D01*
X146598838Y-66948211D01*
X146536054Y-66713900D01*
X146443224Y-66489788D01*
X146321936Y-66279711D01*
X146174265Y-66087262D01*
X146174260Y-66087256D01*
X146002743Y-65915739D01*
X146002736Y-65915733D01*
X145810293Y-65768067D01*
X145810292Y-65768066D01*
X145810289Y-65768064D01*
X145600212Y-65646776D01*
X145600205Y-65646773D01*
X145376104Y-65553947D01*
X145141785Y-65491161D01*
X144901289Y-65459500D01*
X144901288Y-65459500D01*
X144658712Y-65459500D01*
X144658711Y-65459500D01*
X144418214Y-65491161D01*
X144183895Y-65553947D01*
X143959794Y-65646773D01*
X143959785Y-65646777D01*
X143749706Y-65768067D01*
X143557263Y-65915733D01*
X143557256Y-65915739D01*
X143385739Y-66087256D01*
X143385733Y-66087263D01*
X143238067Y-66279706D01*
X143116777Y-66489785D01*
X143116773Y-66489794D01*
X143023947Y-66713895D01*
X142961161Y-66948214D01*
X142929500Y-67188711D01*
X138883067Y-67188711D01*
X135960020Y-65240013D01*
X152360000Y-65240013D01*
X152360000Y-65790000D01*
X153276988Y-65790000D01*
X153244075Y-65847007D01*
X153210000Y-65974174D01*
X153210000Y-66105826D01*
X153244075Y-66232993D01*
X153276988Y-66290000D01*
X152360001Y-66290000D01*
X152360001Y-66839986D01*
X152370494Y-66942697D01*
X152425641Y-67109119D01*
X152425643Y-67109124D01*
X152517684Y-67258345D01*
X152641654Y-67382315D01*
X152790875Y-67474356D01*
X152790880Y-67474358D01*
X152957302Y-67529505D01*
X152957309Y-67529506D01*
X153060019Y-67539999D01*
X153459999Y-67539999D01*
X153460000Y-67539998D01*
X153460000Y-66473012D01*
X153517007Y-66505925D01*
X153644174Y-66540000D01*
X153775826Y-66540000D01*
X153902993Y-66505925D01*
X153960000Y-66473012D01*
X153960000Y-67539999D01*
X154359972Y-67539999D01*
X154359986Y-67539998D01*
X154462697Y-67529505D01*
X154629119Y-67474358D01*
X154629124Y-67474356D01*
X154778345Y-67382315D01*
X154902317Y-67258343D01*
X154997815Y-67103516D01*
X155049763Y-67056791D01*
X155118725Y-67045568D01*
X155182808Y-67073412D01*
X155191035Y-67080931D01*
X155330213Y-67220109D01*
X155502179Y-67345048D01*
X155502181Y-67345049D01*
X155502184Y-67345051D01*
X155691588Y-67441557D01*
X155893757Y-67507246D01*
X156103713Y-67540500D01*
X156103714Y-67540500D01*
X156316286Y-67540500D01*
X156316287Y-67540500D01*
X156526243Y-67507246D01*
X156728412Y-67441557D01*
X156917816Y-67345051D01*
X156939789Y-67329086D01*
X157089786Y-67220109D01*
X157089788Y-67220106D01*
X157089792Y-67220104D01*
X157121185Y-67188711D01*
X170869500Y-67188711D01*
X170869500Y-67431288D01*
X170901161Y-67671785D01*
X170963947Y-67906104D01*
X171056773Y-68130205D01*
X171056776Y-68130212D01*
X171178064Y-68340289D01*
X171178066Y-68340292D01*
X171178067Y-68340293D01*
X171325733Y-68532736D01*
X171325739Y-68532743D01*
X171497256Y-68704260D01*
X171497262Y-68704265D01*
X171689711Y-68851936D01*
X171899788Y-68973224D01*
X172123900Y-69066054D01*
X172358211Y-69128838D01*
X172538586Y-69152584D01*
X172598711Y-69160500D01*
X172598712Y-69160500D01*
X172841289Y-69160500D01*
X172889388Y-69154167D01*
X173081789Y-69128838D01*
X173316100Y-69066054D01*
X173540212Y-68973224D01*
X173750289Y-68851936D01*
X173942738Y-68704265D01*
X174114265Y-68532738D01*
X174261936Y-68340289D01*
X174383224Y-68130212D01*
X174476054Y-67906100D01*
X174538838Y-67671789D01*
X174570500Y-67431288D01*
X174570500Y-67188712D01*
X174538838Y-66948211D01*
X174476054Y-66713900D01*
X174383224Y-66489788D01*
X174261936Y-66279711D01*
X174114265Y-66087262D01*
X174114260Y-66087256D01*
X173942743Y-65915739D01*
X173942736Y-65915733D01*
X173750293Y-65768067D01*
X173750292Y-65768066D01*
X173750289Y-65768064D01*
X173540212Y-65646776D01*
X173540205Y-65646773D01*
X173316104Y-65553947D01*
X173081785Y-65491161D01*
X172841289Y-65459500D01*
X172841288Y-65459500D01*
X172598712Y-65459500D01*
X172598711Y-65459500D01*
X172358214Y-65491161D01*
X172123895Y-65553947D01*
X171899794Y-65646773D01*
X171899785Y-65646777D01*
X171689706Y-65768067D01*
X171497263Y-65915733D01*
X171497256Y-65915739D01*
X171325739Y-66087256D01*
X171325733Y-66087263D01*
X171178067Y-66279706D01*
X171056777Y-66489785D01*
X171056773Y-66489794D01*
X170963947Y-66713895D01*
X170901161Y-66948214D01*
X170869500Y-67188711D01*
X157121185Y-67188711D01*
X157240104Y-67069792D01*
X157240106Y-67069788D01*
X157240109Y-67069786D01*
X157365048Y-66897820D01*
X157365047Y-66897820D01*
X157365051Y-66897816D01*
X157461557Y-66708412D01*
X157527246Y-66506243D01*
X157560500Y-66296287D01*
X157560500Y-65783713D01*
X157527246Y-65573757D01*
X157461557Y-65371588D01*
X157365051Y-65182184D01*
X157365049Y-65182181D01*
X157365048Y-65182179D01*
X157240109Y-65010213D01*
X157089786Y-64859890D01*
X156917820Y-64734951D01*
X156728414Y-64638444D01*
X156728413Y-64638443D01*
X156728412Y-64638443D01*
X156526243Y-64572754D01*
X156526241Y-64572753D01*
X156526240Y-64572753D01*
X156364957Y-64547208D01*
X156316287Y-64539500D01*
X156103713Y-64539500D01*
X156055042Y-64547208D01*
X155893760Y-64572753D01*
X155691585Y-64638444D01*
X155502179Y-64734951D01*
X155330215Y-64859889D01*
X155191035Y-64999069D01*
X155129712Y-65032553D01*
X155060020Y-65027569D01*
X155004087Y-64985697D01*
X154997815Y-64976484D01*
X154902315Y-64821654D01*
X154778345Y-64697684D01*
X154629124Y-64605643D01*
X154629119Y-64605641D01*
X154462697Y-64550494D01*
X154462690Y-64550493D01*
X154359986Y-64540000D01*
X153960000Y-64540000D01*
X153960000Y-65606988D01*
X153902993Y-65574075D01*
X153775826Y-65540000D01*
X153644174Y-65540000D01*
X153517007Y-65574075D01*
X153460000Y-65606988D01*
X153460000Y-64540000D01*
X153060028Y-64540000D01*
X153060012Y-64540001D01*
X152957302Y-64550494D01*
X152790880Y-64605641D01*
X152790875Y-64605643D01*
X152641654Y-64697684D01*
X152517684Y-64821654D01*
X152425643Y-64970875D01*
X152425641Y-64970880D01*
X152370494Y-65137302D01*
X152370493Y-65137309D01*
X152360000Y-65240013D01*
X135960020Y-65240013D01*
X135873269Y-65182179D01*
X135805964Y-65137309D01*
X135556313Y-64970875D01*
X135389834Y-64859889D01*
X135202427Y-64734951D01*
X135008462Y-64605641D01*
X131027957Y-61951971D01*
X130810820Y-61807213D01*
X130288835Y-61459223D01*
X129533925Y-60955950D01*
X129386472Y-60857648D01*
X138399500Y-60857648D01*
X138399500Y-61062351D01*
X138431522Y-61264534D01*
X138494781Y-61459223D01*
X138587715Y-61641613D01*
X138708028Y-61807213D01*
X138852786Y-61951971D01*
X139007749Y-62064556D01*
X139018390Y-62072287D01*
X139134607Y-62131503D01*
X139200776Y-62165218D01*
X139200778Y-62165218D01*
X139200781Y-62165220D01*
X139305137Y-62199127D01*
X139395465Y-62228477D01*
X139496557Y-62244488D01*
X139597648Y-62260500D01*
X139597649Y-62260500D01*
X139802351Y-62260500D01*
X139802352Y-62260500D01*
X140004534Y-62228477D01*
X140199219Y-62165220D01*
X140381610Y-62072287D01*
X140474590Y-62004732D01*
X140547213Y-61951971D01*
X140547215Y-61951968D01*
X140547219Y-61951966D01*
X140691966Y-61807219D01*
X140691968Y-61807215D01*
X140691971Y-61807213D01*
X140744732Y-61734590D01*
X140812287Y-61641610D01*
X140905220Y-61459219D01*
X140968477Y-61264534D01*
X141000500Y-61062352D01*
X141000500Y-60857648D01*
X166339500Y-60857648D01*
X166339500Y-61062351D01*
X166371522Y-61264534D01*
X166434781Y-61459223D01*
X166527715Y-61641613D01*
X166648028Y-61807213D01*
X166792786Y-61951971D01*
X166947749Y-62064556D01*
X166958390Y-62072287D01*
X167074607Y-62131503D01*
X167140776Y-62165218D01*
X167140778Y-62165218D01*
X167140781Y-62165220D01*
X167245137Y-62199127D01*
X167335465Y-62228477D01*
X167436557Y-62244488D01*
X167537648Y-62260500D01*
X167537649Y-62260500D01*
X167742351Y-62260500D01*
X167742352Y-62260500D01*
X167944534Y-62228477D01*
X168139219Y-62165220D01*
X168321610Y-62072287D01*
X168414590Y-62004732D01*
X168487213Y-61951971D01*
X168487215Y-61951968D01*
X168487219Y-61951966D01*
X168631966Y-61807219D01*
X168631968Y-61807215D01*
X168631971Y-61807213D01*
X168684732Y-61734590D01*
X168752287Y-61641610D01*
X168845220Y-61459219D01*
X168908477Y-61264534D01*
X168940500Y-61062352D01*
X168940500Y-60857648D01*
X176499500Y-60857648D01*
X176499500Y-61062351D01*
X176531522Y-61264534D01*
X176594781Y-61459223D01*
X176687715Y-61641613D01*
X176808028Y-61807213D01*
X176952786Y-61951971D01*
X177107749Y-62064556D01*
X177118390Y-62072287D01*
X177234607Y-62131503D01*
X177300776Y-62165218D01*
X177300778Y-62165218D01*
X177300781Y-62165220D01*
X177405137Y-62199127D01*
X177495465Y-62228477D01*
X177596557Y-62244488D01*
X177697648Y-62260500D01*
X177697649Y-62260500D01*
X177902351Y-62260500D01*
X177902352Y-62260500D01*
X178104534Y-62228477D01*
X178299219Y-62165220D01*
X178481610Y-62072287D01*
X178574590Y-62004732D01*
X178647213Y-61951971D01*
X178647215Y-61951968D01*
X178647219Y-61951966D01*
X178791966Y-61807219D01*
X178791968Y-61807215D01*
X178791971Y-61807213D01*
X178844732Y-61734590D01*
X178912287Y-61641610D01*
X179005220Y-61459219D01*
X179068477Y-61264534D01*
X179100500Y-61062352D01*
X179100500Y-60857648D01*
X179068477Y-60655466D01*
X179005220Y-60460781D01*
X179005218Y-60460778D01*
X179005218Y-60460776D01*
X178971503Y-60394607D01*
X178912287Y-60278390D01*
X178848432Y-60190500D01*
X178791971Y-60112786D01*
X178647213Y-59968028D01*
X178481613Y-59847715D01*
X178481612Y-59847714D01*
X178481610Y-59847713D01*
X178424653Y-59818691D01*
X178299223Y-59754781D01*
X178104534Y-59691522D01*
X177929995Y-59663878D01*
X177902352Y-59659500D01*
X177697648Y-59659500D01*
X177673329Y-59663351D01*
X177495465Y-59691522D01*
X177300776Y-59754781D01*
X177118386Y-59847715D01*
X176952786Y-59968028D01*
X176808028Y-60112786D01*
X176687715Y-60278386D01*
X176594781Y-60460776D01*
X176531522Y-60655465D01*
X176499500Y-60857648D01*
X168940500Y-60857648D01*
X168908477Y-60655466D01*
X168845220Y-60460781D01*
X168845218Y-60460778D01*
X168845218Y-60460776D01*
X168811503Y-60394607D01*
X168752287Y-60278390D01*
X168688432Y-60190500D01*
X168631971Y-60112786D01*
X168487213Y-59968028D01*
X168321613Y-59847715D01*
X168321612Y-59847714D01*
X168321610Y-59847713D01*
X168264653Y-59818691D01*
X168139223Y-59754781D01*
X167944534Y-59691522D01*
X167769995Y-59663878D01*
X167742352Y-59659500D01*
X167537648Y-59659500D01*
X167513329Y-59663351D01*
X167335465Y-59691522D01*
X167140776Y-59754781D01*
X166958386Y-59847715D01*
X166792786Y-59968028D01*
X166648028Y-60112786D01*
X166527715Y-60278386D01*
X166434781Y-60460776D01*
X166371522Y-60655465D01*
X166339500Y-60857648D01*
X141000500Y-60857648D01*
X140968477Y-60655466D01*
X140905220Y-60460781D01*
X140905218Y-60460778D01*
X140905218Y-60460776D01*
X140871503Y-60394607D01*
X140812287Y-60278390D01*
X140748432Y-60190500D01*
X140691971Y-60112786D01*
X140547213Y-59968028D01*
X140381613Y-59847715D01*
X140381612Y-59847714D01*
X140381610Y-59847713D01*
X140324653Y-59818691D01*
X140199223Y-59754781D01*
X140004534Y-59691522D01*
X139829995Y-59663878D01*
X139802352Y-59659500D01*
X139597648Y-59659500D01*
X139573329Y-59663351D01*
X139395465Y-59691522D01*
X139200776Y-59754781D01*
X139018386Y-59847715D01*
X138852786Y-59968028D01*
X138708028Y-60112786D01*
X138587715Y-60278386D01*
X138494781Y-60460776D01*
X138431522Y-60655465D01*
X138399500Y-60857648D01*
X129386472Y-60857648D01*
X127313084Y-59475389D01*
X125730000Y-58420000D01*
X109344000Y-58420000D01*
X109335314Y-58417449D01*
X109326353Y-58418738D01*
X109302312Y-58407759D01*
X109276961Y-58400315D01*
X109271033Y-58393474D01*
X109262797Y-58389713D01*
X109248507Y-58367478D01*
X109231206Y-58347511D01*
X109228918Y-58336996D01*
X109225023Y-58330935D01*
X109220000Y-58296000D01*
X109220000Y-58237682D01*
X144750000Y-58237682D01*
X144750000Y-58442317D01*
X144782009Y-58644417D01*
X144845244Y-58839031D01*
X144938141Y-59021350D01*
X144938147Y-59021359D01*
X144970523Y-59065921D01*
X144970524Y-59065922D01*
X145650000Y-58386446D01*
X145650000Y-58392661D01*
X145677259Y-58494394D01*
X145729920Y-58585606D01*
X145804394Y-58660080D01*
X145895606Y-58712741D01*
X145997339Y-58740000D01*
X146003553Y-58740000D01*
X145324076Y-59419474D01*
X145368650Y-59451859D01*
X145550968Y-59544755D01*
X145745582Y-59607990D01*
X145947683Y-59640000D01*
X146152317Y-59640000D01*
X146354417Y-59607990D01*
X146549031Y-59544755D01*
X146731349Y-59451859D01*
X146775921Y-59419474D01*
X146775922Y-59419474D01*
X146096447Y-58740000D01*
X146102661Y-58740000D01*
X146204394Y-58712741D01*
X146295606Y-58660080D01*
X146370080Y-58585606D01*
X146422741Y-58494394D01*
X146450000Y-58392661D01*
X146450000Y-58386448D01*
X147129474Y-59065922D01*
X147129474Y-59065921D01*
X147161859Y-59021349D01*
X147254755Y-58839031D01*
X147317990Y-58644417D01*
X147350000Y-58442317D01*
X147350000Y-58237682D01*
X147317990Y-58035582D01*
X147254755Y-57840968D01*
X147161859Y-57658650D01*
X147129474Y-57614077D01*
X147129474Y-57614076D01*
X146450000Y-58293551D01*
X146450000Y-58287339D01*
X146422741Y-58185606D01*
X146370080Y-58094394D01*
X146295606Y-58019920D01*
X146204394Y-57967259D01*
X146102661Y-57940000D01*
X146096446Y-57940000D01*
X146775922Y-57260524D01*
X146775921Y-57260523D01*
X146731359Y-57228147D01*
X146731350Y-57228141D01*
X146549031Y-57135244D01*
X146354417Y-57072009D01*
X146152317Y-57040000D01*
X145947683Y-57040000D01*
X145745582Y-57072009D01*
X145550968Y-57135244D01*
X145368644Y-57228143D01*
X145324077Y-57260523D01*
X145324077Y-57260524D01*
X146003554Y-57940000D01*
X145997339Y-57940000D01*
X145895606Y-57967259D01*
X145804394Y-58019920D01*
X145729920Y-58094394D01*
X145677259Y-58185606D01*
X145650000Y-58287339D01*
X145650000Y-58293553D01*
X144970524Y-57614077D01*
X144970523Y-57614077D01*
X144938143Y-57658644D01*
X144845244Y-57840968D01*
X144782009Y-58035582D01*
X144750000Y-58237682D01*
X109220000Y-58237682D01*
X109220000Y-47312135D01*
X111629500Y-47312135D01*
X111629500Y-49207870D01*
X111629501Y-49207876D01*
X111635908Y-49267483D01*
X111686202Y-49402328D01*
X111686206Y-49402335D01*
X111772452Y-49517544D01*
X111772455Y-49517547D01*
X111887664Y-49603793D01*
X111887671Y-49603797D01*
X111967580Y-49633601D01*
X112023514Y-49675472D01*
X112047931Y-49740936D01*
X112033080Y-49809209D01*
X112011929Y-49837463D01*
X111961756Y-49887636D01*
X111961752Y-49887641D01*
X111832187Y-50065974D01*
X111732104Y-50262393D01*
X111732103Y-50262396D01*
X111663985Y-50472047D01*
X111629500Y-50689778D01*
X111629500Y-50910221D01*
X111663985Y-51127952D01*
X111732103Y-51337603D01*
X111732104Y-51337606D01*
X111800122Y-51471096D01*
X111819636Y-51509394D01*
X111832187Y-51534025D01*
X111961752Y-51712358D01*
X111961756Y-51712363D01*
X112117636Y-51868243D01*
X112117641Y-51868247D01*
X112257254Y-51969682D01*
X112299920Y-52025012D01*
X112305899Y-52094625D01*
X112273293Y-52156420D01*
X112257254Y-52170318D01*
X112117641Y-52271752D01*
X112117636Y-52271756D01*
X111961756Y-52427636D01*
X111961752Y-52427641D01*
X111832187Y-52605974D01*
X111732104Y-52802393D01*
X111732103Y-52802396D01*
X111663985Y-53012047D01*
X111629500Y-53229778D01*
X111629500Y-53450221D01*
X111663985Y-53667952D01*
X111732103Y-53877603D01*
X111732104Y-53877606D01*
X111800122Y-54011096D01*
X111805479Y-54021610D01*
X111832187Y-54074025D01*
X111961752Y-54252358D01*
X111961756Y-54252363D01*
X112011928Y-54302535D01*
X112045413Y-54363858D01*
X112040429Y-54433550D01*
X111998557Y-54489483D01*
X111967581Y-54506398D01*
X111887669Y-54536203D01*
X111887664Y-54536206D01*
X111772455Y-54622452D01*
X111772452Y-54622455D01*
X111686206Y-54737664D01*
X111686202Y-54737671D01*
X111635908Y-54872517D01*
X111629501Y-54932116D01*
X111629501Y-54932123D01*
X111629500Y-54932135D01*
X111629500Y-56827870D01*
X111629501Y-56827876D01*
X111635908Y-56887483D01*
X111686202Y-57022328D01*
X111686206Y-57022335D01*
X111772452Y-57137544D01*
X111772455Y-57137547D01*
X111887664Y-57223793D01*
X111887671Y-57223797D01*
X112022517Y-57274091D01*
X112022516Y-57274091D01*
X112029444Y-57274835D01*
X112082127Y-57280500D01*
X113977872Y-57280499D01*
X114037483Y-57274091D01*
X114172331Y-57223796D01*
X114287546Y-57137546D01*
X114337248Y-57071153D01*
X141439500Y-57071153D01*
X141439500Y-57228846D01*
X141470261Y-57383489D01*
X141470264Y-57383501D01*
X141530602Y-57529172D01*
X141530609Y-57529185D01*
X141618210Y-57660288D01*
X141618213Y-57660292D01*
X141729707Y-57771786D01*
X141729711Y-57771789D01*
X141860814Y-57859390D01*
X141860827Y-57859397D01*
X142006498Y-57919735D01*
X142006503Y-57919737D01*
X142161153Y-57950499D01*
X142161156Y-57950500D01*
X142161158Y-57950500D01*
X142318844Y-57950500D01*
X142318845Y-57950499D01*
X142473497Y-57919737D01*
X142619179Y-57859394D01*
X142750289Y-57771789D01*
X142861789Y-57660289D01*
X142949394Y-57529179D01*
X143009737Y-57383497D01*
X143024726Y-57308143D01*
X143029610Y-57283592D01*
X143040638Y-57228150D01*
X143073023Y-57166239D01*
X143074518Y-57164716D01*
X145605159Y-54634075D01*
X145666480Y-54600592D01*
X145731154Y-54603826D01*
X145745466Y-54608477D01*
X145947648Y-54640500D01*
X145947649Y-54640500D01*
X146152351Y-54640500D01*
X146152352Y-54640500D01*
X146354534Y-54608477D01*
X146549219Y-54545220D01*
X146731610Y-54452287D01*
X146875862Y-54347483D01*
X146897213Y-54331971D01*
X146897215Y-54331968D01*
X146897219Y-54331966D01*
X147041966Y-54187219D01*
X147041968Y-54187215D01*
X147041971Y-54187213D01*
X147097505Y-54110776D01*
X147162287Y-54021610D01*
X147255220Y-53839219D01*
X147318477Y-53644534D01*
X147350500Y-53442352D01*
X147350500Y-53237648D01*
X147318477Y-53035465D01*
X147255218Y-52840776D01*
X147221503Y-52774607D01*
X147162287Y-52658390D01*
X147124205Y-52605974D01*
X147041971Y-52492786D01*
X146897213Y-52348028D01*
X146731613Y-52227715D01*
X146731612Y-52227714D01*
X146731610Y-52227713D01*
X146672636Y-52197664D01*
X146549223Y-52134781D01*
X146354534Y-52071522D01*
X146179995Y-52043878D01*
X146152352Y-52039500D01*
X145947648Y-52039500D01*
X145923329Y-52043351D01*
X145745465Y-52071522D01*
X145550776Y-52134781D01*
X145368386Y-52227715D01*
X145202786Y-52348028D01*
X145058028Y-52492786D01*
X144937715Y-52658386D01*
X144844781Y-52840776D01*
X144781522Y-53035465D01*
X144749500Y-53237648D01*
X144749500Y-53442352D01*
X144758269Y-53497715D01*
X144781523Y-53644535D01*
X144786172Y-53658845D01*
X144788165Y-53728687D01*
X144755921Y-53784841D01*
X142225339Y-56315425D01*
X142164016Y-56348910D01*
X142161850Y-56349361D01*
X142006508Y-56380261D01*
X142006498Y-56380264D01*
X141860827Y-56440602D01*
X141860814Y-56440609D01*
X141729711Y-56528210D01*
X141729707Y-56528213D01*
X141618213Y-56639707D01*
X141618210Y-56639711D01*
X141530609Y-56770814D01*
X141530602Y-56770827D01*
X141470264Y-56916498D01*
X141470261Y-56916510D01*
X141439500Y-57071153D01*
X114337248Y-57071153D01*
X114373796Y-57022331D01*
X114424091Y-56887483D01*
X114430500Y-56827873D01*
X114430499Y-54932128D01*
X114424091Y-54872517D01*
X114417983Y-54856141D01*
X114373797Y-54737671D01*
X114373793Y-54737664D01*
X114287547Y-54622455D01*
X114287544Y-54622452D01*
X114172335Y-54536206D01*
X114172328Y-54536202D01*
X114092419Y-54506398D01*
X114036485Y-54464527D01*
X114012068Y-54399062D01*
X114026920Y-54330789D01*
X114048069Y-54302537D01*
X114098242Y-54252365D01*
X114227815Y-54074022D01*
X114327895Y-53877606D01*
X114396015Y-53667951D01*
X114430500Y-53450222D01*
X114430500Y-53229778D01*
X114396015Y-53012049D01*
X114327895Y-52802394D01*
X114327895Y-52802393D01*
X114293237Y-52734375D01*
X114227815Y-52605978D01*
X114145573Y-52492781D01*
X114098247Y-52427641D01*
X114098243Y-52427636D01*
X113942363Y-52271756D01*
X113942358Y-52271752D01*
X113802745Y-52170318D01*
X113760079Y-52114989D01*
X113754100Y-52045375D01*
X113786705Y-51983580D01*
X113802745Y-51969682D01*
X113942358Y-51868247D01*
X113942356Y-51868247D01*
X113942365Y-51868242D01*
X114098242Y-51712365D01*
X114227815Y-51534022D01*
X114327895Y-51337606D01*
X114396015Y-51127951D01*
X114430500Y-50910222D01*
X114430500Y-50697648D01*
X138399500Y-50697648D01*
X138399500Y-50902351D01*
X138431522Y-51104534D01*
X138494781Y-51299223D01*
X138587715Y-51481613D01*
X138708028Y-51647213D01*
X138852786Y-51791971D01*
X139007749Y-51904556D01*
X139018390Y-51912287D01*
X139111080Y-51959515D01*
X139200776Y-52005218D01*
X139200778Y-52005218D01*
X139200781Y-52005220D01*
X139261695Y-52025012D01*
X139395465Y-52068477D01*
X139414697Y-52071523D01*
X139597648Y-52100500D01*
X139597649Y-52100500D01*
X139802351Y-52100500D01*
X139802352Y-52100500D01*
X140004534Y-52068477D01*
X140199219Y-52005220D01*
X140381610Y-51912287D01*
X140510482Y-51818657D01*
X140547213Y-51791971D01*
X140547215Y-51791968D01*
X140547219Y-51791966D01*
X140691966Y-51647219D01*
X140691968Y-51647215D01*
X140691971Y-51647213D01*
X140748259Y-51569738D01*
X140812287Y-51481610D01*
X140905220Y-51299219D01*
X140968477Y-51104534D01*
X141000500Y-50902352D01*
X141000500Y-50721153D01*
X142709500Y-50721153D01*
X142709500Y-50878846D01*
X142740261Y-51033489D01*
X142740264Y-51033501D01*
X142800602Y-51179172D01*
X142800609Y-51179185D01*
X142888210Y-51310288D01*
X142888213Y-51310292D01*
X142999707Y-51421786D01*
X142999711Y-51421789D01*
X143130814Y-51509390D01*
X143130827Y-51509397D01*
X143276498Y-51569735D01*
X143276503Y-51569737D01*
X143431153Y-51600499D01*
X143431156Y-51600500D01*
X143431158Y-51600500D01*
X143588844Y-51600500D01*
X143588845Y-51600499D01*
X143743497Y-51569737D01*
X143889179Y-51509394D01*
X143930761Y-51481610D01*
X144020875Y-51421398D01*
X144087553Y-51400520D01*
X144089766Y-51400500D01*
X148010234Y-51400500D01*
X148077273Y-51420185D01*
X148079125Y-51421398D01*
X148210814Y-51509390D01*
X148210827Y-51509397D01*
X148356498Y-51569735D01*
X148356503Y-51569737D01*
X148511153Y-51600499D01*
X148511156Y-51600500D01*
X148511158Y-51600500D01*
X148668844Y-51600500D01*
X148668845Y-51600499D01*
X148823497Y-51569737D01*
X148969179Y-51509394D01*
X149100289Y-51421789D01*
X149211789Y-51310289D01*
X149299394Y-51179179D01*
X149359737Y-51033497D01*
X149390500Y-50878842D01*
X149390500Y-50721158D01*
X149390500Y-50721155D01*
X149390499Y-50721153D01*
X149359737Y-50566503D01*
X149330313Y-50495466D01*
X149299397Y-50420827D01*
X149299390Y-50420814D01*
X149211789Y-50289711D01*
X149211786Y-50289707D01*
X149122062Y-50199983D01*
X149829500Y-50199983D01*
X149829500Y-51400001D01*
X149829501Y-51400018D01*
X149840000Y-51502796D01*
X149840001Y-51502799D01*
X149887856Y-51647213D01*
X149895186Y-51669334D01*
X149987288Y-51818656D01*
X150111344Y-51942712D01*
X150260666Y-52034814D01*
X150342570Y-52061954D01*
X150400015Y-52101727D01*
X150426838Y-52166243D01*
X150414523Y-52235018D01*
X150376451Y-52279978D01*
X150282787Y-52348028D01*
X150282782Y-52348032D01*
X150138028Y-52492786D01*
X150017715Y-52658386D01*
X149924781Y-52840776D01*
X149861522Y-53035465D01*
X149829500Y-53237648D01*
X149829500Y-53442351D01*
X149861522Y-53644534D01*
X149924781Y-53839223D01*
X150017715Y-54021613D01*
X150138028Y-54187213D01*
X150282786Y-54331971D01*
X150437749Y-54444556D01*
X150448390Y-54452287D01*
X150539840Y-54498883D01*
X150541080Y-54499515D01*
X150591876Y-54547490D01*
X150608671Y-54615311D01*
X150586134Y-54681446D01*
X150541080Y-54720485D01*
X150448386Y-54767715D01*
X150282786Y-54888028D01*
X150138028Y-55032786D01*
X150017715Y-55198386D01*
X149924781Y-55380776D01*
X149861522Y-55575465D01*
X149829500Y-55777648D01*
X149829500Y-55982351D01*
X149861522Y-56184534D01*
X149924781Y-56379223D01*
X149976385Y-56480500D01*
X150000696Y-56528213D01*
X150017715Y-56561613D01*
X150138028Y-56727213D01*
X150282786Y-56871971D01*
X150448385Y-56992284D01*
X150448387Y-56992285D01*
X150448390Y-56992287D01*
X150541080Y-57039515D01*
X150541630Y-57039795D01*
X150592426Y-57087770D01*
X150609221Y-57155591D01*
X150586684Y-57221725D01*
X150541630Y-57260765D01*
X150448644Y-57308143D01*
X150404077Y-57340523D01*
X150404077Y-57340524D01*
X151083554Y-58020000D01*
X151077339Y-58020000D01*
X150975606Y-58047259D01*
X150884394Y-58099920D01*
X150809920Y-58174394D01*
X150757259Y-58265606D01*
X150730000Y-58367339D01*
X150730000Y-58373553D01*
X150050524Y-57694077D01*
X150050523Y-57694077D01*
X150018143Y-57738644D01*
X149925244Y-57920968D01*
X149862009Y-58115582D01*
X149830000Y-58317682D01*
X149830000Y-58522317D01*
X149862009Y-58724417D01*
X149925244Y-58919031D01*
X150018141Y-59101350D01*
X150018147Y-59101359D01*
X150050523Y-59145921D01*
X150050524Y-59145922D01*
X150730000Y-58466446D01*
X150730000Y-58472661D01*
X150757259Y-58574394D01*
X150809920Y-58665606D01*
X150884394Y-58740080D01*
X150975606Y-58792741D01*
X151077339Y-58820000D01*
X151083553Y-58820000D01*
X150404076Y-59499474D01*
X150448650Y-59531859D01*
X150630968Y-59624755D01*
X150825582Y-59687990D01*
X151027683Y-59720000D01*
X151232317Y-59720000D01*
X151434417Y-59687990D01*
X151629031Y-59624755D01*
X151811349Y-59531859D01*
X151855921Y-59499474D01*
X151176447Y-58820000D01*
X151182661Y-58820000D01*
X151284394Y-58792741D01*
X151375606Y-58740080D01*
X151450080Y-58665606D01*
X151502741Y-58574394D01*
X151530000Y-58472661D01*
X151530000Y-58466448D01*
X152209474Y-59145922D01*
X152209474Y-59145921D01*
X152241859Y-59101349D01*
X152334755Y-58919031D01*
X152397990Y-58724417D01*
X152430000Y-58522317D01*
X152430000Y-58317682D01*
X152397990Y-58115582D01*
X152334755Y-57920968D01*
X152241859Y-57738650D01*
X152209474Y-57694077D01*
X152209474Y-57694076D01*
X151530000Y-58373551D01*
X151530000Y-58367339D01*
X151502741Y-58265606D01*
X151450080Y-58174394D01*
X151375606Y-58099920D01*
X151284394Y-58047259D01*
X151182661Y-58020000D01*
X151176446Y-58020000D01*
X151855922Y-57340524D01*
X151855921Y-57340523D01*
X151811359Y-57308147D01*
X151811350Y-57308141D01*
X151718369Y-57260765D01*
X151667573Y-57212790D01*
X151650778Y-57144969D01*
X151673315Y-57078835D01*
X151718370Y-57039795D01*
X151718920Y-57039515D01*
X151811610Y-56992287D01*
X151915919Y-56916503D01*
X151977213Y-56871971D01*
X151977215Y-56871968D01*
X151977219Y-56871966D01*
X152121966Y-56727219D01*
X152121968Y-56727215D01*
X152121971Y-56727213D01*
X152185547Y-56639707D01*
X152242287Y-56561610D01*
X152335220Y-56379219D01*
X152398477Y-56184534D01*
X152430500Y-55982352D01*
X152430500Y-55777648D01*
X152398477Y-55575465D01*
X152335218Y-55380776D01*
X152295457Y-55302742D01*
X152242287Y-55198390D01*
X152204205Y-55145974D01*
X152121971Y-55032786D01*
X151977213Y-54888028D01*
X151811614Y-54767715D01*
X151787586Y-54755472D01*
X151718917Y-54720483D01*
X151668123Y-54672511D01*
X151651328Y-54604690D01*
X151673865Y-54538555D01*
X151718917Y-54499516D01*
X151811610Y-54452287D01*
X151832770Y-54436913D01*
X151977213Y-54331971D01*
X151977215Y-54331968D01*
X151977219Y-54331966D01*
X152121966Y-54187219D01*
X152121968Y-54187215D01*
X152121971Y-54187213D01*
X152177505Y-54110776D01*
X152242287Y-54021610D01*
X152335220Y-53839219D01*
X152398477Y-53644534D01*
X152430500Y-53442352D01*
X152430500Y-53237648D01*
X152398477Y-53035465D01*
X152335218Y-52840776D01*
X152301503Y-52774607D01*
X152242287Y-52658390D01*
X152204205Y-52605974D01*
X152121971Y-52492786D01*
X151977219Y-52348034D01*
X151977211Y-52348028D01*
X151883547Y-52279978D01*
X151840882Y-52224649D01*
X151834903Y-52155036D01*
X151867508Y-52093240D01*
X151917426Y-52061955D01*
X151999334Y-52034814D01*
X152148656Y-51942712D01*
X152272712Y-51818656D01*
X152364814Y-51669334D01*
X152419999Y-51502797D01*
X152430500Y-51400009D01*
X152430499Y-50697648D01*
X157449500Y-50697648D01*
X157449500Y-50902351D01*
X157481522Y-51104534D01*
X157544781Y-51299223D01*
X157637715Y-51481613D01*
X157758028Y-51647213D01*
X157902786Y-51791971D01*
X158057749Y-51904556D01*
X158068390Y-51912287D01*
X158159840Y-51958883D01*
X158161080Y-51959515D01*
X158211876Y-52007490D01*
X158228671Y-52075311D01*
X158206134Y-52141446D01*
X158161080Y-52180485D01*
X158068386Y-52227715D01*
X157902786Y-52348028D01*
X157758028Y-52492786D01*
X157637715Y-52658386D01*
X157544781Y-52840776D01*
X157481522Y-53035465D01*
X157449500Y-53237648D01*
X157449500Y-53442351D01*
X157481522Y-53644534D01*
X157544781Y-53839223D01*
X157637715Y-54021613D01*
X157758028Y-54187213D01*
X157902786Y-54331971D01*
X158057749Y-54444556D01*
X158068390Y-54452287D01*
X158159840Y-54498883D01*
X158161080Y-54499515D01*
X158211876Y-54547490D01*
X158228671Y-54615311D01*
X158206134Y-54681446D01*
X158161080Y-54720485D01*
X158068386Y-54767715D01*
X157902786Y-54888028D01*
X157758028Y-55032786D01*
X157637715Y-55198386D01*
X157544781Y-55380776D01*
X157481522Y-55575465D01*
X157449500Y-55777648D01*
X157449500Y-55982351D01*
X157481522Y-56184534D01*
X157544781Y-56379223D01*
X157596385Y-56480500D01*
X157620696Y-56528213D01*
X157637715Y-56561613D01*
X157758028Y-56727213D01*
X157902786Y-56871971D01*
X158057749Y-56984556D01*
X158068390Y-56992287D01*
X158159840Y-57038883D01*
X158161080Y-57039515D01*
X158211876Y-57087490D01*
X158228671Y-57155311D01*
X158206134Y-57221446D01*
X158161080Y-57260485D01*
X158068386Y-57307715D01*
X157902786Y-57428028D01*
X157758028Y-57572786D01*
X157637715Y-57738386D01*
X157544781Y-57920776D01*
X157481522Y-58115465D01*
X157449500Y-58317648D01*
X157449500Y-58522351D01*
X157481522Y-58724534D01*
X157544781Y-58919223D01*
X157596818Y-59021349D01*
X157637585Y-59101359D01*
X157637715Y-59101613D01*
X157758028Y-59267213D01*
X157902786Y-59411971D01*
X158023226Y-59499474D01*
X158068390Y-59532287D01*
X158184607Y-59591503D01*
X158250776Y-59625218D01*
X158250778Y-59625218D01*
X158250781Y-59625220D01*
X158355137Y-59659127D01*
X158445465Y-59688477D01*
X158464697Y-59691523D01*
X158647648Y-59720500D01*
X158647649Y-59720500D01*
X158852351Y-59720500D01*
X158852352Y-59720500D01*
X159054534Y-59688477D01*
X159249219Y-59625220D01*
X159431610Y-59532287D01*
X159542311Y-59451859D01*
X159597213Y-59411971D01*
X159597215Y-59411968D01*
X159597219Y-59411966D01*
X159741966Y-59267219D01*
X159741968Y-59267215D01*
X159741971Y-59267213D01*
X159801547Y-59185212D01*
X159862287Y-59101610D01*
X159955220Y-58919219D01*
X160018477Y-58724534D01*
X160050500Y-58522352D01*
X160050500Y-58317648D01*
X160029586Y-58185606D01*
X160018477Y-58115465D01*
X159976556Y-57986446D01*
X159955220Y-57920781D01*
X159955218Y-57920778D01*
X159955218Y-57920776D01*
X159914553Y-57840968D01*
X159862287Y-57738390D01*
X159830092Y-57694077D01*
X159741971Y-57572786D01*
X159597213Y-57428028D01*
X159431614Y-57307715D01*
X159425006Y-57304348D01*
X159338917Y-57260483D01*
X159288123Y-57212511D01*
X159271328Y-57144690D01*
X159293865Y-57078555D01*
X159338917Y-57039516D01*
X159431610Y-56992287D01*
X159452770Y-56976913D01*
X159597213Y-56871971D01*
X159597215Y-56871968D01*
X159597219Y-56871966D01*
X159741966Y-56727219D01*
X159741968Y-56727215D01*
X159741971Y-56727213D01*
X159862284Y-56561614D01*
X159862285Y-56561613D01*
X159862287Y-56561610D01*
X159869117Y-56548204D01*
X159917091Y-56497409D01*
X159979602Y-56480500D01*
X166069903Y-56480500D01*
X166136942Y-56500185D01*
X166157584Y-56516819D01*
X167155139Y-57514374D01*
X167155149Y-57514385D01*
X167159479Y-57518715D01*
X167159480Y-57518716D01*
X167271284Y-57630520D01*
X167319998Y-57658644D01*
X167358095Y-57680639D01*
X167358097Y-57680641D01*
X167408213Y-57709576D01*
X167408215Y-57709577D01*
X167560942Y-57750500D01*
X167560943Y-57750500D01*
X175173331Y-57750500D01*
X175173347Y-57750501D01*
X175180943Y-57750501D01*
X175339054Y-57750501D01*
X175339057Y-57750501D01*
X175491785Y-57709577D01*
X175541904Y-57680639D01*
X175628716Y-57630520D01*
X175740520Y-57518716D01*
X175740521Y-57518713D01*
X175985144Y-57274091D01*
X176375520Y-56883716D01*
X176375520Y-56883714D01*
X176385724Y-56873511D01*
X176385728Y-56873506D01*
X177355158Y-55904075D01*
X177416479Y-55870592D01*
X177481151Y-55873825D01*
X177495466Y-55878477D01*
X177697648Y-55910500D01*
X177697649Y-55910500D01*
X177902351Y-55910500D01*
X177902352Y-55910500D01*
X178104534Y-55878477D01*
X178299219Y-55815220D01*
X178481610Y-55722287D01*
X178574590Y-55654732D01*
X178647213Y-55601971D01*
X178647215Y-55601968D01*
X178647219Y-55601966D01*
X178791966Y-55457219D01*
X178791968Y-55457215D01*
X178791971Y-55457213D01*
X178875389Y-55342396D01*
X178912287Y-55291610D01*
X179005220Y-55109219D01*
X179068477Y-54914534D01*
X179100500Y-54712352D01*
X179100500Y-54507648D01*
X179068477Y-54305466D01*
X179067524Y-54302534D01*
X179005218Y-54110776D01*
X178971503Y-54044607D01*
X178912287Y-53928390D01*
X178875391Y-53877606D01*
X178791971Y-53762786D01*
X178647213Y-53618028D01*
X178481613Y-53497715D01*
X178481612Y-53497714D01*
X178481610Y-53497713D01*
X178388402Y-53450221D01*
X178299223Y-53404781D01*
X178104534Y-53341522D01*
X177929995Y-53313878D01*
X177902352Y-53309500D01*
X177697648Y-53309500D01*
X177673329Y-53313351D01*
X177495465Y-53341522D01*
X177300776Y-53404781D01*
X177118386Y-53497715D01*
X176952786Y-53618028D01*
X176808028Y-53762786D01*
X176687715Y-53928386D01*
X176594781Y-54110776D01*
X176531522Y-54305465D01*
X176499500Y-54507648D01*
X176499500Y-54712351D01*
X176531522Y-54914534D01*
X176536173Y-54928848D01*
X176538165Y-54998690D01*
X176505921Y-55054842D01*
X175526286Y-56034478D01*
X175526284Y-56034480D01*
X175143159Y-56417606D01*
X175047584Y-56513181D01*
X174986261Y-56546666D01*
X174959903Y-56549500D01*
X167940097Y-56549500D01*
X167873058Y-56529815D01*
X167852416Y-56513181D01*
X167461416Y-56122181D01*
X167427931Y-56060858D01*
X167432915Y-55991166D01*
X167474787Y-55935233D01*
X167540251Y-55910816D01*
X167549097Y-55910500D01*
X167742351Y-55910500D01*
X167742352Y-55910500D01*
X167944534Y-55878477D01*
X168139219Y-55815220D01*
X168321610Y-55722287D01*
X168414590Y-55654732D01*
X168487213Y-55601971D01*
X168487215Y-55601968D01*
X168487219Y-55601966D01*
X168631966Y-55457219D01*
X168631968Y-55457215D01*
X168631971Y-55457213D01*
X168715389Y-55342396D01*
X168752287Y-55291610D01*
X168845220Y-55109219D01*
X168908477Y-54914534D01*
X168940500Y-54712352D01*
X168940500Y-54507648D01*
X168908477Y-54305466D01*
X168907524Y-54302534D01*
X168845218Y-54110776D01*
X168811503Y-54044607D01*
X168752287Y-53928390D01*
X168715391Y-53877606D01*
X168631971Y-53762786D01*
X168487213Y-53618028D01*
X168321613Y-53497715D01*
X168321612Y-53497714D01*
X168321610Y-53497713D01*
X168228402Y-53450221D01*
X168139223Y-53404781D01*
X167944534Y-53341522D01*
X167769995Y-53313878D01*
X167742352Y-53309500D01*
X167537648Y-53309500D01*
X167513329Y-53313351D01*
X167335465Y-53341522D01*
X167140776Y-53404781D01*
X166958386Y-53497715D01*
X166792786Y-53618028D01*
X166648028Y-53762786D01*
X166527715Y-53928386D01*
X166434781Y-54110776D01*
X166371522Y-54305465D01*
X166339500Y-54507648D01*
X166339500Y-54712351D01*
X166371522Y-54914534D01*
X166409944Y-55032781D01*
X166434780Y-55109219D01*
X166434781Y-55109222D01*
X166436286Y-55113852D01*
X166434967Y-55114280D01*
X166437802Y-55140677D01*
X166442471Y-55173143D01*
X166441513Y-55175238D01*
X166441760Y-55177531D01*
X166427070Y-55206867D01*
X166413448Y-55236699D01*
X166411509Y-55237944D01*
X166410477Y-55240007D01*
X166382253Y-55256747D01*
X166354671Y-55274475D01*
X166351629Y-55274912D01*
X166350384Y-55275651D01*
X166319736Y-55279499D01*
X166290943Y-55279499D01*
X166290939Y-55279499D01*
X166283334Y-55279500D01*
X166283333Y-55279499D01*
X166283331Y-55279500D01*
X159979602Y-55279500D01*
X159912563Y-55259815D01*
X159869117Y-55211795D01*
X159862284Y-55198385D01*
X159741971Y-55032786D01*
X159597213Y-54888028D01*
X159431614Y-54767715D01*
X159407586Y-54755472D01*
X159338917Y-54720483D01*
X159288123Y-54672511D01*
X159271328Y-54604690D01*
X159293865Y-54538555D01*
X159338917Y-54499516D01*
X159431610Y-54452287D01*
X159452770Y-54436913D01*
X159597213Y-54331971D01*
X159597215Y-54331968D01*
X159597219Y-54331966D01*
X159741966Y-54187219D01*
X159741968Y-54187215D01*
X159741971Y-54187213D01*
X159797505Y-54110776D01*
X159862287Y-54021610D01*
X159955220Y-53839219D01*
X160018477Y-53644534D01*
X160050500Y-53442352D01*
X160050500Y-53237648D01*
X160018477Y-53035465D01*
X159955218Y-52840776D01*
X159921503Y-52774607D01*
X159862287Y-52658390D01*
X159824205Y-52605974D01*
X159741971Y-52492786D01*
X159597213Y-52348028D01*
X159431614Y-52227715D01*
X159372645Y-52197669D01*
X159338917Y-52180483D01*
X159288123Y-52132511D01*
X159271328Y-52064690D01*
X159293865Y-51998555D01*
X159338917Y-51959516D01*
X159431610Y-51912287D01*
X159452770Y-51896913D01*
X159597213Y-51791971D01*
X159597215Y-51791968D01*
X159597219Y-51791966D01*
X159741966Y-51647219D01*
X159741968Y-51647215D01*
X159741971Y-51647213D01*
X159798259Y-51569738D01*
X159862287Y-51481610D01*
X159955220Y-51299219D01*
X160018477Y-51104534D01*
X160050500Y-50902352D01*
X160050500Y-50697648D01*
X160018477Y-50495465D01*
X159955218Y-50300776D01*
X159903865Y-50199991D01*
X159862287Y-50118390D01*
X159824205Y-50065974D01*
X159741971Y-49952786D01*
X159597213Y-49808028D01*
X159431613Y-49687715D01*
X159431612Y-49687714D01*
X159431610Y-49687713D01*
X159358607Y-49650516D01*
X159249223Y-49594781D01*
X159054534Y-49531522D01*
X158879995Y-49503878D01*
X158852352Y-49499500D01*
X158647648Y-49499500D01*
X158623329Y-49503351D01*
X158445465Y-49531522D01*
X158250776Y-49594781D01*
X158068386Y-49687715D01*
X157902786Y-49808028D01*
X157758028Y-49952786D01*
X157637715Y-50118386D01*
X157544781Y-50300776D01*
X157481522Y-50495465D01*
X157449500Y-50697648D01*
X152430499Y-50697648D01*
X152430499Y-50199992D01*
X152419999Y-50097203D01*
X152364814Y-49930666D01*
X152272712Y-49781344D01*
X152148656Y-49657288D01*
X151999334Y-49565186D01*
X151832797Y-49510001D01*
X151832795Y-49510000D01*
X151730010Y-49499500D01*
X150529998Y-49499500D01*
X150529981Y-49499501D01*
X150427203Y-49510000D01*
X150427200Y-49510001D01*
X150260668Y-49565185D01*
X150260663Y-49565187D01*
X150111342Y-49657289D01*
X149987289Y-49781342D01*
X149895187Y-49930663D01*
X149895186Y-49930666D01*
X149840001Y-50097203D01*
X149840001Y-50097204D01*
X149840000Y-50097204D01*
X149829500Y-50199983D01*
X149122062Y-50199983D01*
X149100292Y-50178213D01*
X149100288Y-50178210D01*
X148969185Y-50090609D01*
X148969172Y-50090602D01*
X148823501Y-50030264D01*
X148823489Y-50030261D01*
X148668845Y-49999500D01*
X148668842Y-49999500D01*
X148511158Y-49999500D01*
X148511155Y-49999500D01*
X148356510Y-50030261D01*
X148356498Y-50030264D01*
X148210827Y-50090602D01*
X148210814Y-50090609D01*
X148079125Y-50178602D01*
X148012447Y-50199480D01*
X148010234Y-50199500D01*
X144089766Y-50199500D01*
X144022727Y-50179815D01*
X144020875Y-50178602D01*
X143889185Y-50090609D01*
X143889172Y-50090602D01*
X143743501Y-50030264D01*
X143743489Y-50030261D01*
X143588845Y-49999500D01*
X143588842Y-49999500D01*
X143431158Y-49999500D01*
X143431155Y-49999500D01*
X143276510Y-50030261D01*
X143276498Y-50030264D01*
X143130827Y-50090602D01*
X143130814Y-50090609D01*
X142999711Y-50178210D01*
X142999707Y-50178213D01*
X142888213Y-50289707D01*
X142888210Y-50289711D01*
X142800609Y-50420814D01*
X142800602Y-50420827D01*
X142740264Y-50566498D01*
X142740261Y-50566510D01*
X142709500Y-50721153D01*
X141000500Y-50721153D01*
X141000500Y-50697648D01*
X140968477Y-50495465D01*
X140905218Y-50300776D01*
X140853865Y-50199991D01*
X140812287Y-50118390D01*
X140774205Y-50065974D01*
X140691971Y-49952786D01*
X140547213Y-49808028D01*
X140381613Y-49687715D01*
X140381612Y-49687714D01*
X140381610Y-49687713D01*
X140308607Y-49650516D01*
X140199223Y-49594781D01*
X140004534Y-49531522D01*
X139829995Y-49503878D01*
X139802352Y-49499500D01*
X139597648Y-49499500D01*
X139573329Y-49503351D01*
X139395465Y-49531522D01*
X139200776Y-49594781D01*
X139018386Y-49687715D01*
X138852786Y-49808028D01*
X138708028Y-49952786D01*
X138587715Y-50118386D01*
X138494781Y-50300776D01*
X138431522Y-50495465D01*
X138399500Y-50697648D01*
X114430500Y-50697648D01*
X114430500Y-50689778D01*
X114396015Y-50472049D01*
X114336771Y-50289711D01*
X114327896Y-50262396D01*
X114327895Y-50262393D01*
X114285001Y-50178210D01*
X114227815Y-50065978D01*
X114145573Y-49952781D01*
X114098247Y-49887641D01*
X114098243Y-49887636D01*
X114048071Y-49837464D01*
X114014586Y-49776141D01*
X114019570Y-49706449D01*
X114061442Y-49650516D01*
X114092420Y-49633601D01*
X114172326Y-49603798D01*
X114172326Y-49603797D01*
X114172331Y-49603796D01*
X114287546Y-49517546D01*
X114373796Y-49402331D01*
X114424091Y-49267483D01*
X114430500Y-49207873D01*
X114430499Y-48157648D01*
X124429500Y-48157648D01*
X124429500Y-48362351D01*
X124461522Y-48564534D01*
X124524781Y-48759223D01*
X124617715Y-48941613D01*
X124738028Y-49107213D01*
X124882786Y-49251971D01*
X125037749Y-49364556D01*
X125048390Y-49372287D01*
X125164607Y-49431503D01*
X125230776Y-49465218D01*
X125230778Y-49465218D01*
X125230781Y-49465220D01*
X125335137Y-49499127D01*
X125425465Y-49528477D01*
X125444697Y-49531523D01*
X125627648Y-49560500D01*
X125627649Y-49560500D01*
X125832351Y-49560500D01*
X125832352Y-49560500D01*
X126034534Y-49528477D01*
X126229219Y-49465220D01*
X126411610Y-49372287D01*
X126555862Y-49267483D01*
X126577213Y-49251971D01*
X126577215Y-49251968D01*
X126577219Y-49251966D01*
X126721966Y-49107219D01*
X126721968Y-49107215D01*
X126721971Y-49107213D01*
X126774732Y-49034590D01*
X126842287Y-48941610D01*
X126935220Y-48759219D01*
X126998477Y-48564534D01*
X127030500Y-48362352D01*
X127030500Y-48157648D01*
X134589500Y-48157648D01*
X134589500Y-48362351D01*
X134621522Y-48564534D01*
X134684781Y-48759223D01*
X134777715Y-48941613D01*
X134898028Y-49107213D01*
X135042786Y-49251971D01*
X135197749Y-49364556D01*
X135208390Y-49372287D01*
X135324607Y-49431503D01*
X135390776Y-49465218D01*
X135390778Y-49465218D01*
X135390781Y-49465220D01*
X135495137Y-49499127D01*
X135585465Y-49528477D01*
X135604697Y-49531523D01*
X135787648Y-49560500D01*
X135787649Y-49560500D01*
X135992351Y-49560500D01*
X135992352Y-49560500D01*
X136194534Y-49528477D01*
X136389219Y-49465220D01*
X136571610Y-49372287D01*
X136715862Y-49267483D01*
X136737213Y-49251971D01*
X136737215Y-49251968D01*
X136737219Y-49251966D01*
X136881966Y-49107219D01*
X136881968Y-49107215D01*
X136881971Y-49107213D01*
X136934732Y-49034590D01*
X137002287Y-48941610D01*
X137095220Y-48759219D01*
X137158477Y-48564534D01*
X137190500Y-48362352D01*
X137190500Y-48157648D01*
X166339500Y-48157648D01*
X166339500Y-48362351D01*
X166371522Y-48564534D01*
X166434781Y-48759223D01*
X166527715Y-48941613D01*
X166648028Y-49107213D01*
X166792786Y-49251971D01*
X166947749Y-49364556D01*
X166958390Y-49372287D01*
X167074607Y-49431503D01*
X167140776Y-49465218D01*
X167140778Y-49465218D01*
X167140781Y-49465220D01*
X167245137Y-49499127D01*
X167335465Y-49528477D01*
X167354697Y-49531523D01*
X167537648Y-49560500D01*
X167537649Y-49560500D01*
X167742351Y-49560500D01*
X167742352Y-49560500D01*
X167944534Y-49528477D01*
X168139219Y-49465220D01*
X168321610Y-49372287D01*
X168465862Y-49267483D01*
X168487213Y-49251971D01*
X168487215Y-49251968D01*
X168487219Y-49251966D01*
X168631966Y-49107219D01*
X168631968Y-49107215D01*
X168631971Y-49107213D01*
X168684732Y-49034590D01*
X168752287Y-48941610D01*
X168845220Y-48759219D01*
X168908477Y-48564534D01*
X168940500Y-48362352D01*
X168940500Y-48157648D01*
X176499500Y-48157648D01*
X176499500Y-48362351D01*
X176531522Y-48564534D01*
X176594781Y-48759223D01*
X176687715Y-48941613D01*
X176808028Y-49107213D01*
X176952786Y-49251971D01*
X177107749Y-49364556D01*
X177118390Y-49372287D01*
X177234607Y-49431503D01*
X177300776Y-49465218D01*
X177300778Y-49465218D01*
X177300781Y-49465220D01*
X177405137Y-49499127D01*
X177495465Y-49528477D01*
X177514697Y-49531523D01*
X177697648Y-49560500D01*
X177697649Y-49560500D01*
X177902351Y-49560500D01*
X177902352Y-49560500D01*
X178104534Y-49528477D01*
X178299219Y-49465220D01*
X178481610Y-49372287D01*
X178625862Y-49267483D01*
X178647213Y-49251971D01*
X178647215Y-49251968D01*
X178647219Y-49251966D01*
X178791966Y-49107219D01*
X178791968Y-49107215D01*
X178791971Y-49107213D01*
X178844732Y-49034590D01*
X178912287Y-48941610D01*
X179005220Y-48759219D01*
X179068477Y-48564534D01*
X179100500Y-48362352D01*
X179100500Y-48157648D01*
X179068477Y-47955466D01*
X179005220Y-47760781D01*
X179005218Y-47760778D01*
X179005218Y-47760776D01*
X178971503Y-47694607D01*
X178912287Y-47578390D01*
X178904556Y-47567749D01*
X178791971Y-47412786D01*
X178691320Y-47312135D01*
X182749500Y-47312135D01*
X182749500Y-49207870D01*
X182749501Y-49207876D01*
X182755908Y-49267483D01*
X182806202Y-49402328D01*
X182806206Y-49402335D01*
X182892452Y-49517544D01*
X182892455Y-49517547D01*
X183007664Y-49603793D01*
X183007671Y-49603797D01*
X183087580Y-49633601D01*
X183143514Y-49675472D01*
X183167931Y-49740936D01*
X183153080Y-49809209D01*
X183131929Y-49837463D01*
X183081756Y-49887636D01*
X183081752Y-49887641D01*
X182952187Y-50065974D01*
X182852104Y-50262393D01*
X182852103Y-50262396D01*
X182783985Y-50472047D01*
X182749500Y-50689778D01*
X182749500Y-50910221D01*
X182783985Y-51127952D01*
X182852103Y-51337603D01*
X182852104Y-51337606D01*
X182920122Y-51471096D01*
X182939636Y-51509394D01*
X182952187Y-51534025D01*
X183081752Y-51712358D01*
X183081756Y-51712363D01*
X183131928Y-51762535D01*
X183165413Y-51823858D01*
X183160429Y-51893550D01*
X183118557Y-51949483D01*
X183087581Y-51966398D01*
X183007669Y-51996203D01*
X183007664Y-51996206D01*
X182892455Y-52082452D01*
X182892452Y-52082455D01*
X182806206Y-52197664D01*
X182806202Y-52197671D01*
X182755908Y-52332517D01*
X182749501Y-52392116D01*
X182749501Y-52392123D01*
X182749500Y-52392135D01*
X182749500Y-54287870D01*
X182749501Y-54287876D01*
X182755908Y-54347483D01*
X182806202Y-54482328D01*
X182806206Y-54482335D01*
X182892452Y-54597544D01*
X182892455Y-54597547D01*
X183007664Y-54683793D01*
X183007671Y-54683797D01*
X183087580Y-54713601D01*
X183143514Y-54755472D01*
X183167931Y-54820936D01*
X183153080Y-54889209D01*
X183131929Y-54917463D01*
X183081756Y-54967636D01*
X183081752Y-54967641D01*
X182952187Y-55145974D01*
X182852104Y-55342393D01*
X182852103Y-55342396D01*
X182783985Y-55552047D01*
X182783985Y-55552049D01*
X182749500Y-55769778D01*
X182749500Y-55990222D01*
X182756510Y-56034480D01*
X182783985Y-56207952D01*
X182852103Y-56417603D01*
X182852104Y-56417606D01*
X182908463Y-56528213D01*
X182925479Y-56561610D01*
X182952187Y-56614025D01*
X183081752Y-56792358D01*
X183081756Y-56792363D01*
X183237636Y-56948243D01*
X183237641Y-56948247D01*
X183363930Y-57040000D01*
X183415978Y-57077815D01*
X183544375Y-57143237D01*
X183612393Y-57177895D01*
X183612396Y-57177896D01*
X183717221Y-57211955D01*
X183822049Y-57246015D01*
X184039778Y-57280500D01*
X184039779Y-57280500D01*
X184260221Y-57280500D01*
X184260222Y-57280500D01*
X184477951Y-57246015D01*
X184687606Y-57177895D01*
X184884022Y-57077815D01*
X185062365Y-56948242D01*
X185218242Y-56792365D01*
X185347815Y-56614022D01*
X185447895Y-56417606D01*
X185516015Y-56207951D01*
X185550500Y-55990222D01*
X185550500Y-55769778D01*
X185516015Y-55552049D01*
X185447895Y-55342394D01*
X185447895Y-55342393D01*
X185404255Y-55256747D01*
X185347815Y-55145978D01*
X185240805Y-54998690D01*
X185218247Y-54967641D01*
X185218243Y-54967636D01*
X185168071Y-54917464D01*
X185134586Y-54856141D01*
X185139570Y-54786449D01*
X185181442Y-54730516D01*
X185212420Y-54713601D01*
X185292326Y-54683798D01*
X185292326Y-54683797D01*
X185292331Y-54683796D01*
X185407546Y-54597546D01*
X185493796Y-54482331D01*
X185544091Y-54347483D01*
X185550500Y-54287873D01*
X185550499Y-52392128D01*
X185544091Y-52332517D01*
X185524495Y-52279978D01*
X185493797Y-52197671D01*
X185493793Y-52197664D01*
X185407547Y-52082455D01*
X185407544Y-52082452D01*
X185292335Y-51996206D01*
X185292328Y-51996202D01*
X185212419Y-51966398D01*
X185156485Y-51924527D01*
X185132068Y-51859062D01*
X185146920Y-51790789D01*
X185168069Y-51762537D01*
X185218242Y-51712365D01*
X185347815Y-51534022D01*
X185447895Y-51337606D01*
X185516015Y-51127951D01*
X185550500Y-50910222D01*
X185550500Y-50689778D01*
X185516015Y-50472049D01*
X185456771Y-50289711D01*
X185447896Y-50262396D01*
X185447895Y-50262393D01*
X185405001Y-50178210D01*
X185347815Y-50065978D01*
X185265573Y-49952781D01*
X185218247Y-49887641D01*
X185218243Y-49887636D01*
X185168071Y-49837464D01*
X185134586Y-49776141D01*
X185139570Y-49706449D01*
X185181442Y-49650516D01*
X185212420Y-49633601D01*
X185292326Y-49603798D01*
X185292326Y-49603797D01*
X185292331Y-49603796D01*
X185407546Y-49517546D01*
X185493796Y-49402331D01*
X185544091Y-49267483D01*
X185550500Y-49207873D01*
X185550499Y-47312128D01*
X185544091Y-47252517D01*
X185505002Y-47147715D01*
X185493797Y-47117671D01*
X185493793Y-47117664D01*
X185407547Y-47002455D01*
X185407544Y-47002452D01*
X185292335Y-46916206D01*
X185292328Y-46916202D01*
X185157482Y-46865908D01*
X185157483Y-46865908D01*
X185097883Y-46859501D01*
X185097881Y-46859500D01*
X185097873Y-46859500D01*
X185097864Y-46859500D01*
X183202129Y-46859500D01*
X183202123Y-46859501D01*
X183142516Y-46865908D01*
X183007671Y-46916202D01*
X183007664Y-46916206D01*
X182892455Y-47002452D01*
X182892452Y-47002455D01*
X182806206Y-47117664D01*
X182806202Y-47117671D01*
X182755908Y-47252517D01*
X182749501Y-47312116D01*
X182749501Y-47312123D01*
X182749500Y-47312135D01*
X178691320Y-47312135D01*
X178647213Y-47268028D01*
X178481613Y-47147715D01*
X178481612Y-47147714D01*
X178481610Y-47147713D01*
X178422636Y-47117664D01*
X178299223Y-47054781D01*
X178104534Y-46991522D01*
X177929995Y-46963878D01*
X177902352Y-46959500D01*
X177697648Y-46959500D01*
X177673329Y-46963351D01*
X177495465Y-46991522D01*
X177300776Y-47054781D01*
X177118386Y-47147715D01*
X176952786Y-47268028D01*
X176808028Y-47412786D01*
X176687715Y-47578386D01*
X176594781Y-47760776D01*
X176531522Y-47955465D01*
X176499500Y-48157648D01*
X168940500Y-48157648D01*
X168908477Y-47955466D01*
X168845220Y-47760781D01*
X168845218Y-47760778D01*
X168845218Y-47760776D01*
X168811503Y-47694607D01*
X168752287Y-47578390D01*
X168744556Y-47567749D01*
X168631971Y-47412786D01*
X168487213Y-47268028D01*
X168321613Y-47147715D01*
X168321612Y-47147714D01*
X168321610Y-47147713D01*
X168262636Y-47117664D01*
X168139223Y-47054781D01*
X167944534Y-46991522D01*
X167769995Y-46963878D01*
X167742352Y-46959500D01*
X167537648Y-46959500D01*
X167513329Y-46963351D01*
X167335465Y-46991522D01*
X167140776Y-47054781D01*
X166958386Y-47147715D01*
X166792786Y-47268028D01*
X166648028Y-47412786D01*
X166527715Y-47578386D01*
X166434781Y-47760776D01*
X166371522Y-47955465D01*
X166339500Y-48157648D01*
X137190500Y-48157648D01*
X137158477Y-47955466D01*
X137095220Y-47760781D01*
X137095218Y-47760778D01*
X137095218Y-47760776D01*
X137061503Y-47694607D01*
X137002287Y-47578390D01*
X136994556Y-47567749D01*
X136881971Y-47412786D01*
X136737213Y-47268028D01*
X136571613Y-47147715D01*
X136571612Y-47147714D01*
X136571610Y-47147713D01*
X136512636Y-47117664D01*
X136389223Y-47054781D01*
X136194534Y-46991522D01*
X136019995Y-46963878D01*
X135992352Y-46959500D01*
X135787648Y-46959500D01*
X135763329Y-46963351D01*
X135585465Y-46991522D01*
X135390776Y-47054781D01*
X135208386Y-47147715D01*
X135042786Y-47268028D01*
X134898028Y-47412786D01*
X134777715Y-47578386D01*
X134684781Y-47760776D01*
X134621522Y-47955465D01*
X134589500Y-48157648D01*
X127030500Y-48157648D01*
X126998477Y-47955466D01*
X126935220Y-47760781D01*
X126935218Y-47760778D01*
X126935218Y-47760776D01*
X126901503Y-47694607D01*
X126842287Y-47578390D01*
X126834556Y-47567749D01*
X126721971Y-47412786D01*
X126577213Y-47268028D01*
X126411613Y-47147715D01*
X126411612Y-47147714D01*
X126411610Y-47147713D01*
X126352636Y-47117664D01*
X126229223Y-47054781D01*
X126034534Y-46991522D01*
X125859995Y-46963878D01*
X125832352Y-46959500D01*
X125627648Y-46959500D01*
X125603329Y-46963351D01*
X125425465Y-46991522D01*
X125230776Y-47054781D01*
X125048386Y-47147715D01*
X124882786Y-47268028D01*
X124738028Y-47412786D01*
X124617715Y-47578386D01*
X124524781Y-47760776D01*
X124461522Y-47955465D01*
X124429500Y-48157648D01*
X114430499Y-48157648D01*
X114430499Y-47312128D01*
X114424091Y-47252517D01*
X114385002Y-47147715D01*
X114373797Y-47117671D01*
X114373793Y-47117664D01*
X114287547Y-47002455D01*
X114287544Y-47002452D01*
X114172335Y-46916206D01*
X114172328Y-46916202D01*
X114037482Y-46865908D01*
X114037483Y-46865908D01*
X113977883Y-46859501D01*
X113977881Y-46859500D01*
X113977873Y-46859500D01*
X113977864Y-46859500D01*
X112082129Y-46859500D01*
X112082123Y-46859501D01*
X112022516Y-46865908D01*
X111887671Y-46916202D01*
X111887664Y-46916206D01*
X111772455Y-47002452D01*
X111772452Y-47002455D01*
X111686206Y-47117664D01*
X111686202Y-47117671D01*
X111635908Y-47252517D01*
X111629501Y-47312116D01*
X111629501Y-47312123D01*
X111629500Y-47312135D01*
X109220000Y-47312135D01*
X109220000Y-45617648D01*
X152369500Y-45617648D01*
X152369500Y-45822351D01*
X152401522Y-46024534D01*
X152464781Y-46219223D01*
X152557715Y-46401613D01*
X152678028Y-46567213D01*
X152822786Y-46711971D01*
X152977749Y-46824556D01*
X152988390Y-46832287D01*
X153104607Y-46891503D01*
X153170776Y-46925218D01*
X153170778Y-46925218D01*
X153170781Y-46925220D01*
X153275137Y-46959127D01*
X153365465Y-46988477D01*
X153384697Y-46991523D01*
X153567648Y-47020500D01*
X153567649Y-47020500D01*
X153772351Y-47020500D01*
X153772352Y-47020500D01*
X153974534Y-46988477D01*
X154169219Y-46925220D01*
X154351610Y-46832287D01*
X154444590Y-46764732D01*
X154517213Y-46711971D01*
X154517215Y-46711968D01*
X154517219Y-46711966D01*
X154661966Y-46567219D01*
X154661968Y-46567215D01*
X154661971Y-46567213D01*
X154714732Y-46494590D01*
X154782287Y-46401610D01*
X154875220Y-46219219D01*
X154938477Y-46024534D01*
X154970500Y-45822352D01*
X154970500Y-45617648D01*
X162529500Y-45617648D01*
X162529500Y-45822351D01*
X162561522Y-46024534D01*
X162624781Y-46219223D01*
X162717715Y-46401613D01*
X162838028Y-46567213D01*
X162982786Y-46711971D01*
X163137749Y-46824556D01*
X163148390Y-46832287D01*
X163264607Y-46891503D01*
X163330776Y-46925218D01*
X163330778Y-46925218D01*
X163330781Y-46925220D01*
X163435137Y-46959127D01*
X163525465Y-46988477D01*
X163544697Y-46991523D01*
X163727648Y-47020500D01*
X163727649Y-47020500D01*
X163932351Y-47020500D01*
X163932352Y-47020500D01*
X164134534Y-46988477D01*
X164329219Y-46925220D01*
X164511610Y-46832287D01*
X164604590Y-46764732D01*
X164677213Y-46711971D01*
X164677215Y-46711968D01*
X164677219Y-46711966D01*
X164821966Y-46567219D01*
X164821968Y-46567215D01*
X164821971Y-46567213D01*
X164874732Y-46494590D01*
X164942287Y-46401610D01*
X165035220Y-46219219D01*
X165098477Y-46024534D01*
X165130500Y-45822352D01*
X165130500Y-45617648D01*
X165098477Y-45415466D01*
X165035220Y-45220781D01*
X165035218Y-45220778D01*
X165035218Y-45220776D01*
X165001503Y-45154607D01*
X164942287Y-45038390D01*
X164934556Y-45027749D01*
X164821971Y-44872786D01*
X164677213Y-44728028D01*
X164511613Y-44607715D01*
X164511612Y-44607714D01*
X164511610Y-44607713D01*
X164454653Y-44578691D01*
X164329223Y-44514781D01*
X164134534Y-44451522D01*
X163959995Y-44423878D01*
X163932352Y-44419500D01*
X163727648Y-44419500D01*
X163703329Y-44423351D01*
X163525465Y-44451522D01*
X163330776Y-44514781D01*
X163148386Y-44607715D01*
X162982786Y-44728028D01*
X162838028Y-44872786D01*
X162717715Y-45038386D01*
X162624781Y-45220776D01*
X162561522Y-45415465D01*
X162529500Y-45617648D01*
X154970500Y-45617648D01*
X154938477Y-45415466D01*
X154875220Y-45220781D01*
X154875218Y-45220778D01*
X154875218Y-45220776D01*
X154841503Y-45154607D01*
X154782287Y-45038390D01*
X154774556Y-45027749D01*
X154661971Y-44872786D01*
X154517213Y-44728028D01*
X154351613Y-44607715D01*
X154351612Y-44607714D01*
X154351610Y-44607713D01*
X154294653Y-44578691D01*
X154169223Y-44514781D01*
X153974534Y-44451522D01*
X153799995Y-44423878D01*
X153772352Y-44419500D01*
X153567648Y-44419500D01*
X153543329Y-44423351D01*
X153365465Y-44451522D01*
X153170776Y-44514781D01*
X152988386Y-44607715D01*
X152822786Y-44728028D01*
X152678028Y-44872786D01*
X152557715Y-45038386D01*
X152464781Y-45220776D01*
X152401522Y-45415465D01*
X152369500Y-45617648D01*
X109220000Y-45617648D01*
X109220000Y-43304000D01*
X109239685Y-43236961D01*
X109292489Y-43191206D01*
X109344000Y-43180000D01*
X187836000Y-43180000D01*
X187903039Y-43199685D01*
G37*
%TD.AperFunction*%
%TD*%
M02*
