%TF.GenerationSoftware,KiCad,Pcbnew,9.0.6*%
%TF.CreationDate,2026-01-30T21:11:36+09:00*%
%TF.ProjectId,v2_MotorDriver,76325f4d-6f74-46f7-9244-72697665722e,rev?*%
%TF.SameCoordinates,Original*%
%TF.FileFunction,Paste,Top*%
%TF.FilePolarity,Positive*%
%FSLAX46Y46*%
G04 Gerber Fmt 4.6, Leading zero omitted, Abs format (unit mm)*
G04 Created by KiCad (PCBNEW 9.0.6) date 2026-01-30 21:11:36*
%MOMM*%
%LPD*%
G01*
G04 APERTURE LIST*
G04 Aperture macros list*
%AMRoundRect*
0 Rectangle with rounded corners*
0 $1 Rounding radius*
0 $2 $3 $4 $5 $6 $7 $8 $9 X,Y pos of 4 corners*
0 Add a 4 corners polygon primitive as box body*
4,1,4,$2,$3,$4,$5,$6,$7,$8,$9,$2,$3,0*
0 Add four circle primitives for the rounded corners*
1,1,$1+$1,$2,$3*
1,1,$1+$1,$4,$5*
1,1,$1+$1,$6,$7*
1,1,$1+$1,$8,$9*
0 Add four rect primitives between the rounded corners*
20,1,$1+$1,$2,$3,$4,$5,0*
20,1,$1+$1,$4,$5,$6,$7,0*
20,1,$1+$1,$6,$7,$8,$9,0*
20,1,$1+$1,$8,$9,$2,$3,0*%
G04 Aperture macros list end*
%ADD10RoundRect,0.237500X0.300000X0.237500X-0.300000X0.237500X-0.300000X-0.237500X0.300000X-0.237500X0*%
%ADD11RoundRect,0.237500X-0.300000X-0.237500X0.300000X-0.237500X0.300000X0.237500X-0.300000X0.237500X0*%
%ADD12RoundRect,0.125000X-0.125000X0.125000X-0.125000X-0.125000X0.125000X-0.125000X0.125000X0.125000X0*%
%ADD13RoundRect,0.237500X-0.237500X0.287500X-0.237500X-0.287500X0.237500X-0.287500X0.237500X0.287500X0*%
%ADD14RoundRect,0.240000X-0.385000X0.240000X-0.385000X-0.240000X0.385000X-0.240000X0.385000X0.240000X0*%
%ADD15RoundRect,0.150000X-0.150000X0.825000X-0.150000X-0.825000X0.150000X-0.825000X0.150000X0.825000X0*%
%ADD16RoundRect,0.240000X0.385000X-0.240000X0.385000X0.240000X-0.385000X0.240000X-0.385000X-0.240000X0*%
%ADD17RoundRect,0.150000X0.150000X-0.825000X0.150000X0.825000X-0.150000X0.825000X-0.150000X-0.825000X0*%
G04 APERTURE END LIST*
D10*
%TO.C,C9*%
X130708400Y-110286800D03*
X128983400Y-110286800D03*
%TD*%
D11*
%TO.C,C6*%
X161343000Y-97891600D03*
X163068000Y-97891600D03*
%TD*%
D12*
%TO.C,D1*%
X130302000Y-111879200D03*
X130302000Y-114079200D03*
%TD*%
D13*
%TO.C,D2*%
X175920400Y-115902800D03*
X175920400Y-117652800D03*
%TD*%
D14*
%TO.C,TB67H3*%
X161950400Y-118290800D03*
X160450400Y-118290800D03*
X161950400Y-119430800D03*
X160450400Y-119430800D03*
D15*
X163105400Y-116385800D03*
X161835400Y-116385800D03*
X160565400Y-116385800D03*
X159295400Y-116385800D03*
X159295400Y-121335800D03*
X160565400Y-121335800D03*
X161835400Y-121335800D03*
X163105400Y-121335800D03*
%TD*%
D16*
%TO.C,TB67H2*%
X159955800Y-93330800D03*
X161455800Y-93330800D03*
X159955800Y-92190800D03*
X161455800Y-92190800D03*
D17*
X158800800Y-95235800D03*
X160070800Y-95235800D03*
X161340800Y-95235800D03*
X162610800Y-95235800D03*
X162610800Y-90285800D03*
X161340800Y-90285800D03*
X160070800Y-90285800D03*
X158800800Y-90285800D03*
%TD*%
D16*
%TO.C,TB67H1*%
X152970800Y-93395800D03*
X154470800Y-93395800D03*
X152970800Y-92255800D03*
X154470800Y-92255800D03*
D17*
X151815800Y-95300800D03*
X153085800Y-95300800D03*
X154355800Y-95300800D03*
X155625800Y-95300800D03*
X155625800Y-90350800D03*
X154355800Y-90350800D03*
X153085800Y-90350800D03*
X151815800Y-90350800D03*
%TD*%
D10*
%TO.C,C8*%
X153058200Y-113487200D03*
X151333200Y-113487200D03*
%TD*%
D11*
%TO.C,C5*%
X154434200Y-97891600D03*
X156159200Y-97891600D03*
%TD*%
D10*
%TO.C,C7*%
X160525800Y-113487200D03*
X158800800Y-113487200D03*
%TD*%
D14*
%TO.C,TB67H4*%
X154533600Y-118290800D03*
X153033600Y-118290800D03*
X154533600Y-119430800D03*
X153033600Y-119430800D03*
D15*
X155688600Y-116385800D03*
X154418600Y-116385800D03*
X153148600Y-116385800D03*
X151878600Y-116385800D03*
X151878600Y-121335800D03*
X153148600Y-121335800D03*
X154418600Y-121335800D03*
X155688600Y-121335800D03*
%TD*%
M02*
