M48
; DRILL file {KiCad 9.0.6} date 2026-01-30T21:11:38+0900
; FORMAT={-:-/ absolute / metric / decimal}
; #@! TF.CreationDate,2026-01-30T21:11:38+09:00
; #@! TF.GenerationSoftware,Kicad,Pcbnew,9.0.6
; #@! TF.FileFunction,Plated,1,2,PTH
FMAT,2
METRIC
; #@! TA.AperFunction,Plated,PTH,ComponentDrill
T1C0.200
; #@! TA.AperFunction,Plated,PTH,ViaDrill
T2C0.300
; #@! TA.AperFunction,Plated,PTH,ComponentDrill
T3C0.750
; #@! TA.AperFunction,Plated,PTH,ComponentDrill
T4C0.800
; #@! TA.AperFunction,Plated,PTH,ComponentDrill
T5C0.900
; #@! TA.AperFunction,Plated,PTH,ComponentDrill
T6C0.950
; #@! TA.AperFunction,Plated,PTH,ComponentDrill
T7C1.700
; #@! TA.AperFunction,Plated,PTH,ComponentDrill
T8C2.700
%
G90
G05
T1
X152.721Y-92.176
X152.721Y-93.476
X152.784Y-118.211
X152.784Y-119.511
X153.721Y-92.176
X153.721Y-93.476
X153.784Y-118.211
X153.784Y-119.511
X154.721Y-92.176
X154.721Y-93.476
X154.784Y-118.211
X154.784Y-119.511
X159.706Y-92.111
X159.706Y-93.411
X160.2Y-118.211
X160.2Y-119.511
X160.706Y-92.111
X160.706Y-93.411
X161.2Y-118.211
X161.2Y-119.511
X161.706Y-92.111
X161.706Y-93.411
X162.2Y-118.211
X162.2Y-119.511
T2
X126.543Y-101.448
X126.644Y-92.304
X127.762Y-112.116
X127.914Y-87.071
X128.219Y-114.706
X129.438Y-99.72
X129.591Y-92.964
X129.591Y-106.426
X130.962Y-112.979
X131.318Y-125.324
X131.521Y-108.864
X132.131Y-91.084
X132.385Y-86.512
X132.436Y-119.228
X133.147Y-113.487
X133.655Y-110.642
X134.061Y-80.315
X134.315Y-87.833
X134.551Y-91.084
X135.28Y-110.846
X135.585Y-115.926
X135.738Y-123.139
X135.89Y-118.313
X135.941Y-83.363
X136.875Y-85.293
X137.058Y-89.611
X137.922Y-111.455
X139.802Y-86.004
X139.852Y-80.467
X140.106Y-129.083
X141.427Y-112.827
X141.783Y-115.316
X141.834Y-83.261
X143.307Y-89.052
X143.307Y-90.576
X143.307Y-121.26
X143.967Y-86.055
X144.882Y-112.928
X145.186Y-124.765
X145.694Y-85.09
X145.694Y-118.161
X146.863Y-121.717
X147.32Y-91.084
X147.879Y-129.946
X148.133Y-124.765
X148.488Y-114.249
X148.488Y-121.514
X149.2Y-80.518
X150.074Y-107.107
X150.774Y-90.272
X150.774Y-92.761
X150.886Y-98.196
X151.536Y-123.139
X151.892Y-114.91
X153.06Y-88.951
X153.06Y-96.723
X153.162Y-114.859
X153.721Y-131.521
X154.381Y-96.723
X154.381Y-114.859
X154.737Y-122.885
X155.61Y-96.723
X156.515Y-88.443
X156.566Y-82.093
X157.175Y-88.392
X159.309Y-114.859
X160.323Y-96.733
X160.528Y-88.972
X160.579Y-114.859
X160.63Y-130.81
X161.392Y-96.733
X161.849Y-114.859
X162.255Y-122.733
X162.555Y-96.696
X164.236Y-120.599
X164.338Y-113.081
X164.541Y-80.264
X164.694Y-88.087
X165.354Y-108.306
X166.319Y-97.638
X166.37Y-93.37
X166.573Y-87.884
X167.488Y-131.013
X167.691Y-100.381
X167.792Y-115.57
X168.097Y-91.643
X168.554Y-100.381
X169.774Y-111.455
X170.282Y-124.358
X170.79Y-90.627
X171.044Y-100.381
X171.501Y-118.059
X171.602Y-109.982
X171.755Y-106.883
X171.806Y-94.488
X174.701Y-116.789
X176.073Y-119.075
X176.581Y-100.482
X176.835Y-106.578
X176.835Y-110.642
T3
X136.875Y-81.89
X136.875Y-87.427
X138.875Y-81.89
X138.875Y-87.427
X140.716Y-111.201
X140.716Y-116.738
X140.875Y-81.89
X140.875Y-87.427
X142.716Y-111.201
X142.716Y-116.738
X142.875Y-81.89
X142.875Y-87.427
X144.716Y-111.201
X144.716Y-116.738
X146.716Y-111.201
X146.716Y-116.738
T4
X153.721Y-100.889
X153.721Y-103.389
X153.721Y-108.102
X153.721Y-110.602
X161.392Y-108.102
X161.392Y-110.602
X161.442Y-100.838
X161.442Y-103.338
X166.573Y-91.694
X166.573Y-99.314
X166.573Y-113.233
X166.573Y-120.853
X169.672Y-91.694
X169.672Y-99.314
X169.672Y-113.233
X169.672Y-120.853
X172.872Y-112.928
X172.872Y-120.548
T5
X128.27Y-92.075
X128.27Y-107.315
X130.81Y-92.075
X130.81Y-107.315
X133.35Y-92.075
X133.35Y-107.315
X135.89Y-92.075
X135.89Y-107.315
X138.43Y-92.075
X138.43Y-107.315
X140.97Y-92.075
X140.97Y-107.315
X143.51Y-92.075
X143.51Y-107.315
X146.05Y-92.075
X146.05Y-107.315
X148.59Y-92.075
X148.59Y-94.615
X148.59Y-97.155
X148.59Y-99.695
X148.59Y-102.235
X148.59Y-104.775
X148.59Y-107.315
T6
X134.366Y-112.217
X134.366Y-114.717
X134.366Y-117.217
X134.366Y-119.717
X146.66Y-123.321
X146.66Y-125.821
X146.66Y-128.321
T7
X150.222Y-84.37
X154.182Y-84.37
X154.198Y-127.618
X158.159Y-127.618
X159.138Y-84.37
X163.088Y-127.618
X163.098Y-84.37
X167.048Y-127.618
T8
X168.123Y-103.748
X168.123Y-108.748
X174.396Y-103.734
X174.396Y-108.734
M30
