%TF.GenerationSoftware,KiCad,Pcbnew,9.0.6*%
%TF.CreationDate,2026-01-30T21:11:36+09:00*%
%TF.ProjectId,v2_MotorDriver,76325f4d-6f74-46f7-9244-72697665722e,rev?*%
%TF.SameCoordinates,Original*%
%TF.FileFunction,Soldermask,Bot*%
%TF.FilePolarity,Negative*%
%FSLAX46Y46*%
G04 Gerber Fmt 4.6, Leading zero omitted, Abs format (unit mm)*
G04 Created by KiCad (PCBNEW 9.0.6) date 2026-01-30 21:11:36*
%MOMM*%
%LPD*%
G01*
G04 APERTURE LIST*
G04 Aperture macros list*
%AMRoundRect*
0 Rectangle with rounded corners*
0 $1 Rounding radius*
0 $2 $3 $4 $5 $6 $7 $8 $9 X,Y pos of 4 corners*
0 Add a 4 corners polygon primitive as box body*
4,1,4,$2,$3,$4,$5,$6,$7,$8,$9,$2,$3,0*
0 Add four circle primitives for the rounded corners*
1,1,$1+$1,$2,$3*
1,1,$1+$1,$4,$5*
1,1,$1+$1,$6,$7*
1,1,$1+$1,$8,$9*
0 Add four rect primitives between the rounded corners*
20,1,$1+$1,$2,$3,$4,$5,0*
20,1,$1+$1,$4,$5,$6,$7,0*
20,1,$1+$1,$6,$7,$8,$9,0*
20,1,$1+$1,$8,$9,$2,$3,0*%
G04 Aperture macros list end*
%ADD10RoundRect,0.250000X-0.350000X-0.625000X0.350000X-0.625000X0.350000X0.625000X-0.350000X0.625000X0*%
%ADD11O,1.200000X1.750000*%
%ADD12RoundRect,0.250000X-0.550000X0.550000X-0.550000X-0.550000X0.550000X-0.550000X0.550000X0.550000X0*%
%ADD13C,1.600000*%
%ADD14RoundRect,0.760000X1.140000X-1.140000X1.140000X1.140000X-1.140000X1.140000X-1.140000X-1.140000X0*%
%ADD15C,3.800000*%
%ADD16RoundRect,0.250001X1.099999X1.099999X-1.099999X1.099999X-1.099999X-1.099999X1.099999X-1.099999X0*%
%ADD17C,2.700000*%
%ADD18RoundRect,0.250000X0.725000X-0.600000X0.725000X0.600000X-0.725000X0.600000X-0.725000X-0.600000X0*%
%ADD19O,1.950000X1.700000*%
%ADD20RoundRect,0.250001X-1.099999X-1.099999X1.099999X-1.099999X1.099999X1.099999X-1.099999X1.099999X0*%
%ADD21C,1.500000*%
%ADD22RoundRect,0.250000X0.550000X-0.550000X0.550000X0.550000X-0.550000X0.550000X-0.550000X-0.550000X0*%
%ADD23C,3.200000*%
%ADD24RoundRect,0.250000X-0.725000X0.600000X-0.725000X-0.600000X0.725000X-0.600000X0.725000X0.600000X0*%
%ADD25C,4.000000*%
G04 APERTURE END LIST*
D10*
%TO.C,E3*%
X140716000Y-116738400D03*
D11*
X142716000Y-116738400D03*
X144716000Y-116738400D03*
X146716000Y-116738400D03*
%TD*%
D12*
%TO.C,C4*%
X153720800Y-108102400D03*
D13*
X153720800Y-110602400D03*
%TD*%
%TO.C,R5*%
X169672000Y-120853200D03*
X169672000Y-113233200D03*
%TD*%
D14*
%TO.C,MP1*%
X168122600Y-108748200D03*
D15*
X168122600Y-103748200D03*
%TD*%
D16*
%TO.C,M2*%
X163098365Y-84370000D03*
D17*
X159138365Y-84370000D03*
%TD*%
D13*
%TO.C,R6*%
X166573200Y-120853200D03*
X166573200Y-113233200D03*
%TD*%
D18*
%TO.C,J6*%
X134366000Y-119717200D03*
D19*
X134366000Y-117217200D03*
X134366000Y-114717200D03*
X134366000Y-112217200D03*
%TD*%
D12*
%TO.C,C3*%
X161391600Y-108102400D03*
D13*
X161391600Y-110602400D03*
%TD*%
%TO.C,R3*%
X166573200Y-91694000D03*
X166573200Y-99314000D03*
%TD*%
D20*
%TO.C,M4*%
X154198500Y-127618400D03*
D17*
X158158500Y-127618400D03*
%TD*%
D21*
%TO.C,RP2040_Zero1*%
X128270000Y-92075000D03*
X130810000Y-92075000D03*
X133350000Y-92075000D03*
X135890000Y-92075000D03*
X138430000Y-92075000D03*
X140970000Y-92075000D03*
X143510000Y-92075000D03*
X146050000Y-92075000D03*
X148590000Y-92075000D03*
X148590000Y-94615000D03*
X148590000Y-97155000D03*
X148590000Y-99695000D03*
X148590000Y-102235000D03*
X148590000Y-104775000D03*
X148590000Y-107315000D03*
X146050000Y-107315000D03*
X143510000Y-107315000D03*
X140970000Y-107315000D03*
X138430000Y-107315000D03*
X135890000Y-107315000D03*
X133350000Y-107315000D03*
X130810000Y-107315000D03*
X128270000Y-107315000D03*
%TD*%
D10*
%TO.C,E1*%
X136875000Y-87426800D03*
D11*
X138875000Y-87426800D03*
X140875000Y-87426800D03*
X142875000Y-87426800D03*
%TD*%
D22*
%TO.C,C1*%
X153720800Y-103388800D03*
D13*
X153720800Y-100888800D03*
%TD*%
D22*
%TO.C,C2*%
X161442400Y-103338000D03*
D13*
X161442400Y-100838000D03*
%TD*%
%TO.C,R2*%
X172872400Y-120548400D03*
X172872400Y-112928400D03*
%TD*%
D23*
%TO.C,H2*%
X174091600Y-125272800D03*
%TD*%
D13*
%TO.C,R4*%
X169672000Y-91694000D03*
X169672000Y-99314000D03*
%TD*%
D10*
%TO.C,E2*%
X136875000Y-81889600D03*
D11*
X138875000Y-81889600D03*
X140875000Y-81889600D03*
X142875000Y-81889600D03*
%TD*%
D23*
%TO.C,H4*%
X134975600Y-129438400D03*
%TD*%
D20*
%TO.C,M3*%
X163088500Y-127618400D03*
D17*
X167048500Y-127618400D03*
%TD*%
D23*
%TO.C,H1*%
X169621200Y-87071200D03*
%TD*%
D16*
%TO.C,M1*%
X154182118Y-84370000D03*
D17*
X150222118Y-84370000D03*
%TD*%
D24*
%TO.C,BLC_Sign1*%
X146659600Y-123320800D03*
D19*
X146659600Y-125820800D03*
X146659600Y-128320800D03*
%TD*%
D10*
%TO.C,E4*%
X140716000Y-111201200D03*
D11*
X142716000Y-111201200D03*
X144716000Y-111201200D03*
X146716000Y-111201200D03*
%TD*%
D23*
%TO.C,H3*%
X130098800Y-82346800D03*
%TD*%
D14*
%TO.C,BLC_Pow1*%
X174396400Y-108733600D03*
D25*
X174396400Y-103733600D03*
%TD*%
M02*
