%TF.GenerationSoftware,KiCad,Pcbnew,9.0.6*%
%TF.CreationDate,2026-01-30T21:11:36+09:00*%
%TF.ProjectId,v2_MotorDriver,76325f4d-6f74-46f7-9244-72697665722e,rev?*%
%TF.SameCoordinates,Original*%
%TF.FileFunction,Copper,L1,Top*%
%TF.FilePolarity,Positive*%
%FSLAX46Y46*%
G04 Gerber Fmt 4.6, Leading zero omitted, Abs format (unit mm)*
G04 Created by KiCad (PCBNEW 9.0.6) date 2026-01-30 21:11:36*
%MOMM*%
%LPD*%
G01*
G04 APERTURE LIST*
G04 Aperture macros list*
%AMRoundRect*
0 Rectangle with rounded corners*
0 $1 Rounding radius*
0 $2 $3 $4 $5 $6 $7 $8 $9 X,Y pos of 4 corners*
0 Add a 4 corners polygon primitive as box body*
4,1,4,$2,$3,$4,$5,$6,$7,$8,$9,$2,$3,0*
0 Add four circle primitives for the rounded corners*
1,1,$1+$1,$2,$3*
1,1,$1+$1,$4,$5*
1,1,$1+$1,$6,$7*
1,1,$1+$1,$8,$9*
0 Add four rect primitives between the rounded corners*
20,1,$1+$1,$2,$3,$4,$5,0*
20,1,$1+$1,$4,$5,$6,$7,0*
20,1,$1+$1,$6,$7,$8,$9,0*
20,1,$1+$1,$8,$9,$2,$3,0*%
G04 Aperture macros list end*
%TA.AperFunction,Conductor*%
%ADD10C,0.200000*%
%TD*%
%TA.AperFunction,ComponentPad*%
%ADD11RoundRect,0.250000X-0.350000X-0.625000X0.350000X-0.625000X0.350000X0.625000X-0.350000X0.625000X0*%
%TD*%
%TA.AperFunction,ComponentPad*%
%ADD12O,1.200000X1.750000*%
%TD*%
%TA.AperFunction,ComponentPad*%
%ADD13RoundRect,0.250000X-0.550000X0.550000X-0.550000X-0.550000X0.550000X-0.550000X0.550000X0.550000X0*%
%TD*%
%TA.AperFunction,ComponentPad*%
%ADD14C,1.600000*%
%TD*%
%TA.AperFunction,SMDPad,CuDef*%
%ADD15RoundRect,0.237500X0.300000X0.237500X-0.300000X0.237500X-0.300000X-0.237500X0.300000X-0.237500X0*%
%TD*%
%TA.AperFunction,ComponentPad*%
%ADD16RoundRect,0.760000X1.140000X-1.140000X1.140000X1.140000X-1.140000X1.140000X-1.140000X-1.140000X0*%
%TD*%
%TA.AperFunction,ComponentPad*%
%ADD17C,3.800000*%
%TD*%
%TA.AperFunction,ComponentPad*%
%ADD18RoundRect,0.250001X1.099999X1.099999X-1.099999X1.099999X-1.099999X-1.099999X1.099999X-1.099999X0*%
%TD*%
%TA.AperFunction,ComponentPad*%
%ADD19C,2.700000*%
%TD*%
%TA.AperFunction,SMDPad,CuDef*%
%ADD20RoundRect,0.237500X-0.300000X-0.237500X0.300000X-0.237500X0.300000X0.237500X-0.300000X0.237500X0*%
%TD*%
%TA.AperFunction,ComponentPad*%
%ADD21RoundRect,0.250000X0.725000X-0.600000X0.725000X0.600000X-0.725000X0.600000X-0.725000X-0.600000X0*%
%TD*%
%TA.AperFunction,ComponentPad*%
%ADD22O,1.950000X1.700000*%
%TD*%
%TA.AperFunction,ComponentPad*%
%ADD23RoundRect,0.250001X-1.099999X-1.099999X1.099999X-1.099999X1.099999X1.099999X-1.099999X1.099999X0*%
%TD*%
%TA.AperFunction,ComponentPad*%
%ADD24C,1.500000*%
%TD*%
%TA.AperFunction,SMDPad,CuDef*%
%ADD25RoundRect,0.125000X-0.125000X0.125000X-0.125000X-0.125000X0.125000X-0.125000X0.125000X0.125000X0*%
%TD*%
%TA.AperFunction,SMDPad,CuDef*%
%ADD26RoundRect,0.237500X-0.237500X0.287500X-0.237500X-0.287500X0.237500X-0.287500X0.237500X0.287500X0*%
%TD*%
%TA.AperFunction,ComponentPad*%
%ADD27RoundRect,0.250000X0.550000X-0.550000X0.550000X0.550000X-0.550000X0.550000X-0.550000X-0.550000X0*%
%TD*%
%TA.AperFunction,SMDPad,CuDef*%
%ADD28RoundRect,0.150000X-0.150000X0.825000X-0.150000X-0.825000X0.150000X-0.825000X0.150000X0.825000X0*%
%TD*%
%TA.AperFunction,HeatsinkPad*%
%ADD29C,0.500000*%
%TD*%
%TA.AperFunction,HeatsinkPad*%
%ADD30R,3.000000X2.290000*%
%TD*%
%TA.AperFunction,SMDPad,CuDef*%
%ADD31RoundRect,0.150000X0.150000X-0.825000X0.150000X0.825000X-0.150000X0.825000X-0.150000X-0.825000X0*%
%TD*%
%TA.AperFunction,ComponentPad*%
%ADD32RoundRect,0.250000X-0.725000X0.600000X-0.725000X-0.600000X0.725000X-0.600000X0.725000X0.600000X0*%
%TD*%
%TA.AperFunction,ComponentPad*%
%ADD33C,4.000000*%
%TD*%
%TA.AperFunction,ViaPad*%
%ADD34C,0.600000*%
%TD*%
%TA.AperFunction,Conductor*%
%ADD35C,1.000000*%
%TD*%
%TA.AperFunction,Conductor*%
%ADD36C,0.500000*%
%TD*%
G04 APERTURE END LIST*
D10*
%TO.N,Net-(M1-Pin_2)*%
X152044400Y-87898068D02*
X152044400Y-89509600D01*
X151536400Y-89523668D01*
X148640800Y-87898068D01*
X148640800Y-82665668D01*
X152044400Y-82665668D01*
X152044400Y-87898068D01*
%TA.AperFunction,Conductor*%
G36*
X152044400Y-87898068D02*
G01*
X152044400Y-89509600D01*
X151536400Y-89523668D01*
X148640800Y-87898068D01*
X148640800Y-82665668D01*
X152044400Y-82665668D01*
X152044400Y-87898068D01*
G37*
%TD.AperFunction*%
%TO.N,Net-(M4-Pin_2)*%
X159461200Y-124663200D02*
X160020000Y-125882400D01*
X159969200Y-129184400D01*
X156514800Y-129184400D01*
X156464000Y-126250308D01*
X155448000Y-123952000D01*
X155448000Y-122224800D01*
X155905200Y-122224800D01*
X159461200Y-124663200D01*
%TA.AperFunction,Conductor*%
G36*
X159461200Y-124663200D02*
G01*
X160020000Y-125882400D01*
X159969200Y-129184400D01*
X156514800Y-129184400D01*
X156464000Y-126250308D01*
X155448000Y-123952000D01*
X155448000Y-122224800D01*
X155905200Y-122224800D01*
X159461200Y-124663200D01*
G37*
%TD.AperFunction*%
%TO.N,Net-(M3-Pin_1)*%
X164490400Y-126238000D02*
X164490400Y-129184400D01*
X161086800Y-129184400D01*
X160782000Y-125882400D01*
X160375600Y-122174000D01*
X160832800Y-122174000D01*
X164490400Y-126238000D01*
%TA.AperFunction,Conductor*%
G36*
X164490400Y-126238000D02*
G01*
X164490400Y-129184400D01*
X161086800Y-129184400D01*
X160782000Y-125882400D01*
X160375600Y-122174000D01*
X160832800Y-122174000D01*
X164490400Y-126238000D01*
G37*
%TD.AperFunction*%
%TO.N,VCC*%
X165404800Y-90157300D02*
X165404800Y-104190800D01*
X160375600Y-104140000D01*
X160375600Y-102463600D01*
X161340800Y-102308020D01*
X162560000Y-101549200D01*
X162661600Y-97891600D01*
X163322000Y-96469200D01*
X163322000Y-93929200D01*
X162407600Y-91236800D01*
X162407600Y-89408000D01*
X164655500Y-89408000D01*
X165404800Y-90157300D01*
%TA.AperFunction,Conductor*%
G36*
X165404800Y-90157300D02*
G01*
X165404800Y-104190800D01*
X160375600Y-104140000D01*
X160375600Y-102463600D01*
X161340800Y-102308020D01*
X162560000Y-101549200D01*
X162661600Y-97891600D01*
X163322000Y-96469200D01*
X163322000Y-93929200D01*
X162407600Y-91236800D01*
X162407600Y-89408000D01*
X164655500Y-89408000D01*
X165404800Y-90157300D01*
G37*
%TD.AperFunction*%
X176326800Y-102209600D02*
X176377600Y-105765600D01*
X166116000Y-105867200D01*
X163423600Y-109321600D01*
X151282400Y-109321600D01*
X151231600Y-107289600D01*
X151231600Y-103479600D01*
X152501582Y-102202886D01*
X161442400Y-102155620D01*
X176326800Y-102209600D01*
%TA.AperFunction,Conductor*%
G36*
X176326800Y-102209600D02*
G01*
X176377600Y-105765600D01*
X166116000Y-105867200D01*
X163423600Y-109321600D01*
X151282400Y-109321600D01*
X151231600Y-107289600D01*
X151231600Y-103479600D01*
X152501582Y-102202886D01*
X161442400Y-102155620D01*
X176326800Y-102209600D01*
G37*
%TD.AperFunction*%
%TO.N,Net-(M3-Pin_2)*%
X167944800Y-123698000D02*
X168757600Y-124942600D01*
X169062400Y-125882400D01*
X169011600Y-129184400D01*
X165354000Y-129184400D01*
X165303200Y-126250308D01*
X164033200Y-124460000D01*
X162864800Y-122275600D01*
X163372800Y-122275600D01*
X167944800Y-123698000D01*
%TA.AperFunction,Conductor*%
G36*
X167944800Y-123698000D02*
G01*
X168757600Y-124942600D01*
X169062400Y-125882400D01*
X169011600Y-129184400D01*
X165354000Y-129184400D01*
X165303200Y-126250308D01*
X164033200Y-124460000D01*
X162864800Y-122275600D01*
X163372800Y-122275600D01*
X167944800Y-123698000D01*
G37*
%TD.AperFunction*%
%TO.N,GND*%
X151993600Y-96215200D02*
X152704800Y-97434400D01*
X154432000Y-97434400D01*
X154432000Y-99517200D01*
X154470100Y-101193601D01*
X153974715Y-101600000D01*
X152107878Y-101600000D01*
X151485600Y-100977722D01*
X151485600Y-94488000D01*
X151638000Y-94437200D01*
X151993600Y-96215200D01*
%TA.AperFunction,Conductor*%
G36*
X151993600Y-96215200D02*
G01*
X152704800Y-97434400D01*
X154432000Y-97434400D01*
X154432000Y-99517200D01*
X154470100Y-101193601D01*
X153974715Y-101600000D01*
X152107878Y-101600000D01*
X151485600Y-100977722D01*
X151485600Y-94488000D01*
X151638000Y-94437200D01*
X151993600Y-96215200D01*
G37*
%TD.AperFunction*%
%TO.N,Net-(M1-Pin_1)*%
X155853618Y-87884000D02*
X154685218Y-89509600D01*
X154126418Y-89509600D01*
X152654000Y-86918800D01*
X152653218Y-82651600D01*
X155853618Y-82651600D01*
X155853618Y-87884000D01*
%TA.AperFunction,Conductor*%
G36*
X155853618Y-87884000D02*
G01*
X154685218Y-89509600D01*
X154126418Y-89509600D01*
X152654000Y-86918800D01*
X152653218Y-82651600D01*
X155853618Y-82651600D01*
X155853618Y-87884000D01*
G37*
%TD.AperFunction*%
%TO.N,Net-(M4-Pin_1)*%
X155041600Y-124510800D02*
X155803600Y-126390400D01*
X155854400Y-129184400D01*
X152552400Y-129184400D01*
X152552400Y-122986800D01*
X152908000Y-122224800D01*
X153416000Y-122174000D01*
X155041600Y-124510800D01*
%TA.AperFunction,Conductor*%
G36*
X155041600Y-124510800D02*
G01*
X155803600Y-126390400D01*
X155854400Y-129184400D01*
X152552400Y-129184400D01*
X152552400Y-122986800D01*
X152908000Y-122224800D01*
X153416000Y-122174000D01*
X155041600Y-124510800D01*
G37*
%TD.AperFunction*%
%TO.N,VCC*%
X176326800Y-102209600D02*
X165455600Y-102209600D01*
X165404800Y-101346000D01*
X176326800Y-101346000D01*
X176326800Y-102209600D01*
%TA.AperFunction,Conductor*%
G36*
X176326800Y-102209600D02*
G01*
X165455600Y-102209600D01*
X165404800Y-101346000D01*
X176326800Y-101346000D01*
X176326800Y-102209600D01*
G37*
%TD.AperFunction*%
X162153600Y-109016800D02*
X161188400Y-109172380D01*
X160020000Y-109880400D01*
X160020000Y-111607600D01*
X158648400Y-114046000D01*
X158648400Y-118516400D01*
X159562800Y-120497600D01*
X159613600Y-122275600D01*
X157556200Y-122275600D01*
X156868067Y-121589804D01*
X156819600Y-107340400D01*
X162153600Y-107340400D01*
X162153600Y-109016800D01*
%TA.AperFunction,Conductor*%
G36*
X162153600Y-109016800D02*
G01*
X161188400Y-109172380D01*
X160020000Y-109880400D01*
X160020000Y-111607600D01*
X158648400Y-114046000D01*
X158648400Y-118516400D01*
X159562800Y-120497600D01*
X159613600Y-122275600D01*
X157556200Y-122275600D01*
X156868067Y-121589804D01*
X156819600Y-107340400D01*
X162153600Y-107340400D01*
X162153600Y-109016800D01*
G37*
%TD.AperFunction*%
%TO.N,GND*%
X155956000Y-110451878D02*
X155956000Y-117144800D01*
X155803600Y-117195600D01*
X155448000Y-115417600D01*
X154736800Y-114198400D01*
X153009600Y-113842800D01*
X153009600Y-112115600D01*
X152971500Y-110439199D01*
X153466885Y-109829600D01*
X155333722Y-109829600D01*
X155956000Y-110451878D01*
%TA.AperFunction,Conductor*%
G36*
X155956000Y-110451878D02*
G01*
X155956000Y-117144800D01*
X155803600Y-117195600D01*
X155448000Y-115417600D01*
X154736800Y-114198400D01*
X153009600Y-113842800D01*
X153009600Y-112115600D01*
X152971500Y-110439199D01*
X153466885Y-109829600D01*
X155333722Y-109829600D01*
X155956000Y-110451878D01*
G37*
%TD.AperFunction*%
%TO.N,VCC*%
X158089600Y-90043000D02*
X158089600Y-104140000D01*
X152755600Y-104140000D01*
X152755600Y-102463600D01*
X153720800Y-102308020D01*
X154889200Y-101600000D01*
X154889200Y-99872800D01*
X156260800Y-97434400D01*
X156260800Y-92964000D01*
X155346400Y-91236800D01*
X155346400Y-89357200D01*
X157403800Y-89357200D01*
X158089600Y-90043000D01*
%TA.AperFunction,Conductor*%
G36*
X158089600Y-90043000D02*
G01*
X158089600Y-104140000D01*
X152755600Y-104140000D01*
X152755600Y-102463600D01*
X153720800Y-102308020D01*
X154889200Y-101600000D01*
X154889200Y-99872800D01*
X156260800Y-97434400D01*
X156260800Y-92964000D01*
X155346400Y-91236800D01*
X155346400Y-89357200D01*
X157403800Y-89357200D01*
X158089600Y-90043000D01*
G37*
%TD.AperFunction*%
%TO.N,Net-(M2-Pin_1)*%
X164592000Y-87020400D02*
X161569465Y-89560400D01*
X161086800Y-89560400D01*
X161264665Y-87884000D01*
X161264665Y-82651600D01*
X164668265Y-82651600D01*
X164592000Y-87020400D01*
%TA.AperFunction,Conductor*%
G36*
X164592000Y-87020400D02*
G01*
X161569465Y-89560400D01*
X161086800Y-89560400D01*
X161264665Y-87884000D01*
X161264665Y-82651600D01*
X164668265Y-82651600D01*
X164592000Y-87020400D01*
G37*
%TD.AperFunction*%
%TO.N,Net-(M2-Pin_2)*%
X160859047Y-87898068D02*
X159081047Y-89422068D01*
X158597600Y-89357200D01*
X157557047Y-86969600D01*
X157557047Y-82665668D01*
X160859047Y-82665668D01*
X160859047Y-87898068D01*
%TA.AperFunction,Conductor*%
G36*
X160859047Y-87898068D02*
G01*
X159081047Y-89422068D01*
X158597600Y-89357200D01*
X157557047Y-86969600D01*
X157557047Y-82665668D01*
X160859047Y-82665668D01*
X160859047Y-87898068D01*
G37*
%TD.AperFunction*%
%TO.N,GND*%
X163423600Y-110502678D02*
X163423600Y-117195600D01*
X163271200Y-117246400D01*
X162915600Y-115468400D01*
X162204400Y-114249200D01*
X160426400Y-113792000D01*
X160477200Y-112166400D01*
X160439100Y-110489999D01*
X160934485Y-109880400D01*
X162801322Y-109880400D01*
X163423600Y-110502678D01*
%TA.AperFunction,Conductor*%
G36*
X163423600Y-110502678D02*
G01*
X163423600Y-117195600D01*
X163271200Y-117246400D01*
X162915600Y-115468400D01*
X162204400Y-114249200D01*
X160426400Y-113792000D01*
X160477200Y-112166400D01*
X160439100Y-110489999D01*
X160934485Y-109880400D01*
X162801322Y-109880400D01*
X163423600Y-110502678D01*
G37*
%TD.AperFunction*%
X159105600Y-96164400D02*
X160020000Y-97332800D01*
X162001200Y-97332800D01*
X162102800Y-99466400D01*
X162153600Y-101041200D01*
X160985115Y-101591388D01*
X159118278Y-101597847D01*
X158496000Y-100977718D01*
X158496000Y-94386400D01*
X158648400Y-94335600D01*
X159105600Y-96164400D01*
%TA.AperFunction,Conductor*%
G36*
X159105600Y-96164400D02*
G01*
X160020000Y-97332800D01*
X162001200Y-97332800D01*
X162102800Y-99466400D01*
X162153600Y-101041200D01*
X160985115Y-101591388D01*
X159118278Y-101597847D01*
X158496000Y-100977718D01*
X158496000Y-94386400D01*
X158648400Y-94335600D01*
X159105600Y-96164400D01*
G37*
%TD.AperFunction*%
%TO.N,VCC*%
X154686000Y-108966000D02*
X153720800Y-109121580D01*
X152552400Y-109829600D01*
X152552400Y-111556800D01*
X151180800Y-113995200D01*
X151180800Y-118465600D01*
X152146000Y-120497600D01*
X152146000Y-122224800D01*
X150088600Y-122224800D01*
X149400152Y-121539005D01*
X149352000Y-109067600D01*
X151231600Y-107289600D01*
X154686000Y-107289600D01*
X154686000Y-108966000D01*
%TA.AperFunction,Conductor*%
G36*
X154686000Y-108966000D02*
G01*
X153720800Y-109121580D01*
X152552400Y-109829600D01*
X152552400Y-111556800D01*
X151180800Y-113995200D01*
X151180800Y-118465600D01*
X152146000Y-120497600D01*
X152146000Y-122224800D01*
X150088600Y-122224800D01*
X149400152Y-121539005D01*
X149352000Y-109067600D01*
X151231600Y-107289600D01*
X154686000Y-107289600D01*
X154686000Y-108966000D01*
G37*
%TD.AperFunction*%
%TD*%
D11*
%TO.P,E3,1,Pin_1*%
%TO.N,GND*%
X140716000Y-116738400D03*
D12*
%TO.P,E3,2,Pin_2*%
%TO.N,15*%
X142716000Y-116738400D03*
%TO.P,E3,3,Pin_3*%
%TO.N,14*%
X144716000Y-116738400D03*
%TO.P,E3,4,Pin_4*%
%TO.N,+3V3*%
X146716000Y-116738400D03*
%TD*%
D13*
%TO.P,C4,1*%
%TO.N,VCC*%
X153720800Y-108102400D03*
D14*
%TO.P,C4,2*%
%TO.N,GND*%
X153720800Y-110602400D03*
%TD*%
%TO.P,R5,1*%
%TO.N,Net-(TB67H3-RS)*%
X169672000Y-120853200D03*
%TO.P,R5,2*%
%TO.N,GND*%
X169672000Y-113233200D03*
%TD*%
D15*
%TO.P,C9,1*%
%TO.N,GND*%
X130708400Y-110286800D03*
%TO.P,C9,2*%
%TO.N,Net-(D1-K)*%
X128983400Y-110286800D03*
%TD*%
D16*
%TO.P,MP1,1,Pin_1*%
%TO.N,GND*%
X168122600Y-108748200D03*
D17*
%TO.P,MP1,2,Pin_2*%
%TO.N,VCC*%
X168122600Y-103748200D03*
%TD*%
D18*
%TO.P,M2,1,Pin_1*%
%TO.N,Net-(M2-Pin_1)*%
X163098365Y-84370000D03*
D19*
%TO.P,M2,2,Pin_2*%
%TO.N,Net-(M2-Pin_2)*%
X159138365Y-84370000D03*
%TD*%
D14*
%TO.P,R6,1*%
%TO.N,Net-(TB67H4-RS)*%
X166573200Y-120853200D03*
%TO.P,R6,2*%
%TO.N,GND*%
X166573200Y-113233200D03*
%TD*%
D20*
%TO.P,C6,1*%
%TO.N,GND*%
X161343000Y-97891600D03*
%TO.P,C6,2*%
%TO.N,VCC*%
X163068000Y-97891600D03*
%TD*%
D21*
%TO.P,J6,1,Pin_1*%
%TO.N,Net-(J6-Pin_1)*%
X134366000Y-119717200D03*
D22*
%TO.P,J6,2,Pin_2*%
%TO.N,Net-(J6-Pin_2)*%
X134366000Y-117217200D03*
%TO.P,J6,3,Pin_3*%
%TO.N,Net-(D1-A)*%
X134366000Y-114717200D03*
%TO.P,J6,4,Pin_4*%
%TO.N,GND*%
X134366000Y-112217200D03*
%TD*%
D13*
%TO.P,C3,1*%
%TO.N,VCC*%
X161391600Y-108102400D03*
D14*
%TO.P,C3,2*%
%TO.N,GND*%
X161391600Y-110602400D03*
%TD*%
%TO.P,R3,1*%
%TO.N,Net-(TB67H1-RS)*%
X166573200Y-91694000D03*
%TO.P,R3,2*%
%TO.N,GND*%
X166573200Y-99314000D03*
%TD*%
D23*
%TO.P,M4,1,Pin_1*%
%TO.N,Net-(M4-Pin_1)*%
X154198500Y-127618400D03*
D19*
%TO.P,M4,2,Pin_2*%
%TO.N,Net-(M4-Pin_2)*%
X158158500Y-127618400D03*
%TD*%
D24*
%TO.P,RP2040_Zero1,1,0*%
%TO.N,Net-(J6-Pin_1)*%
X128270000Y-92075000D03*
%TO.P,RP2040_Zero1,2,1*%
%TO.N,Net-(J6-Pin_2)*%
X130810000Y-92075000D03*
%TO.P,RP2040_Zero1,3,2*%
%TO.N,2*%
X133350000Y-92075000D03*
%TO.P,RP2040_Zero1,4,3*%
%TO.N,3*%
X135890000Y-92075000D03*
%TO.P,RP2040_Zero1,5,4*%
%TO.N,4*%
X138430000Y-92075000D03*
%TO.P,RP2040_Zero1,6,5*%
%TO.N,5*%
X140970000Y-92075000D03*
%TO.P,RP2040_Zero1,7,6*%
%TO.N,Net-(RP2040_Zero1-6)*%
X143510000Y-92075000D03*
%TO.P,RP2040_Zero1,8,7*%
%TO.N,Net-(RP2040_Zero1-7)*%
X146050000Y-92075000D03*
%TO.P,RP2040_Zero1,9,8*%
%TO.N,Net-(RP2040_Zero1-8)*%
X148590000Y-92075000D03*
%TO.P,RP2040_Zero1,10,9*%
%TO.N,Net-(RP2040_Zero1-9)*%
X148590000Y-94615000D03*
%TO.P,RP2040_Zero1,11,10*%
%TO.N,Net-(RP2040_Zero1-10)*%
X148590000Y-97155000D03*
%TO.P,RP2040_Zero1,12,11*%
%TO.N,Net-(RP2040_Zero1-11)*%
X148590000Y-99695000D03*
%TO.P,RP2040_Zero1,13,12*%
%TO.N,Net-(RP2040_Zero1-12)*%
X148590000Y-102235000D03*
%TO.P,RP2040_Zero1,14,13*%
%TO.N,Net-(RP2040_Zero1-13)*%
X148590000Y-104775000D03*
%TO.P,RP2040_Zero1,15,14*%
%TO.N,14*%
X148590000Y-107315000D03*
%TO.P,RP2040_Zero1,16,15*%
%TO.N,15*%
X146050000Y-107315000D03*
%TO.P,RP2040_Zero1,17,26*%
%TO.N,26*%
X143510000Y-107315000D03*
%TO.P,RP2040_Zero1,18,27*%
%TO.N,27*%
X140970000Y-107315000D03*
%TO.P,RP2040_Zero1,19,28*%
%TO.N,Net-(BLC_Sign1-Pin_1)*%
X138430000Y-107315000D03*
%TO.P,RP2040_Zero1,20,29*%
%TO.N,unconnected-(RP2040_Zero1-29-Pad20)*%
X135890000Y-107315000D03*
%TO.P,RP2040_Zero1,21,3V3*%
%TO.N,+3V3*%
X133350000Y-107315000D03*
%TO.P,RP2040_Zero1,22,GND*%
%TO.N,GND*%
X130810000Y-107315000D03*
%TO.P,RP2040_Zero1,23,5V*%
%TO.N,Net-(D1-K)*%
X128270000Y-107315000D03*
%TD*%
D11*
%TO.P,E1,1,Pin_1*%
%TO.N,GND*%
X136875000Y-87426800D03*
D12*
%TO.P,E1,2,Pin_2*%
%TO.N,4*%
X138875000Y-87426800D03*
%TO.P,E1,3,Pin_3*%
%TO.N,5*%
X140875000Y-87426800D03*
%TO.P,E1,4,Pin_4*%
%TO.N,+3V3*%
X142875000Y-87426800D03*
%TD*%
D25*
%TO.P,D1,1,K*%
%TO.N,Net-(D1-K)*%
X130302000Y-111879200D03*
%TO.P,D1,2,A*%
%TO.N,Net-(D1-A)*%
X130302000Y-114079200D03*
%TD*%
D26*
%TO.P,D2,1,K*%
%TO.N,GND*%
X175920400Y-115902800D03*
%TO.P,D2,2,A*%
%TO.N,Net-(D2-A)*%
X175920400Y-117652800D03*
%TD*%
D27*
%TO.P,C1,1*%
%TO.N,VCC*%
X153720800Y-103388800D03*
D14*
%TO.P,C1,2*%
%TO.N,GND*%
X153720800Y-100888800D03*
%TD*%
D27*
%TO.P,C2,1*%
%TO.N,VCC*%
X161442400Y-103338000D03*
D14*
%TO.P,C2,2*%
%TO.N,GND*%
X161442400Y-100838000D03*
%TD*%
%TO.P,R2,1*%
%TO.N,Net-(D2-A)*%
X172872400Y-120548400D03*
%TO.P,R2,2*%
%TO.N,VCC*%
X172872400Y-112928400D03*
%TD*%
D28*
%TO.P,TB67H3,1,GND*%
%TO.N,GND*%
X163105400Y-116385800D03*
%TO.P,TB67H3,2,IN2*%
%TO.N,Net-(RP2040_Zero1-10)*%
X161835400Y-116385800D03*
%TO.P,TB67H3,3,IN1*%
%TO.N,Net-(RP2040_Zero1-11)*%
X160565400Y-116385800D03*
%TO.P,TB67H3,4,VREF*%
%TO.N,+3V3*%
X159295400Y-116385800D03*
%TO.P,TB67H3,5,VM*%
%TO.N,VCC*%
X159295400Y-121335800D03*
%TO.P,TB67H3,6,OUT1*%
%TO.N,Net-(M3-Pin_1)*%
X160565400Y-121335800D03*
%TO.P,TB67H3,7,RS*%
%TO.N,Net-(TB67H3-RS)*%
X161835400Y-121335800D03*
%TO.P,TB67H3,8,OUT2*%
%TO.N,Net-(M3-Pin_2)*%
X163105400Y-121335800D03*
D29*
%TO.P,TB67H3,9,GND(PAD)*%
%TO.N,GND*%
X162200400Y-118210800D03*
X161200400Y-118210800D03*
X160200400Y-118210800D03*
D30*
X161200400Y-118860800D03*
D29*
X162200400Y-119510800D03*
X161200400Y-119510800D03*
X160200400Y-119510800D03*
%TD*%
D14*
%TO.P,R4,1*%
%TO.N,Net-(TB67H2-RS)*%
X169672000Y-91694000D03*
%TO.P,R4,2*%
%TO.N,GND*%
X169672000Y-99314000D03*
%TD*%
D11*
%TO.P,E2,1,Pin_1*%
%TO.N,GND*%
X136875000Y-81889600D03*
D12*
%TO.P,E2,2,Pin_2*%
%TO.N,2*%
X138875000Y-81889600D03*
%TO.P,E2,3,Pin_3*%
%TO.N,3*%
X140875000Y-81889600D03*
%TO.P,E2,4,Pin_4*%
%TO.N,+3V3*%
X142875000Y-81889600D03*
%TD*%
D31*
%TO.P,TB67H2,1,GND*%
%TO.N,GND*%
X158800800Y-95235800D03*
%TO.P,TB67H2,2,IN2*%
%TO.N,Net-(RP2040_Zero1-8)*%
X160070800Y-95235800D03*
%TO.P,TB67H2,3,IN1*%
%TO.N,Net-(RP2040_Zero1-9)*%
X161340800Y-95235800D03*
%TO.P,TB67H2,4,VREF*%
%TO.N,+3V3*%
X162610800Y-95235800D03*
%TO.P,TB67H2,5,VM*%
%TO.N,VCC*%
X162610800Y-90285800D03*
%TO.P,TB67H2,6,OUT1*%
%TO.N,Net-(M2-Pin_1)*%
X161340800Y-90285800D03*
%TO.P,TB67H2,7,RS*%
%TO.N,Net-(TB67H2-RS)*%
X160070800Y-90285800D03*
%TO.P,TB67H2,8,OUT2*%
%TO.N,Net-(M2-Pin_2)*%
X158800800Y-90285800D03*
D29*
%TO.P,TB67H2,9,GND(PAD)*%
%TO.N,GND*%
X159705800Y-93410800D03*
X160705800Y-93410800D03*
X161705800Y-93410800D03*
D30*
X160705800Y-92760800D03*
D29*
X159705800Y-92110800D03*
X160705800Y-92110800D03*
X161705800Y-92110800D03*
%TD*%
D31*
%TO.P,TB67H1,1,GND*%
%TO.N,GND*%
X151815800Y-95300800D03*
%TO.P,TB67H1,2,IN2*%
%TO.N,Net-(RP2040_Zero1-6)*%
X153085800Y-95300800D03*
%TO.P,TB67H1,3,IN1*%
%TO.N,Net-(RP2040_Zero1-7)*%
X154355800Y-95300800D03*
%TO.P,TB67H1,4,VREF*%
%TO.N,+3V3*%
X155625800Y-95300800D03*
%TO.P,TB67H1,5,VM*%
%TO.N,VCC*%
X155625800Y-90350800D03*
%TO.P,TB67H1,6,OUT1*%
%TO.N,Net-(M1-Pin_1)*%
X154355800Y-90350800D03*
%TO.P,TB67H1,7,RS*%
%TO.N,Net-(TB67H1-RS)*%
X153085800Y-90350800D03*
%TO.P,TB67H1,8,OUT2*%
%TO.N,Net-(M1-Pin_2)*%
X151815800Y-90350800D03*
D29*
%TO.P,TB67H1,9,GND(PAD)*%
%TO.N,GND*%
X152720800Y-93475800D03*
X153720800Y-93475800D03*
X154720800Y-93475800D03*
D30*
X153720800Y-92825800D03*
D29*
X152720800Y-92175800D03*
X153720800Y-92175800D03*
X154720800Y-92175800D03*
%TD*%
D15*
%TO.P,C8,1*%
%TO.N,GND*%
X153058200Y-113487200D03*
%TO.P,C8,2*%
%TO.N,VCC*%
X151333200Y-113487200D03*
%TD*%
D20*
%TO.P,C5,1*%
%TO.N,GND*%
X154434200Y-97891600D03*
%TO.P,C5,2*%
%TO.N,VCC*%
X156159200Y-97891600D03*
%TD*%
D15*
%TO.P,C7,1*%
%TO.N,GND*%
X160525800Y-113487200D03*
%TO.P,C7,2*%
%TO.N,VCC*%
X158800800Y-113487200D03*
%TD*%
D23*
%TO.P,M3,1,Pin_1*%
%TO.N,Net-(M3-Pin_1)*%
X163088500Y-127618400D03*
D19*
%TO.P,M3,2,Pin_2*%
%TO.N,Net-(M3-Pin_2)*%
X167048500Y-127618400D03*
%TD*%
D28*
%TO.P,TB67H4,1,GND*%
%TO.N,GND*%
X155688600Y-116385800D03*
%TO.P,TB67H4,2,IN2*%
%TO.N,Net-(RP2040_Zero1-12)*%
X154418600Y-116385800D03*
%TO.P,TB67H4,3,IN1*%
%TO.N,Net-(RP2040_Zero1-13)*%
X153148600Y-116385800D03*
%TO.P,TB67H4,4,VREF*%
%TO.N,+3V3*%
X151878600Y-116385800D03*
%TO.P,TB67H4,5,VM*%
%TO.N,VCC*%
X151878600Y-121335800D03*
%TO.P,TB67H4,6,OUT1*%
%TO.N,Net-(M4-Pin_1)*%
X153148600Y-121335800D03*
%TO.P,TB67H4,7,RS*%
%TO.N,Net-(TB67H4-RS)*%
X154418600Y-121335800D03*
%TO.P,TB67H4,8,OUT2*%
%TO.N,Net-(M4-Pin_2)*%
X155688600Y-121335800D03*
D29*
%TO.P,TB67H4,9,GND(PAD)*%
%TO.N,GND*%
X154783600Y-118210800D03*
X153783600Y-118210800D03*
X152783600Y-118210800D03*
D30*
X153783600Y-118860800D03*
D29*
X154783600Y-119510800D03*
X153783600Y-119510800D03*
X152783600Y-119510800D03*
%TD*%
D18*
%TO.P,M1,1,Pin_1*%
%TO.N,Net-(M1-Pin_1)*%
X154182118Y-84370000D03*
D19*
%TO.P,M1,2,Pin_2*%
%TO.N,Net-(M1-Pin_2)*%
X150222118Y-84370000D03*
%TD*%
D32*
%TO.P,BLC_Sign1,1,Pin_1*%
%TO.N,Net-(BLC_Sign1-Pin_1)*%
X146659600Y-123320800D03*
D22*
%TO.P,BLC_Sign1,2,Pin_2*%
%TO.N,unconnected-(BLC_Sign1-Pin_2-Pad2)*%
X146659600Y-125820800D03*
%TO.P,BLC_Sign1,3,Pin_3*%
%TO.N,GND*%
X146659600Y-128320800D03*
%TD*%
D11*
%TO.P,E4,1,Pin_1*%
%TO.N,GND*%
X140716000Y-111201200D03*
D12*
%TO.P,E4,2,Pin_2*%
%TO.N,26*%
X142716000Y-111201200D03*
%TO.P,E4,3,Pin_3*%
%TO.N,27*%
X144716000Y-111201200D03*
%TO.P,E4,4,Pin_4*%
%TO.N,+3V3*%
X146716000Y-111201200D03*
%TD*%
D16*
%TO.P,BLC_Pow1,1,Pin_1*%
%TO.N,GND*%
X174396400Y-108733600D03*
D33*
%TO.P,BLC_Pow1,2,Pin_2*%
%TO.N,VCC*%
X174396400Y-103733600D03*
%TD*%
D34*
%TO.N,GND*%
X132384800Y-86512400D03*
X166573200Y-87884000D03*
X143306800Y-121259600D03*
X131318000Y-125323600D03*
X134061200Y-80314800D03*
X127914400Y-87071200D03*
X145694400Y-85090000D03*
X149199600Y-80518000D03*
X164541200Y-80264000D03*
X171805600Y-94488000D03*
X170281600Y-124358400D03*
X171500800Y-118059200D03*
X167792400Y-115570000D03*
X160629600Y-130810000D03*
X167487600Y-131013200D03*
X153720800Y-131521200D03*
X140106400Y-129082800D03*
X135737600Y-123139200D03*
X132435600Y-119227600D03*
X128219200Y-114706400D03*
X127762000Y-112115600D03*
X129438400Y-99720400D03*
X148488400Y-121513600D03*
X146862800Y-121716800D03*
X143967200Y-86055200D03*
X143306800Y-89052400D03*
X143306800Y-90576400D03*
X166319200Y-97637600D03*
X141427200Y-112826800D03*
X151536400Y-123139200D03*
X145186400Y-124764800D03*
X150774400Y-90271600D03*
X133654800Y-110642400D03*
X131521200Y-108864400D03*
X135280400Y-110845600D03*
X135585200Y-115925600D03*
X133146800Y-113487200D03*
X130962400Y-112979200D03*
X126644400Y-92303600D03*
X126542800Y-101447600D03*
X129590800Y-106426000D03*
X129590800Y-92964000D03*
X132130800Y-91084400D03*
X135940800Y-83362800D03*
X141833600Y-83261200D03*
X139801600Y-86004400D03*
X139852400Y-80467200D03*
X147320000Y-91084400D03*
X150774400Y-92760800D03*
X156565600Y-82092800D03*
X156514800Y-88442800D03*
X157175200Y-88392000D03*
X164693600Y-88087200D03*
X176580800Y-100482400D03*
X170789600Y-90627200D03*
X168097200Y-91643200D03*
X166370000Y-93370400D03*
X171043600Y-100380800D03*
X168554400Y-100380800D03*
X167690800Y-100380800D03*
X169773600Y-111455200D03*
X165354000Y-108305600D03*
X176834800Y-110642400D03*
X171602400Y-109982000D03*
X176834800Y-106578400D03*
X171754800Y-106883200D03*
X176072800Y-119075200D03*
X174701200Y-116789200D03*
X164338000Y-113080800D03*
X164236400Y-120599200D03*
X147878800Y-129946400D03*
X148132800Y-124764800D03*
X135890000Y-118313200D03*
X145694400Y-118160800D03*
X148488400Y-114249200D03*
X141782800Y-115316000D03*
X144881600Y-112928400D03*
X137922000Y-111455200D03*
X137058400Y-89611200D03*
X134551000Y-91084400D03*
X134315200Y-87833200D03*
X136875000Y-85293200D03*
%TO.N,+3V3*%
X155610000Y-96723200D03*
X151892000Y-114909600D03*
X159308800Y-114858800D03*
X150885600Y-98196400D03*
X150073635Y-107107165D03*
X162555352Y-96695640D03*
%TO.N,Net-(TB67H1-RS)*%
X153060400Y-88950800D03*
%TO.N,Net-(TB67H2-RS)*%
X160528431Y-88971700D03*
%TO.N,Net-(TB67H3-RS)*%
X162255200Y-122732800D03*
%TO.N,Net-(TB67H4-RS)*%
X154736800Y-122885200D03*
%TO.N,Net-(RP2040_Zero1-7)*%
X154381200Y-96723200D03*
%TO.N,Net-(RP2040_Zero1-8)*%
X160323130Y-96732800D03*
%TO.N,Net-(RP2040_Zero1-13)*%
X153162000Y-114858800D03*
%TO.N,Net-(RP2040_Zero1-11)*%
X160578800Y-114858800D03*
%TO.N,Net-(RP2040_Zero1-12)*%
X154381200Y-114858800D03*
%TO.N,Net-(RP2040_Zero1-6)*%
X153060400Y-96723200D03*
%TO.N,Net-(RP2040_Zero1-9)*%
X161391600Y-96732800D03*
%TO.N,Net-(RP2040_Zero1-10)*%
X161848800Y-114858800D03*
%TD*%
D35*
%TO.N,GND*%
X130656500Y-107468500D02*
X130810000Y-107315000D01*
X133205700Y-112074000D02*
X134222800Y-112074000D01*
D36*
X175920400Y-115902800D02*
X175920400Y-110257600D01*
D35*
X133205700Y-112074000D02*
X130656500Y-109524800D01*
X134222800Y-112074000D02*
X134366000Y-112217200D01*
X130656500Y-109524800D02*
X130656500Y-107468500D01*
D36*
X175920400Y-110257600D02*
X174396400Y-108733600D01*
%TO.N,VCC*%
X168122600Y-103748200D02*
X170473600Y-106099200D01*
X170473600Y-106099200D02*
X170473600Y-110529600D01*
X170473600Y-110529600D02*
X172872400Y-112928400D01*
%TO.N,Net-(D2-A)*%
X172872400Y-120548400D02*
X173024800Y-120548400D01*
X173024800Y-120548400D02*
X175920400Y-117652800D01*
%TO.N,+3V3*%
X150726000Y-98356000D02*
X142309000Y-98356000D01*
X162610800Y-95235800D02*
X162610800Y-96640192D01*
X155625800Y-96707400D02*
X155610000Y-96723200D01*
X142309000Y-98356000D02*
X134551000Y-106114000D01*
X150073635Y-107107165D02*
X150073635Y-106962164D01*
X162610800Y-96640192D02*
X162555352Y-96695640D01*
X155625800Y-95300800D02*
X155625800Y-96707400D01*
X150885600Y-98196400D02*
X150726000Y-98356000D01*
X151878600Y-116385800D02*
X151878600Y-114923000D01*
X134551000Y-106114000D02*
X133350000Y-107315000D01*
X149225471Y-106114000D02*
X134551000Y-106114000D01*
X150073635Y-106962164D02*
X149225471Y-106114000D01*
X159295400Y-116385800D02*
X159295400Y-114872200D01*
X159295400Y-114872200D02*
X159308800Y-114858800D01*
X151878600Y-114923000D02*
X151892000Y-114909600D01*
D10*
%TO.N,5*%
X140875000Y-91980000D02*
X140970000Y-92075000D01*
X140875000Y-87426800D02*
X140875000Y-91980000D01*
%TO.N,4*%
X138875000Y-91630000D02*
X138430000Y-92075000D01*
X138875000Y-87426800D02*
X138875000Y-91630000D01*
%TO.N,3*%
X137974000Y-84790600D02*
X137974000Y-89991000D01*
X140875000Y-81889600D02*
X137974000Y-84790600D01*
X137974000Y-89991000D02*
X135890000Y-92075000D01*
%TO.N,2*%
X133350000Y-87414600D02*
X133350000Y-92075000D01*
X138875000Y-81889600D02*
X133350000Y-87414600D01*
%TO.N,14*%
X144716000Y-116738400D02*
X148590000Y-112864400D01*
X148590000Y-112864400D02*
X148590000Y-107315000D01*
%TO.N,15*%
X145815000Y-107550000D02*
X146050000Y-107315000D01*
X142716000Y-116738400D02*
X145815000Y-113639400D01*
X145815000Y-113639400D02*
X145815000Y-107550000D01*
%TO.N,26*%
X142716000Y-108109000D02*
X143510000Y-107315000D01*
X142716000Y-111201200D02*
X142716000Y-108109000D01*
%TO.N,27*%
X144716000Y-111201200D02*
X143540000Y-112377200D01*
X141617000Y-107962000D02*
X140970000Y-107315000D01*
X142342794Y-112377200D02*
X141617000Y-111651406D01*
X141617000Y-111651406D02*
X141617000Y-107962000D01*
X143540000Y-112377200D02*
X142342794Y-112377200D01*
D36*
%TO.N,Net-(TB67H1-RS)*%
X153085800Y-88976200D02*
X153060400Y-88950800D01*
X153085800Y-90350800D02*
X153085800Y-88976200D01*
%TO.N,Net-(TB67H2-RS)*%
X160070800Y-89429331D02*
X160528431Y-88971700D01*
X160070800Y-90285800D02*
X160070800Y-89429331D01*
%TO.N,Net-(TB67H3-RS)*%
X161835400Y-122313000D02*
X162255200Y-122732800D01*
X161835400Y-121335800D02*
X161835400Y-122313000D01*
%TO.N,Net-(TB67H4-RS)*%
X154418600Y-122567000D02*
X154736800Y-122885200D01*
X154418600Y-121335800D02*
X154418600Y-122567000D01*
D10*
%TO.N,Net-(RP2040_Zero1-7)*%
X154355800Y-95300800D02*
X154355800Y-96697800D01*
X154355800Y-96697800D02*
X154381200Y-96723200D01*
%TO.N,Net-(RP2040_Zero1-8)*%
X160070800Y-95235800D02*
X160070800Y-96480470D01*
X160070800Y-96480470D02*
X160323130Y-96732800D01*
%TO.N,Net-(RP2040_Zero1-13)*%
X153148600Y-114872200D02*
X153162000Y-114858800D01*
X153148600Y-116385800D02*
X153148600Y-114872200D01*
%TO.N,Net-(RP2040_Zero1-11)*%
X160565400Y-114872200D02*
X160578800Y-114858800D01*
X148590000Y-99967767D02*
X148590000Y-99695000D01*
X160565400Y-116385800D02*
X160565400Y-114872200D01*
%TO.N,Net-(RP2040_Zero1-12)*%
X154418600Y-114896200D02*
X154381200Y-114858800D01*
X154418600Y-116385800D02*
X154418600Y-114896200D01*
%TO.N,Net-(RP2040_Zero1-6)*%
X153085800Y-96697800D02*
X153060400Y-96723200D01*
X153085800Y-95300800D02*
X153085800Y-96697800D01*
%TO.N,Net-(RP2040_Zero1-9)*%
X161340800Y-95235800D02*
X161340800Y-96682000D01*
X161340800Y-96682000D02*
X161391600Y-96732800D01*
%TO.N,Net-(RP2040_Zero1-10)*%
X161835400Y-116385800D02*
X161835400Y-114872200D01*
X161835400Y-114872200D02*
X161848800Y-114858800D01*
D35*
%TO.N,Net-(D1-A)*%
X130940000Y-114717200D02*
X134366000Y-114717200D01*
X130302000Y-114079200D02*
X130940000Y-114717200D01*
%TO.N,Net-(D1-K)*%
X128931500Y-110508700D02*
X128931500Y-109524800D01*
X128931500Y-109524800D02*
X128931500Y-107976500D01*
X130302000Y-111879200D02*
X128931500Y-110508700D01*
X128931500Y-107976500D02*
X128270000Y-107315000D01*
D10*
%TO.N,Net-(J6-Pin_2)*%
X136956800Y-111520640D02*
X135519760Y-110083600D01*
X134315200Y-110083600D02*
X132080000Y-107848400D01*
X136956800Y-115516200D02*
X135255800Y-117217200D01*
X132080000Y-107848400D02*
X132080000Y-93345000D01*
X136956800Y-115516200D02*
X136956800Y-111520640D01*
X132080000Y-93345000D02*
X130810000Y-92075000D01*
X135519760Y-110083600D02*
X134315200Y-110083600D01*
X135255800Y-117217200D02*
X134366000Y-117217200D01*
%TO.N,Net-(J6-Pin_1)*%
X128574800Y-113926000D02*
X134366000Y-119717200D01*
X127711200Y-111048800D02*
X128574800Y-111912400D01*
X128574800Y-111912400D02*
X128574800Y-113926000D01*
X127219000Y-93126000D02*
X127219000Y-107750339D01*
X127711200Y-108242539D02*
X127711200Y-111048800D01*
X128270000Y-92075000D02*
X127219000Y-93126000D01*
X127219000Y-107750339D02*
X127711200Y-108242539D01*
%TD*%
%TA.AperFunction,Conductor*%
%TO.N,GND*%
G36*
X177143301Y-105847989D02*
G01*
X177191637Y-105898441D01*
X177205557Y-105955569D01*
X177199941Y-120976858D01*
X177180231Y-121043890D01*
X177127410Y-121089626D01*
X177116783Y-121093893D01*
X171399200Y-123088400D01*
X170565758Y-132431717D01*
X170540194Y-132496743D01*
X170483534Y-132537625D01*
X170442248Y-132544700D01*
X139148341Y-132544700D01*
X139081302Y-132525015D01*
X139035547Y-132472211D01*
X139029862Y-132457289D01*
X138713943Y-131434312D01*
X137109200Y-126238000D01*
X137109198Y-126237999D01*
X130801601Y-126278535D01*
X130734436Y-126259282D01*
X130688343Y-126206773D01*
X130682447Y-126191520D01*
X130665424Y-126137039D01*
X130448098Y-125441506D01*
X130447421Y-125439263D01*
X130352296Y-125112984D01*
X129898537Y-123556592D01*
X129897932Y-123554441D01*
X129658581Y-122670783D01*
X145184100Y-122670783D01*
X145184100Y-123970801D01*
X145184101Y-123970818D01*
X145194600Y-124073596D01*
X145194601Y-124073599D01*
X145249785Y-124240131D01*
X145249787Y-124240136D01*
X145341889Y-124389457D01*
X145465944Y-124513512D01*
X145620720Y-124608978D01*
X145667445Y-124660926D01*
X145678668Y-124729888D01*
X145650824Y-124793971D01*
X145643306Y-124802198D01*
X145504489Y-124941015D01*
X145379551Y-125112979D01*
X145283044Y-125302385D01*
X145217353Y-125504560D01*
X145184100Y-125714513D01*
X145184100Y-125927087D01*
X145217354Y-126137043D01*
X145263519Y-126279125D01*
X145283044Y-126339214D01*
X145379551Y-126528620D01*
X145504490Y-126700586D01*
X145654809Y-126850905D01*
X145654814Y-126850909D01*
X145819818Y-126970791D01*
X145862484Y-127026120D01*
X145868463Y-127095734D01*
X145835858Y-127157529D01*
X145819818Y-127171427D01*
X145655140Y-127291072D01*
X145655135Y-127291076D01*
X145504876Y-127441335D01*
X145504872Y-127441340D01*
X145379979Y-127613242D01*
X145283504Y-127802582D01*
X145217842Y-128004670D01*
X145217842Y-128004673D01*
X145207369Y-128070800D01*
X146255454Y-128070800D01*
X146216970Y-128137457D01*
X146184600Y-128258265D01*
X146184600Y-128383335D01*
X146216970Y-128504143D01*
X146255454Y-128570800D01*
X145207369Y-128570800D01*
X145217842Y-128636926D01*
X145217842Y-128636929D01*
X145283504Y-128839017D01*
X145379979Y-129028357D01*
X145504872Y-129200259D01*
X145504876Y-129200264D01*
X145655135Y-129350523D01*
X145655140Y-129350527D01*
X145827042Y-129475420D01*
X146016382Y-129571895D01*
X146218472Y-129637557D01*
X146409600Y-129667829D01*
X146409600Y-128724945D01*
X146476257Y-128763430D01*
X146597065Y-128795800D01*
X146722135Y-128795800D01*
X146842943Y-128763430D01*
X146909600Y-128724945D01*
X146909600Y-129667828D01*
X147100727Y-129637557D01*
X147302817Y-129571895D01*
X147492157Y-129475420D01*
X147664059Y-129350527D01*
X147664064Y-129350523D01*
X147814323Y-129200264D01*
X147814327Y-129200259D01*
X147939220Y-129028357D01*
X148035695Y-128839017D01*
X148101357Y-128636929D01*
X148101357Y-128636926D01*
X148111831Y-128570800D01*
X147063746Y-128570800D01*
X147102230Y-128504143D01*
X147134600Y-128383335D01*
X147134600Y-128258265D01*
X147102230Y-128137457D01*
X147063746Y-128070800D01*
X148111831Y-128070800D01*
X148101357Y-128004673D01*
X148101357Y-128004670D01*
X148035695Y-127802582D01*
X147939220Y-127613242D01*
X147814327Y-127441340D01*
X147814323Y-127441335D01*
X147664064Y-127291076D01*
X147664059Y-127291072D01*
X147499381Y-127171427D01*
X147456715Y-127116097D01*
X147450736Y-127046484D01*
X147483341Y-126984689D01*
X147499376Y-126970794D01*
X147664392Y-126850904D01*
X147814704Y-126700592D01*
X147814706Y-126700588D01*
X147814709Y-126700586D01*
X147939648Y-126528620D01*
X147939647Y-126528620D01*
X147939651Y-126528616D01*
X148036157Y-126339212D01*
X148101846Y-126137043D01*
X148135100Y-125927087D01*
X148135100Y-125714513D01*
X148101846Y-125504557D01*
X148036157Y-125302388D01*
X147939651Y-125112984D01*
X147939649Y-125112981D01*
X147939648Y-125112979D01*
X147814709Y-124941013D01*
X147675894Y-124802198D01*
X147642409Y-124740875D01*
X147647393Y-124671183D01*
X147689265Y-124615250D01*
X147698479Y-124608978D01*
X147703931Y-124605614D01*
X147703934Y-124605614D01*
X147853256Y-124513512D01*
X147977312Y-124389456D01*
X148069414Y-124240134D01*
X148124599Y-124073597D01*
X148135100Y-123970809D01*
X148135099Y-122670792D01*
X148124599Y-122568003D01*
X148069414Y-122401466D01*
X147977312Y-122252144D01*
X147853256Y-122128088D01*
X147703934Y-122035986D01*
X147537397Y-121980801D01*
X147537395Y-121980800D01*
X147434610Y-121970300D01*
X145884598Y-121970300D01*
X145884581Y-121970301D01*
X145781803Y-121980800D01*
X145781800Y-121980801D01*
X145615268Y-122035985D01*
X145615263Y-122035987D01*
X145465942Y-122128089D01*
X145341889Y-122252142D01*
X145249787Y-122401463D01*
X145249786Y-122401466D01*
X145194601Y-122568003D01*
X145194601Y-122568004D01*
X145194600Y-122568004D01*
X145184100Y-122670783D01*
X129658581Y-122670783D01*
X129385218Y-121661557D01*
X129384646Y-121659362D01*
X128908325Y-119757092D01*
X128907781Y-119754832D01*
X128467972Y-117843654D01*
X128467495Y-117841482D01*
X128082182Y-116006928D01*
X128064415Y-115922334D01*
X128063949Y-115920003D01*
X128002544Y-115596986D01*
X127697741Y-113993587D01*
X127697767Y-113992321D01*
X127697320Y-113991255D01*
X127368075Y-112058039D01*
X127367702Y-112055709D01*
X127364410Y-112033857D01*
X127334937Y-111838220D01*
X127344415Y-111768999D01*
X127389813Y-111715888D01*
X127456719Y-111695753D01*
X127523889Y-111714986D01*
X127545234Y-111732069D01*
X127937981Y-112124816D01*
X127971466Y-112186139D01*
X127974300Y-112212497D01*
X127974300Y-113839330D01*
X127974299Y-113839348D01*
X127974299Y-114005054D01*
X127974298Y-114005054D01*
X128015224Y-114157789D01*
X128015225Y-114157790D01*
X128038896Y-114198788D01*
X128039715Y-114200206D01*
X128094279Y-114294714D01*
X128094281Y-114294717D01*
X128213149Y-114413585D01*
X128213155Y-114413590D01*
X132854181Y-119054616D01*
X132887666Y-119115939D01*
X132890500Y-119142297D01*
X132890500Y-120367201D01*
X132890501Y-120367218D01*
X132901000Y-120469996D01*
X132901001Y-120469999D01*
X132904148Y-120479495D01*
X132956186Y-120636534D01*
X133048288Y-120785856D01*
X133172344Y-120909912D01*
X133321666Y-121002014D01*
X133488203Y-121057199D01*
X133590991Y-121067700D01*
X135141008Y-121067699D01*
X135243797Y-121057199D01*
X135410334Y-121002014D01*
X135559656Y-120909912D01*
X135683712Y-120785856D01*
X135775814Y-120636534D01*
X135830999Y-120469997D01*
X135841500Y-120367209D01*
X135841499Y-119067192D01*
X135830999Y-118964403D01*
X135775814Y-118797866D01*
X135683712Y-118648544D01*
X135559656Y-118524488D01*
X135410334Y-118432386D01*
X135410333Y-118432385D01*
X135404878Y-118429021D01*
X135358154Y-118377073D01*
X135346931Y-118308110D01*
X135374775Y-118244028D01*
X135382272Y-118235823D01*
X135521104Y-118096992D01*
X135528508Y-118086802D01*
X135646048Y-117925020D01*
X135646047Y-117925020D01*
X135646051Y-117925016D01*
X135742557Y-117735612D01*
X135808246Y-117533443D01*
X135808246Y-117533442D01*
X135808411Y-117532935D01*
X135838659Y-117483574D01*
X137325513Y-115996721D01*
X137325516Y-115996720D01*
X137437320Y-115884916D01*
X137487439Y-115798104D01*
X137516377Y-115747985D01*
X137557300Y-115595258D01*
X137557300Y-115437143D01*
X137557300Y-111441583D01*
X137519155Y-111299224D01*
X137520818Y-111229378D01*
X137559980Y-111171515D01*
X137616462Y-111145187D01*
X139469539Y-110803831D01*
X139539032Y-110811045D01*
X139593596Y-110854686D01*
X139615904Y-110920899D01*
X139616000Y-110925779D01*
X139616000Y-110951200D01*
X140435670Y-110951200D01*
X140415925Y-110970945D01*
X140366556Y-111056455D01*
X140341000Y-111151830D01*
X140341000Y-111250570D01*
X140366556Y-111345945D01*
X140415925Y-111431455D01*
X140435670Y-111451200D01*
X139616001Y-111451200D01*
X139616001Y-111876186D01*
X139626494Y-111978897D01*
X139681641Y-112145319D01*
X139681643Y-112145324D01*
X139773684Y-112294545D01*
X139897654Y-112418515D01*
X140046875Y-112510556D01*
X140046880Y-112510558D01*
X140213302Y-112565705D01*
X140213309Y-112565706D01*
X140316019Y-112576199D01*
X140465999Y-112576199D01*
X140466000Y-112576198D01*
X140466000Y-111481530D01*
X140485745Y-111501275D01*
X140571255Y-111550644D01*
X140666630Y-111576200D01*
X140765370Y-111576200D01*
X140860745Y-111550644D01*
X140946255Y-111501275D01*
X140966000Y-111481530D01*
X140966000Y-112576199D01*
X141115972Y-112576199D01*
X141115986Y-112576198D01*
X141218697Y-112565705D01*
X141385119Y-112510558D01*
X141385126Y-112510555D01*
X141451222Y-112469786D01*
X141518614Y-112451345D01*
X141585278Y-112472267D01*
X141604001Y-112487643D01*
X141612429Y-112496071D01*
X141974078Y-112857720D01*
X141974080Y-112857721D01*
X141974084Y-112857724D01*
X142097162Y-112928782D01*
X142111010Y-112936777D01*
X142263737Y-112977701D01*
X142263739Y-112977701D01*
X142429448Y-112977701D01*
X142429464Y-112977700D01*
X143453331Y-112977700D01*
X143453347Y-112977701D01*
X143460943Y-112977701D01*
X143619054Y-112977701D01*
X143619057Y-112977701D01*
X143771785Y-112936777D01*
X143821904Y-112907839D01*
X143908716Y-112857720D01*
X144020520Y-112745916D01*
X144020520Y-112745914D01*
X144030728Y-112735707D01*
X144030730Y-112735704D01*
X144222319Y-112544114D01*
X144283640Y-112510631D01*
X144348315Y-112513865D01*
X144458299Y-112549602D01*
X144629389Y-112576700D01*
X144629390Y-112576700D01*
X144802610Y-112576700D01*
X144802611Y-112576700D01*
X144973701Y-112549602D01*
X145052184Y-112524100D01*
X145122022Y-112522106D01*
X145181855Y-112558186D01*
X145212684Y-112620886D01*
X145214500Y-112642032D01*
X145214500Y-113339302D01*
X145194815Y-113406341D01*
X145178181Y-113426983D01*
X143209680Y-115395483D01*
X143148357Y-115428968D01*
X143083681Y-115425733D01*
X142973698Y-115389997D01*
X142842271Y-115369181D01*
X142802611Y-115362900D01*
X142629389Y-115362900D01*
X142589728Y-115369181D01*
X142458302Y-115389997D01*
X142293552Y-115443528D01*
X142139211Y-115522168D01*
X141999073Y-115623985D01*
X141891166Y-115731892D01*
X141829843Y-115765376D01*
X141760151Y-115760392D01*
X141704218Y-115718520D01*
X141697946Y-115709306D01*
X141658317Y-115645056D01*
X141534345Y-115521084D01*
X141385124Y-115429043D01*
X141385119Y-115429041D01*
X141218697Y-115373894D01*
X141218690Y-115373893D01*
X141115986Y-115363400D01*
X140966000Y-115363400D01*
X140966000Y-116458070D01*
X140946255Y-116438325D01*
X140860745Y-116388956D01*
X140765370Y-116363400D01*
X140666630Y-116363400D01*
X140571255Y-116388956D01*
X140485745Y-116438325D01*
X140466000Y-116458070D01*
X140466000Y-115363400D01*
X140316027Y-115363400D01*
X140316012Y-115363401D01*
X140213302Y-115373894D01*
X140046880Y-115429041D01*
X140046875Y-115429043D01*
X139897654Y-115521084D01*
X139773684Y-115645054D01*
X139681643Y-115794275D01*
X139681641Y-115794280D01*
X139626494Y-115960702D01*
X139626493Y-115960709D01*
X139616000Y-116063413D01*
X139616000Y-116488400D01*
X140435670Y-116488400D01*
X140415925Y-116508145D01*
X140366556Y-116593655D01*
X140341000Y-116689030D01*
X140341000Y-116787770D01*
X140366556Y-116883145D01*
X140415925Y-116968655D01*
X140435670Y-116988400D01*
X139616001Y-116988400D01*
X139616001Y-117413386D01*
X139626494Y-117516097D01*
X139681641Y-117682519D01*
X139681643Y-117682524D01*
X139773684Y-117831745D01*
X139897654Y-117955715D01*
X140046875Y-118047756D01*
X140046880Y-118047758D01*
X140213302Y-118102905D01*
X140213309Y-118102906D01*
X140316019Y-118113399D01*
X140465999Y-118113399D01*
X140466000Y-118113398D01*
X140466000Y-117018730D01*
X140485745Y-117038475D01*
X140571255Y-117087844D01*
X140666630Y-117113400D01*
X140765370Y-117113400D01*
X140860745Y-117087844D01*
X140946255Y-117038475D01*
X140966000Y-117018730D01*
X140966000Y-118113399D01*
X141115972Y-118113399D01*
X141115986Y-118113398D01*
X141218697Y-118102905D01*
X141385119Y-118047758D01*
X141385124Y-118047756D01*
X141534345Y-117955715D01*
X141658315Y-117831745D01*
X141697945Y-117767494D01*
X141749893Y-117720768D01*
X141818855Y-117709545D01*
X141882937Y-117737388D01*
X141891166Y-117744908D01*
X141999072Y-117852814D01*
X142139212Y-117954632D01*
X142293555Y-118033273D01*
X142458299Y-118086802D01*
X142629389Y-118113900D01*
X142629390Y-118113900D01*
X142802610Y-118113900D01*
X142802611Y-118113900D01*
X142973701Y-118086802D01*
X143138445Y-118033273D01*
X143292788Y-117954632D01*
X143432928Y-117852814D01*
X143555414Y-117730328D01*
X143615682Y-117647375D01*
X143671012Y-117604711D01*
X143740626Y-117598732D01*
X143802421Y-117631338D01*
X143816315Y-117647373D01*
X143876586Y-117730328D01*
X143999072Y-117852814D01*
X144139212Y-117954632D01*
X144293555Y-118033273D01*
X144458299Y-118086802D01*
X144629389Y-118113900D01*
X144629390Y-118113900D01*
X144802610Y-118113900D01*
X144802611Y-118113900D01*
X144973701Y-118086802D01*
X145138445Y-118033273D01*
X145292788Y-117954632D01*
X145432928Y-117852814D01*
X145555414Y-117730328D01*
X145615682Y-117647375D01*
X145671012Y-117604711D01*
X145740626Y-117598732D01*
X145802421Y-117631338D01*
X145816315Y-117647373D01*
X145876586Y-117730328D01*
X145999072Y-117852814D01*
X146139212Y-117954632D01*
X146293555Y-118033273D01*
X146458299Y-118086802D01*
X146629389Y-118113900D01*
X146629390Y-118113900D01*
X146802610Y-118113900D01*
X146802611Y-118113900D01*
X146973701Y-118086802D01*
X147138445Y-118033273D01*
X147292788Y-117954632D01*
X147432928Y-117852814D01*
X147555414Y-117730328D01*
X147657232Y-117590188D01*
X147735873Y-117435845D01*
X147789402Y-117271101D01*
X147816500Y-117100011D01*
X147816500Y-116376789D01*
X147789402Y-116205699D01*
X147735873Y-116040955D01*
X147657232Y-115886612D01*
X147555414Y-115746472D01*
X147432928Y-115623986D01*
X147292788Y-115522168D01*
X147290661Y-115521084D01*
X147138446Y-115443527D01*
X147120808Y-115437796D01*
X147063133Y-115398357D01*
X147035937Y-115333997D01*
X147047853Y-115265151D01*
X147071445Y-115232188D01*
X148553234Y-113750399D01*
X148614555Y-113716916D01*
X148684247Y-113721900D01*
X148740180Y-113763772D01*
X148764597Y-113829236D01*
X148764912Y-113837603D01*
X148794656Y-121541330D01*
X148794657Y-121541340D01*
X148815587Y-121696846D01*
X148815587Y-121696848D01*
X148815588Y-121696849D01*
X148872892Y-121834443D01*
X148876359Y-121842767D01*
X148876359Y-121842768D01*
X148972826Y-121967985D01*
X149133549Y-122128088D01*
X149661274Y-122653779D01*
X149785850Y-122749178D01*
X149931885Y-122809668D01*
X150088600Y-122830300D01*
X151826109Y-122830300D01*
X151893148Y-122849985D01*
X151938903Y-122902789D01*
X151949048Y-122970487D01*
X151946900Y-122986794D01*
X151946900Y-129184407D01*
X151967532Y-129341114D01*
X151967532Y-129341115D01*
X152028020Y-129487147D01*
X152028021Y-129487149D01*
X152028022Y-129487150D01*
X152124247Y-129612553D01*
X152249650Y-129708778D01*
X152249651Y-129708778D01*
X152249652Y-129708779D01*
X152260748Y-129713375D01*
X152395685Y-129769268D01*
X152544472Y-129788856D01*
X152551632Y-129789799D01*
X152552400Y-129789900D01*
X152552407Y-129789900D01*
X155854382Y-129789900D01*
X155854400Y-129789900D01*
X155865407Y-129789800D01*
X156021721Y-129766323D01*
X156133889Y-129717453D01*
X156203208Y-129708723D01*
X156230862Y-129716570D01*
X156358085Y-129769268D01*
X156506872Y-129788856D01*
X156514032Y-129789799D01*
X156514800Y-129789900D01*
X156514807Y-129789900D01*
X159969203Y-129789900D01*
X160116900Y-129771610D01*
X160263844Y-129713375D01*
X160263845Y-129713374D01*
X160263844Y-129713374D01*
X160263848Y-129713373D01*
X160390716Y-129619089D01*
X160430599Y-129568734D01*
X160487652Y-129528405D01*
X160557454Y-129525322D01*
X160617841Y-129560467D01*
X160626177Y-129570238D01*
X160658644Y-129612550D01*
X160658645Y-129612551D01*
X160658647Y-129612553D01*
X160784050Y-129708778D01*
X160784051Y-129708778D01*
X160784052Y-129708779D01*
X160795148Y-129713375D01*
X160930085Y-129769268D01*
X161078872Y-129788856D01*
X161086032Y-129789799D01*
X161086800Y-129789900D01*
X161086807Y-129789900D01*
X164490393Y-129789900D01*
X164490400Y-129789900D01*
X164647115Y-129769268D01*
X164793150Y-129708778D01*
X164846714Y-129667677D01*
X164911883Y-129642483D01*
X164980328Y-129656521D01*
X164997686Y-129667677D01*
X165051178Y-129708723D01*
X165051249Y-129708777D01*
X165051252Y-129708779D01*
X165062348Y-129713375D01*
X165197285Y-129769268D01*
X165346072Y-129788856D01*
X165353232Y-129789799D01*
X165354000Y-129789900D01*
X165354007Y-129789900D01*
X169011603Y-129789900D01*
X169159300Y-129771610D01*
X169306244Y-129713375D01*
X169306245Y-129713374D01*
X169306244Y-129713374D01*
X169306248Y-129713373D01*
X169433116Y-129619089D01*
X169531259Y-129495181D01*
X169593988Y-129350093D01*
X169617028Y-129193714D01*
X169667828Y-125891714D01*
X169667087Y-125851036D01*
X169638365Y-125695600D01*
X169333565Y-124755800D01*
X169332983Y-124754013D01*
X169264567Y-124611519D01*
X168451767Y-123366919D01*
X168451759Y-123366909D01*
X168451756Y-123366904D01*
X168422572Y-123329462D01*
X168389658Y-123287231D01*
X168268185Y-123186090D01*
X168124676Y-123119834D01*
X163993064Y-121834443D01*
X163934898Y-121795732D01*
X163906895Y-121731720D01*
X163905900Y-121716041D01*
X163905900Y-120750848D01*
X165272700Y-120750848D01*
X165272700Y-120955551D01*
X165304722Y-121157734D01*
X165367981Y-121352423D01*
X165460915Y-121534813D01*
X165581228Y-121700413D01*
X165725986Y-121845171D01*
X165880949Y-121957756D01*
X165891590Y-121965487D01*
X166007807Y-122024703D01*
X166073976Y-122058418D01*
X166073978Y-122058418D01*
X166073981Y-122058420D01*
X166178337Y-122092327D01*
X166268665Y-122121677D01*
X166309149Y-122128089D01*
X166470848Y-122153700D01*
X166470849Y-122153700D01*
X166675551Y-122153700D01*
X166675552Y-122153700D01*
X166877734Y-122121677D01*
X167072419Y-122058420D01*
X167254810Y-121965487D01*
X167415280Y-121848900D01*
X167420413Y-121845171D01*
X167420415Y-121845168D01*
X167420419Y-121845166D01*
X167565166Y-121700419D01*
X167565168Y-121700415D01*
X167565171Y-121700413D01*
X167617932Y-121627790D01*
X167685487Y-121534810D01*
X167778420Y-121352419D01*
X167841677Y-121157734D01*
X167873700Y-120955552D01*
X167873700Y-120750848D01*
X168371500Y-120750848D01*
X168371500Y-120955551D01*
X168403522Y-121157734D01*
X168466781Y-121352423D01*
X168559715Y-121534813D01*
X168680028Y-121700413D01*
X168824786Y-121845171D01*
X168979749Y-121957756D01*
X168990390Y-121965487D01*
X169106607Y-122024703D01*
X169172776Y-122058418D01*
X169172778Y-122058418D01*
X169172781Y-122058420D01*
X169277137Y-122092327D01*
X169367465Y-122121677D01*
X169407949Y-122128089D01*
X169569648Y-122153700D01*
X169569649Y-122153700D01*
X169774351Y-122153700D01*
X169774352Y-122153700D01*
X169976534Y-122121677D01*
X170171219Y-122058420D01*
X170353610Y-121965487D01*
X170514080Y-121848900D01*
X170519213Y-121845171D01*
X170519215Y-121845168D01*
X170519219Y-121845166D01*
X170663966Y-121700419D01*
X170663968Y-121700415D01*
X170663971Y-121700413D01*
X170716732Y-121627790D01*
X170784287Y-121534810D01*
X170877220Y-121352419D01*
X170940477Y-121157734D01*
X170972500Y-120955552D01*
X170972500Y-120750848D01*
X170956646Y-120650751D01*
X170940477Y-120548665D01*
X170918002Y-120479495D01*
X170907134Y-120446048D01*
X171571900Y-120446048D01*
X171571900Y-120650751D01*
X171603922Y-120852934D01*
X171667181Y-121047623D01*
X171760115Y-121230013D01*
X171880428Y-121395613D01*
X172025186Y-121540371D01*
X172180149Y-121652956D01*
X172190790Y-121660687D01*
X172299428Y-121716041D01*
X172373176Y-121753618D01*
X172373178Y-121753618D01*
X172373181Y-121753620D01*
X172477537Y-121787527D01*
X172567865Y-121816877D01*
X172668957Y-121832888D01*
X172770048Y-121848900D01*
X172770049Y-121848900D01*
X172974751Y-121848900D01*
X172974752Y-121848900D01*
X173176934Y-121816877D01*
X173371619Y-121753620D01*
X173554010Y-121660687D01*
X173646990Y-121593132D01*
X173719613Y-121540371D01*
X173719615Y-121540368D01*
X173719619Y-121540366D01*
X173864366Y-121395619D01*
X173864368Y-121395615D01*
X173864371Y-121395613D01*
X173917132Y-121322990D01*
X173984687Y-121230010D01*
X174077620Y-121047619D01*
X174140877Y-120852934D01*
X174172900Y-120650752D01*
X174172900Y-120513029D01*
X174192585Y-120445990D01*
X174209214Y-120425353D01*
X175919949Y-118714617D01*
X175981272Y-118681133D01*
X176007630Y-118678299D01*
X176207070Y-118678299D01*
X176207076Y-118678299D01*
X176308153Y-118667974D01*
X176471916Y-118613708D01*
X176618750Y-118523140D01*
X176740740Y-118401150D01*
X176831308Y-118254316D01*
X176885574Y-118090553D01*
X176895900Y-117989477D01*
X176895899Y-117316124D01*
X176891299Y-117271097D01*
X176885574Y-117215047D01*
X176872879Y-117176736D01*
X176831308Y-117051284D01*
X176740740Y-116904450D01*
X176701416Y-116865126D01*
X176667932Y-116803804D01*
X176672916Y-116734112D01*
X176701418Y-116689764D01*
X176740345Y-116650837D01*
X176740347Y-116650834D01*
X176830848Y-116504111D01*
X176830853Y-116504100D01*
X176885080Y-116340452D01*
X176895399Y-116239454D01*
X176895400Y-116239441D01*
X176895400Y-116152800D01*
X174945401Y-116152800D01*
X174945401Y-116239454D01*
X174955719Y-116340452D01*
X175009946Y-116504100D01*
X175009951Y-116504111D01*
X175100452Y-116650834D01*
X175100455Y-116650838D01*
X175139382Y-116689765D01*
X175172867Y-116751088D01*
X175167883Y-116820780D01*
X175139383Y-116865126D01*
X175100061Y-116904448D01*
X175009493Y-117051281D01*
X175009491Y-117051286D01*
X174993346Y-117100010D01*
X174955226Y-117215047D01*
X174955226Y-117215048D01*
X174955225Y-117215048D01*
X174944900Y-117316115D01*
X174944900Y-117515569D01*
X174925215Y-117582608D01*
X174908581Y-117603250D01*
X173269067Y-119242763D01*
X173207744Y-119276248D01*
X173161988Y-119277555D01*
X173007472Y-119253082D01*
X172974752Y-119247900D01*
X172770048Y-119247900D01*
X172745729Y-119251751D01*
X172567865Y-119279922D01*
X172373176Y-119343181D01*
X172190786Y-119436115D01*
X172025186Y-119556428D01*
X171880428Y-119701186D01*
X171760115Y-119866786D01*
X171667181Y-120049176D01*
X171603922Y-120243865D01*
X171571900Y-120446048D01*
X170907134Y-120446048D01*
X170877220Y-120353981D01*
X170877218Y-120353978D01*
X170877218Y-120353976D01*
X170827526Y-120256452D01*
X170784287Y-120171590D01*
X170762789Y-120142000D01*
X170663971Y-120005986D01*
X170519213Y-119861228D01*
X170353613Y-119740915D01*
X170353612Y-119740914D01*
X170353610Y-119740913D01*
X170296653Y-119711891D01*
X170171223Y-119647981D01*
X169976534Y-119584722D01*
X169797889Y-119556428D01*
X169774352Y-119552700D01*
X169569648Y-119552700D01*
X169546111Y-119556428D01*
X169367465Y-119584722D01*
X169172776Y-119647981D01*
X168990386Y-119740915D01*
X168824786Y-119861228D01*
X168680028Y-120005986D01*
X168559715Y-120171586D01*
X168466781Y-120353976D01*
X168403522Y-120548665D01*
X168371500Y-120750848D01*
X167873700Y-120750848D01*
X167857846Y-120650751D01*
X167841677Y-120548665D01*
X167808334Y-120446048D01*
X167778420Y-120353981D01*
X167778418Y-120353978D01*
X167778418Y-120353976D01*
X167728726Y-120256452D01*
X167685487Y-120171590D01*
X167663989Y-120142000D01*
X167565171Y-120005986D01*
X167420413Y-119861228D01*
X167254813Y-119740915D01*
X167254812Y-119740914D01*
X167254810Y-119740913D01*
X167197853Y-119711891D01*
X167072423Y-119647981D01*
X166877734Y-119584722D01*
X166699089Y-119556428D01*
X166675552Y-119552700D01*
X166470848Y-119552700D01*
X166447311Y-119556428D01*
X166268665Y-119584722D01*
X166073976Y-119647981D01*
X165891586Y-119740915D01*
X165725986Y-119861228D01*
X165581228Y-120005986D01*
X165460915Y-120171586D01*
X165367981Y-120353976D01*
X165304722Y-120548665D01*
X165272700Y-120750848D01*
X163905900Y-120750848D01*
X163905900Y-120445113D01*
X163905899Y-120445098D01*
X163902998Y-120408232D01*
X163902997Y-120408226D01*
X163858902Y-120256452D01*
X163859101Y-120186583D01*
X163878797Y-120156015D01*
X163880799Y-120142000D01*
X163880800Y-120142000D01*
X163931600Y-119786400D01*
X163931600Y-115566145D01*
X174945400Y-115566145D01*
X174945400Y-115652800D01*
X175670400Y-115652800D01*
X176170400Y-115652800D01*
X176895399Y-115652800D01*
X176895399Y-115566160D01*
X176895398Y-115566145D01*
X176885080Y-115465147D01*
X176830853Y-115301499D01*
X176830848Y-115301488D01*
X176740347Y-115154765D01*
X176740344Y-115154761D01*
X176618438Y-115032855D01*
X176618434Y-115032852D01*
X176471711Y-114942351D01*
X176471700Y-114942346D01*
X176308052Y-114888119D01*
X176207054Y-114877800D01*
X176170400Y-114877800D01*
X176170400Y-115652800D01*
X175670400Y-115652800D01*
X175670400Y-114877800D01*
X175633761Y-114877800D01*
X175633743Y-114877801D01*
X175532747Y-114888119D01*
X175369099Y-114942346D01*
X175369088Y-114942351D01*
X175222365Y-115032852D01*
X175222361Y-115032855D01*
X175100455Y-115154761D01*
X175100452Y-115154765D01*
X175009951Y-115301488D01*
X175009946Y-115301499D01*
X174955719Y-115465147D01*
X174945400Y-115566145D01*
X163931600Y-115566145D01*
X163931600Y-113130882D01*
X165273200Y-113130882D01*
X165273200Y-113335517D01*
X165305209Y-113537617D01*
X165368444Y-113732231D01*
X165461341Y-113914550D01*
X165461347Y-113914559D01*
X165493723Y-113959121D01*
X165493724Y-113959122D01*
X166173200Y-113279646D01*
X166173200Y-113285861D01*
X166200459Y-113387594D01*
X166253120Y-113478806D01*
X166327594Y-113553280D01*
X166418806Y-113605941D01*
X166520539Y-113633200D01*
X166526753Y-113633200D01*
X165847276Y-114312674D01*
X165891850Y-114345059D01*
X166074168Y-114437955D01*
X166268782Y-114501190D01*
X166470883Y-114533200D01*
X166675517Y-114533200D01*
X166877617Y-114501190D01*
X167072231Y-114437955D01*
X167254549Y-114345059D01*
X167299121Y-114312674D01*
X166619647Y-113633200D01*
X166625861Y-113633200D01*
X166727594Y-113605941D01*
X166818806Y-113553280D01*
X166893280Y-113478806D01*
X166945941Y-113387594D01*
X166973200Y-113285861D01*
X166973200Y-113279647D01*
X167652674Y-113959121D01*
X167685059Y-113914549D01*
X167777955Y-113732231D01*
X167841190Y-113537617D01*
X167873200Y-113335517D01*
X167873200Y-113130882D01*
X168372000Y-113130882D01*
X168372000Y-113335517D01*
X168404009Y-113537617D01*
X168467244Y-113732231D01*
X168560141Y-113914550D01*
X168560147Y-113914559D01*
X168592523Y-113959121D01*
X168592524Y-113959122D01*
X169272000Y-113279646D01*
X169272000Y-113285861D01*
X169299259Y-113387594D01*
X169351920Y-113478806D01*
X169426394Y-113553280D01*
X169517606Y-113605941D01*
X169619339Y-113633200D01*
X169625553Y-113633200D01*
X168946076Y-114312674D01*
X168990650Y-114345059D01*
X169172968Y-114437955D01*
X169367582Y-114501190D01*
X169569683Y-114533200D01*
X169774317Y-114533200D01*
X169976417Y-114501190D01*
X170171031Y-114437955D01*
X170353349Y-114345059D01*
X170397921Y-114312674D01*
X169718447Y-113633200D01*
X169724661Y-113633200D01*
X169826394Y-113605941D01*
X169917606Y-113553280D01*
X169992080Y-113478806D01*
X170044741Y-113387594D01*
X170072000Y-113285861D01*
X170072000Y-113279647D01*
X170751474Y-113959121D01*
X170783859Y-113914549D01*
X170876755Y-113732231D01*
X170939990Y-113537617D01*
X170972000Y-113335517D01*
X170972000Y-113130882D01*
X170939990Y-112928782D01*
X170876755Y-112734168D01*
X170783859Y-112551850D01*
X170751474Y-112507277D01*
X170751474Y-112507276D01*
X170072000Y-113186751D01*
X170072000Y-113180539D01*
X170044741Y-113078806D01*
X169992080Y-112987594D01*
X169917606Y-112913120D01*
X169826394Y-112860459D01*
X169724661Y-112833200D01*
X169718446Y-112833200D01*
X170397922Y-112153724D01*
X170397921Y-112153723D01*
X170353359Y-112121347D01*
X170353350Y-112121341D01*
X170171031Y-112028444D01*
X169976417Y-111965209D01*
X169774317Y-111933200D01*
X169569683Y-111933200D01*
X169367582Y-111965209D01*
X169172968Y-112028444D01*
X168990644Y-112121343D01*
X168946077Y-112153723D01*
X168946077Y-112153724D01*
X169625554Y-112833200D01*
X169619339Y-112833200D01*
X169517606Y-112860459D01*
X169426394Y-112913120D01*
X169351920Y-112987594D01*
X169299259Y-113078806D01*
X169272000Y-113180539D01*
X169272000Y-113186753D01*
X168592524Y-112507277D01*
X168592523Y-112507277D01*
X168560143Y-112551844D01*
X168467244Y-112734168D01*
X168404009Y-112928782D01*
X168372000Y-113130882D01*
X167873200Y-113130882D01*
X167841190Y-112928782D01*
X167777955Y-112734168D01*
X167685059Y-112551850D01*
X167652674Y-112507277D01*
X167652674Y-112507276D01*
X166973200Y-113186751D01*
X166973200Y-113180539D01*
X166945941Y-113078806D01*
X166893280Y-112987594D01*
X166818806Y-112913120D01*
X166727594Y-112860459D01*
X166625861Y-112833200D01*
X166619646Y-112833200D01*
X167299122Y-112153724D01*
X167299121Y-112153723D01*
X167254559Y-112121347D01*
X167254550Y-112121341D01*
X167072231Y-112028444D01*
X166877617Y-111965209D01*
X166675517Y-111933200D01*
X166470883Y-111933200D01*
X166268782Y-111965209D01*
X166074168Y-112028444D01*
X165891844Y-112121343D01*
X165847277Y-112153723D01*
X165847277Y-112153724D01*
X166526754Y-112833200D01*
X166520539Y-112833200D01*
X166418806Y-112860459D01*
X166327594Y-112913120D01*
X166253120Y-112987594D01*
X166200459Y-113078806D01*
X166173200Y-113180539D01*
X166173200Y-113186753D01*
X165493724Y-112507277D01*
X165493723Y-112507277D01*
X165461343Y-112551844D01*
X165368444Y-112734168D01*
X165305209Y-112928782D01*
X165273200Y-113130882D01*
X163931600Y-113130882D01*
X163931600Y-109697404D01*
X163951285Y-109630365D01*
X163957798Y-109621176D01*
X164066426Y-109481805D01*
X165500800Y-107641475D01*
X165557536Y-107600702D01*
X165627311Y-107597075D01*
X165687971Y-107631747D01*
X165720256Y-107693710D01*
X165722600Y-107717705D01*
X165722600Y-108498200D01*
X166795369Y-108498200D01*
X166772600Y-108641953D01*
X166772600Y-108854447D01*
X166795369Y-108998200D01*
X165722600Y-108998200D01*
X165722600Y-109952919D01*
X165733082Y-110086106D01*
X165733083Y-110086112D01*
X165788498Y-110306029D01*
X165788499Y-110306032D01*
X165882295Y-110512530D01*
X165882298Y-110512536D01*
X166011451Y-110698958D01*
X166011461Y-110698970D01*
X166171829Y-110859338D01*
X166171841Y-110859348D01*
X166358263Y-110988501D01*
X166358269Y-110988504D01*
X166564767Y-111082300D01*
X166564770Y-111082301D01*
X166784687Y-111137716D01*
X166784693Y-111137717D01*
X166917880Y-111148199D01*
X166917894Y-111148200D01*
X167872600Y-111148200D01*
X167872600Y-110075431D01*
X168016353Y-110098200D01*
X168228847Y-110098200D01*
X168372600Y-110075431D01*
X168372600Y-111148200D01*
X169327306Y-111148200D01*
X169327319Y-111148199D01*
X169460506Y-111137717D01*
X169460512Y-111137716D01*
X169680427Y-111082302D01*
X169797852Y-111028965D01*
X169867031Y-111019162D01*
X169930527Y-111048316D01*
X169936815Y-111054183D01*
X171545926Y-112663293D01*
X171579411Y-112724616D01*
X171580718Y-112770371D01*
X171571900Y-112826047D01*
X171571900Y-113030751D01*
X171603922Y-113232934D01*
X171667181Y-113427623D01*
X171710112Y-113511878D01*
X171757702Y-113605279D01*
X171760115Y-113610013D01*
X171880428Y-113775613D01*
X172025186Y-113920371D01*
X172180149Y-114032956D01*
X172190790Y-114040687D01*
X172285649Y-114089020D01*
X172373176Y-114133618D01*
X172373178Y-114133618D01*
X172373181Y-114133620D01*
X172447566Y-114157789D01*
X172567865Y-114196877D01*
X172588890Y-114200207D01*
X172770048Y-114228900D01*
X172770049Y-114228900D01*
X172974751Y-114228900D01*
X172974752Y-114228900D01*
X173176934Y-114196877D01*
X173371619Y-114133620D01*
X173554010Y-114040687D01*
X173666277Y-113959121D01*
X173719613Y-113920371D01*
X173719615Y-113920368D01*
X173719619Y-113920366D01*
X173864366Y-113775619D01*
X173864368Y-113775615D01*
X173864371Y-113775613D01*
X173928683Y-113687094D01*
X173984687Y-113610010D01*
X174077620Y-113427619D01*
X174140877Y-113232934D01*
X174172900Y-113030752D01*
X174172900Y-112826048D01*
X174172900Y-112826047D01*
X174140877Y-112623865D01*
X174102995Y-112507276D01*
X174077620Y-112429181D01*
X174077618Y-112429178D01*
X174077618Y-112429176D01*
X174034240Y-112344044D01*
X173984687Y-112246790D01*
X173945701Y-112193130D01*
X173864371Y-112081186D01*
X173719613Y-111936428D01*
X173554013Y-111816115D01*
X173554012Y-111816114D01*
X173554010Y-111816113D01*
X173478764Y-111777773D01*
X173371623Y-111723181D01*
X173176934Y-111659922D01*
X173002395Y-111632278D01*
X172974752Y-111627900D01*
X172770048Y-111627900D01*
X172714371Y-111636718D01*
X172645078Y-111627763D01*
X172607293Y-111601926D01*
X171260419Y-110255051D01*
X171226934Y-110193728D01*
X171224100Y-110167370D01*
X171224100Y-106544931D01*
X171243785Y-106477892D01*
X171296589Y-106432137D01*
X171346869Y-106420937D01*
X172356568Y-106410940D01*
X172423797Y-106429960D01*
X172470073Y-106482308D01*
X172480701Y-106551365D01*
X172452306Y-106615205D01*
X172445476Y-106622615D01*
X172285256Y-106782835D01*
X172285251Y-106782841D01*
X172156098Y-106969263D01*
X172156095Y-106969269D01*
X172062299Y-107175767D01*
X172062298Y-107175770D01*
X172006883Y-107395687D01*
X172006882Y-107395693D01*
X171996400Y-107528880D01*
X171996400Y-108483600D01*
X173069169Y-108483600D01*
X173046400Y-108627353D01*
X173046400Y-108839847D01*
X173069169Y-108983600D01*
X171996400Y-108983600D01*
X171996400Y-109938319D01*
X172006882Y-110071506D01*
X172006883Y-110071512D01*
X172062298Y-110291429D01*
X172062299Y-110291432D01*
X172156095Y-110497930D01*
X172156098Y-110497936D01*
X172285251Y-110684358D01*
X172285261Y-110684370D01*
X172445629Y-110844738D01*
X172445641Y-110844748D01*
X172632063Y-110973901D01*
X172632069Y-110973904D01*
X172838567Y-111067700D01*
X172838570Y-111067701D01*
X173058487Y-111123116D01*
X173058493Y-111123117D01*
X173191680Y-111133599D01*
X173191694Y-111133600D01*
X174146400Y-111133600D01*
X174146400Y-110060831D01*
X174290153Y-110083600D01*
X174502647Y-110083600D01*
X174646400Y-110060831D01*
X174646400Y-111133600D01*
X175601106Y-111133600D01*
X175601119Y-111133599D01*
X175734306Y-111123117D01*
X175734312Y-111123116D01*
X175954229Y-111067701D01*
X175954232Y-111067700D01*
X176160730Y-110973904D01*
X176160736Y-110973901D01*
X176347158Y-110844748D01*
X176347170Y-110844738D01*
X176507538Y-110684370D01*
X176507548Y-110684358D01*
X176636701Y-110497936D01*
X176636704Y-110497930D01*
X176730500Y-110291432D01*
X176730501Y-110291429D01*
X176785916Y-110071512D01*
X176785917Y-110071506D01*
X176796399Y-109938319D01*
X176796400Y-109938306D01*
X176796400Y-108983600D01*
X175723631Y-108983600D01*
X175746400Y-108839847D01*
X175746400Y-108627353D01*
X175723631Y-108483600D01*
X176796400Y-108483600D01*
X176796400Y-107528893D01*
X176796399Y-107528880D01*
X176785917Y-107395693D01*
X176785916Y-107395687D01*
X176730501Y-107175770D01*
X176730500Y-107175767D01*
X176636704Y-106969269D01*
X176636701Y-106969263D01*
X176507548Y-106782841D01*
X176507538Y-106782829D01*
X176347170Y-106622461D01*
X176347165Y-106622457D01*
X176310463Y-106597030D01*
X176266567Y-106542671D01*
X176259027Y-106473209D01*
X176290238Y-106410698D01*
X176350290Y-106374984D01*
X176379864Y-106371107D01*
X176383513Y-106371071D01*
X176383799Y-106371067D01*
X176386249Y-106371038D01*
X176386257Y-106371036D01*
X176386267Y-106371036D01*
X176513262Y-106352467D01*
X176542653Y-106348170D01*
X176687809Y-106285600D01*
X176811825Y-106187594D01*
X176906249Y-106060829D01*
X176964647Y-105913945D01*
X176964647Y-105913943D01*
X176966330Y-105909711D01*
X177009390Y-105854687D01*
X177075362Y-105831678D01*
X177143301Y-105847989D01*
G37*
%TD.AperFunction*%
%TA.AperFunction,Conductor*%
G36*
X135286702Y-110703785D02*
G01*
X135307344Y-110720419D01*
X136319981Y-111733056D01*
X136353466Y-111794379D01*
X136356300Y-111820737D01*
X136356300Y-115216102D01*
X136336615Y-115283141D01*
X136319981Y-115303783D01*
X135483833Y-116139930D01*
X135422510Y-116173415D01*
X135352818Y-116168431D01*
X135323267Y-116152567D01*
X135206206Y-116067518D01*
X135163540Y-116012189D01*
X135157561Y-115942575D01*
X135190166Y-115880780D01*
X135206199Y-115866886D01*
X135370792Y-115747304D01*
X135521104Y-115596992D01*
X135521106Y-115596988D01*
X135521109Y-115596986D01*
X135646048Y-115425020D01*
X135646047Y-115425020D01*
X135646051Y-115425016D01*
X135742557Y-115235612D01*
X135808246Y-115033443D01*
X135841500Y-114823487D01*
X135841500Y-114610913D01*
X135808246Y-114400957D01*
X135742557Y-114198788D01*
X135646051Y-114009384D01*
X135646049Y-114009381D01*
X135646048Y-114009379D01*
X135521109Y-113837413D01*
X135370790Y-113687094D01*
X135370785Y-113687090D01*
X135205781Y-113567208D01*
X135163115Y-113511878D01*
X135157136Y-113442265D01*
X135189741Y-113380470D01*
X135205781Y-113366571D01*
X135370466Y-113246921D01*
X135520723Y-113096664D01*
X135520727Y-113096659D01*
X135645620Y-112924757D01*
X135742095Y-112735417D01*
X135807757Y-112533329D01*
X135807757Y-112533326D01*
X135818231Y-112467200D01*
X134770146Y-112467200D01*
X134808630Y-112400543D01*
X134841000Y-112279735D01*
X134841000Y-112154665D01*
X134808630Y-112033857D01*
X134770146Y-111967200D01*
X135818231Y-111967200D01*
X135807757Y-111901073D01*
X135807757Y-111901070D01*
X135742095Y-111698982D01*
X135645620Y-111509642D01*
X135520727Y-111337740D01*
X135520723Y-111337735D01*
X135370464Y-111187476D01*
X135370459Y-111187472D01*
X135198557Y-111062579D01*
X135009217Y-110966104D01*
X134885883Y-110926031D01*
X134828208Y-110886594D01*
X134801009Y-110822235D01*
X134812923Y-110753389D01*
X134860167Y-110701913D01*
X134924201Y-110684100D01*
X135219663Y-110684100D01*
X135286702Y-110703785D01*
G37*
%TD.AperFunction*%
%TA.AperFunction,Conductor*%
G36*
X131060000Y-108540983D02*
G01*
X131102716Y-108534218D01*
X131289837Y-108473418D01*
X131465144Y-108384095D01*
X131553981Y-108319549D01*
X131586106Y-108308086D01*
X131618006Y-108296183D01*
X131618912Y-108296380D01*
X131619787Y-108296068D01*
X131652998Y-108303790D01*
X131686281Y-108311026D01*
X131687256Y-108311756D01*
X131687841Y-108311892D01*
X131699357Y-108320640D01*
X131699454Y-108320495D01*
X131699457Y-108320497D01*
X131703104Y-108323486D01*
X131714538Y-108332173D01*
X131718345Y-108335980D01*
X131718346Y-108335982D01*
X131718349Y-108335985D01*
X131718355Y-108335990D01*
X133830339Y-110447974D01*
X133830349Y-110447985D01*
X133834679Y-110452315D01*
X133834680Y-110452316D01*
X133946484Y-110564120D01*
X134033295Y-110614239D01*
X134083415Y-110643177D01*
X134086410Y-110643979D01*
X134095798Y-110649238D01*
X134115320Y-110669186D01*
X134137055Y-110686701D01*
X134139422Y-110693814D01*
X134144667Y-110699173D01*
X134150304Y-110726507D01*
X134159121Y-110752994D01*
X134157266Y-110760260D01*
X134158781Y-110767603D01*
X134148746Y-110793645D01*
X134141843Y-110820694D01*
X134136354Y-110825803D01*
X134133659Y-110832800D01*
X134111133Y-110849286D01*
X134090706Y-110868305D01*
X134080804Y-110871483D01*
X134077277Y-110874065D01*
X134071708Y-110874402D01*
X134054598Y-110879895D01*
X133924872Y-110900442D01*
X133924869Y-110900442D01*
X133722782Y-110966104D01*
X133533442Y-111062579D01*
X133361540Y-111187472D01*
X133361535Y-111187476D01*
X133211276Y-111337735D01*
X133211272Y-111337740D01*
X133086379Y-111509642D01*
X132989904Y-111698982D01*
X132924242Y-111901070D01*
X132924242Y-111901073D01*
X132913769Y-111967200D01*
X133961854Y-111967200D01*
X133923370Y-112033857D01*
X133891000Y-112154665D01*
X133891000Y-112279735D01*
X133923370Y-112400543D01*
X133961854Y-112467200D01*
X132913769Y-112467200D01*
X132924242Y-112533326D01*
X132924242Y-112533329D01*
X132989904Y-112735417D01*
X133086379Y-112924757D01*
X133211272Y-113096659D01*
X133211276Y-113096664D01*
X133361535Y-113246923D01*
X133361540Y-113246927D01*
X133526218Y-113366572D01*
X133543332Y-113388766D01*
X133562902Y-113408833D01*
X133564379Y-113416059D01*
X133568884Y-113421901D01*
X133571282Y-113449828D01*
X133576896Y-113477287D01*
X133574231Y-113484165D01*
X133574863Y-113491515D01*
X133561782Y-113516305D01*
X133551660Y-113542440D01*
X133544120Y-113549779D01*
X133542258Y-113553310D01*
X133526392Y-113567082D01*
X133525773Y-113567532D01*
X133361208Y-113687096D01*
X133359593Y-113688710D01*
X133353859Y-113692892D01*
X133325280Y-113703144D01*
X133297581Y-113715559D01*
X133289060Y-113716138D01*
X133288094Y-113716485D01*
X133287153Y-113716268D01*
X133280800Y-113716700D01*
X131405783Y-113716700D01*
X131338744Y-113697015D01*
X131318102Y-113680381D01*
X130939784Y-113302063D01*
X130939780Y-113302060D01*
X130775920Y-113192572D01*
X130775910Y-113192567D01*
X130593836Y-113117149D01*
X130593828Y-113117147D01*
X130511733Y-113100817D01*
X130449822Y-113068432D01*
X130415247Y-113007716D01*
X130418987Y-112937947D01*
X130459854Y-112881275D01*
X130511730Y-112857583D01*
X130593836Y-112841252D01*
X130775914Y-112765832D01*
X130939782Y-112656340D01*
X131079140Y-112516982D01*
X131188632Y-112353114D01*
X131264052Y-112171036D01*
X131302500Y-111977741D01*
X131302500Y-111780660D01*
X131264052Y-111587365D01*
X131188632Y-111405286D01*
X131188631Y-111405285D01*
X131185759Y-111399911D01*
X131187174Y-111399154D01*
X131168621Y-111339912D01*
X131187102Y-111272531D01*
X131239078Y-111225838D01*
X131253598Y-111219986D01*
X131322198Y-111197254D01*
X131322211Y-111197248D01*
X131468934Y-111106747D01*
X131468938Y-111106744D01*
X131590844Y-110984838D01*
X131590847Y-110984834D01*
X131681348Y-110838111D01*
X131681353Y-110838100D01*
X131735580Y-110674452D01*
X131745899Y-110573454D01*
X131745900Y-110573441D01*
X131745900Y-110536800D01*
X130832400Y-110536800D01*
X130765361Y-110517115D01*
X130719606Y-110464311D01*
X130708400Y-110412800D01*
X130708400Y-110286800D01*
X130582400Y-110286800D01*
X130515361Y-110267115D01*
X130469606Y-110214311D01*
X130458400Y-110162800D01*
X130458400Y-110036800D01*
X130958400Y-110036800D01*
X131745899Y-110036800D01*
X131745899Y-110000160D01*
X131745898Y-110000145D01*
X131735580Y-109899147D01*
X131681353Y-109735499D01*
X131681348Y-109735488D01*
X131590847Y-109588765D01*
X131590844Y-109588761D01*
X131468938Y-109466855D01*
X131468934Y-109466852D01*
X131322211Y-109376351D01*
X131322200Y-109376346D01*
X131158552Y-109322119D01*
X131057554Y-109311800D01*
X130958400Y-109311800D01*
X130958400Y-110036800D01*
X130458400Y-110036800D01*
X130458400Y-109311799D01*
X130359260Y-109311800D01*
X130359244Y-109311801D01*
X130258246Y-109322119D01*
X130095003Y-109376212D01*
X130025175Y-109378614D01*
X129965133Y-109342882D01*
X129933941Y-109280361D01*
X129932000Y-109258506D01*
X129932000Y-108465544D01*
X129951685Y-108398505D01*
X130004489Y-108352750D01*
X130073647Y-108342806D01*
X130128887Y-108365227D01*
X130154855Y-108384095D01*
X130330162Y-108473418D01*
X130517283Y-108534218D01*
X130560000Y-108540984D01*
X130560000Y-107690277D01*
X130636306Y-107734333D01*
X130750756Y-107765000D01*
X130869244Y-107765000D01*
X130983694Y-107734333D01*
X131060000Y-107690277D01*
X131060000Y-108540983D01*
G37*
%TD.AperFunction*%
%TA.AperFunction,Conductor*%
G36*
X129611445Y-92508732D02*
G01*
X129650485Y-92553787D01*
X129740474Y-92730403D01*
X129775234Y-92778246D01*
X129856172Y-92889646D01*
X129995354Y-93028828D01*
X130154595Y-93144524D01*
X130237455Y-93186743D01*
X130329970Y-93233882D01*
X130329972Y-93233882D01*
X130329975Y-93233884D01*
X130422256Y-93263868D01*
X130517173Y-93294709D01*
X130711578Y-93325500D01*
X130711583Y-93325500D01*
X130908422Y-93325500D01*
X131107454Y-93293976D01*
X131176747Y-93302930D01*
X131214533Y-93328768D01*
X131443181Y-93557416D01*
X131476666Y-93618739D01*
X131479500Y-93645097D01*
X131479500Y-106050870D01*
X131459815Y-106117909D01*
X131407011Y-106163664D01*
X131337853Y-106173608D01*
X131299206Y-106161355D01*
X131289838Y-106156582D01*
X131102705Y-106095778D01*
X131060000Y-106089014D01*
X131060000Y-106939722D01*
X130983694Y-106895667D01*
X130869244Y-106865000D01*
X130750756Y-106865000D01*
X130636306Y-106895667D01*
X130560000Y-106939722D01*
X130560000Y-106089014D01*
X130559999Y-106089014D01*
X130517294Y-106095778D01*
X130330164Y-106156581D01*
X130154856Y-106245904D01*
X129995678Y-106361555D01*
X129856555Y-106500678D01*
X129740904Y-106659856D01*
X129650765Y-106836764D01*
X129602790Y-106887560D01*
X129534969Y-106904355D01*
X129468834Y-106881817D01*
X129429795Y-106836763D01*
X129339525Y-106659596D01*
X129312544Y-106622461D01*
X129223828Y-106500354D01*
X129084646Y-106361172D01*
X128925405Y-106245476D01*
X128917757Y-106241579D01*
X128750029Y-106156117D01*
X128562826Y-106095290D01*
X128368422Y-106064500D01*
X128368417Y-106064500D01*
X128171583Y-106064500D01*
X128171578Y-106064500D01*
X127977170Y-106095291D01*
X127972434Y-106096428D01*
X127902652Y-106092930D01*
X127845839Y-106052260D01*
X127820033Y-105987330D01*
X127819500Y-105975851D01*
X127819500Y-93426097D01*
X127828144Y-93396656D01*
X127834668Y-93366670D01*
X127838422Y-93361654D01*
X127839185Y-93359058D01*
X127855819Y-93338416D01*
X127865467Y-93328768D01*
X127926790Y-93295283D01*
X127972546Y-93293976D01*
X128171578Y-93325500D01*
X128171583Y-93325500D01*
X128368422Y-93325500D01*
X128562826Y-93294709D01*
X128565082Y-93293976D01*
X128750025Y-93233884D01*
X128925405Y-93144524D01*
X129084646Y-93028828D01*
X129223828Y-92889646D01*
X129339524Y-92730405D01*
X129428884Y-92555025D01*
X129429515Y-92553787D01*
X129477489Y-92502990D01*
X129545310Y-92486195D01*
X129611445Y-92508732D01*
G37*
%TD.AperFunction*%
%TA.AperFunction,Conductor*%
G36*
X165581465Y-79240498D02*
G01*
X165648501Y-79260183D01*
X165694256Y-79312987D01*
X165704487Y-79348981D01*
X166979599Y-89458799D01*
X166979600Y-89458800D01*
X169803338Y-90149047D01*
X169863786Y-90184087D01*
X169895694Y-90246245D01*
X169888931Y-90315787D01*
X169845645Y-90370633D01*
X169779578Y-90393370D01*
X169773894Y-90393500D01*
X169569648Y-90393500D01*
X169545329Y-90397351D01*
X169367465Y-90425522D01*
X169172776Y-90488781D01*
X168990386Y-90581715D01*
X168824786Y-90702028D01*
X168680028Y-90846786D01*
X168559715Y-91012386D01*
X168466781Y-91194776D01*
X168403522Y-91389465D01*
X168371500Y-91591648D01*
X168371500Y-91796351D01*
X168403522Y-91998534D01*
X168466781Y-92193223D01*
X168497138Y-92252800D01*
X168558104Y-92372453D01*
X168559715Y-92375613D01*
X168680028Y-92541213D01*
X168824786Y-92685971D01*
X168979749Y-92798556D01*
X168990390Y-92806287D01*
X169106607Y-92865503D01*
X169172776Y-92899218D01*
X169172778Y-92899218D01*
X169172781Y-92899220D01*
X169256623Y-92926462D01*
X169367465Y-92962477D01*
X169436070Y-92973343D01*
X169569648Y-92994500D01*
X169569649Y-92994500D01*
X169774351Y-92994500D01*
X169774352Y-92994500D01*
X169976534Y-92962477D01*
X170171219Y-92899220D01*
X170353610Y-92806287D01*
X170446590Y-92738732D01*
X170519213Y-92685971D01*
X170519215Y-92685968D01*
X170519219Y-92685966D01*
X170663966Y-92541219D01*
X170663968Y-92541215D01*
X170663971Y-92541213D01*
X170736236Y-92441747D01*
X170784287Y-92375610D01*
X170877220Y-92193219D01*
X170940477Y-91998534D01*
X170972500Y-91796352D01*
X170972500Y-91591648D01*
X170940477Y-91389466D01*
X170939522Y-91386528D01*
X170877218Y-91194776D01*
X170797572Y-91038464D01*
X170784287Y-91012390D01*
X170758938Y-90977500D01*
X170663971Y-90846786D01*
X170519213Y-90702028D01*
X170353613Y-90581715D01*
X170353612Y-90581714D01*
X170353610Y-90581713D01*
X170179103Y-90492797D01*
X170128307Y-90444822D01*
X170111512Y-90377001D01*
X170134049Y-90310866D01*
X170188765Y-90267415D01*
X170258286Y-90260443D01*
X170264843Y-90261859D01*
X175056716Y-91433205D01*
X175117163Y-91468245D01*
X175148898Y-91529516D01*
X176998790Y-100849280D01*
X176992534Y-100918869D01*
X176949649Y-100974029D01*
X176883750Y-100997247D01*
X176815759Y-100981151D01*
X176778788Y-100948909D01*
X176755737Y-100918869D01*
X176754953Y-100917847D01*
X176629550Y-100821622D01*
X176629549Y-100821621D01*
X176629547Y-100821620D01*
X176491706Y-100764525D01*
X176483515Y-100761132D01*
X176463925Y-100758553D01*
X176326807Y-100740500D01*
X176326800Y-100740500D01*
X170252330Y-100740500D01*
X170185291Y-100720815D01*
X170139536Y-100668011D01*
X170129592Y-100598853D01*
X170158617Y-100535297D01*
X170196035Y-100506015D01*
X170353349Y-100425859D01*
X170397921Y-100393474D01*
X169718447Y-99714000D01*
X169724661Y-99714000D01*
X169826394Y-99686741D01*
X169917606Y-99634080D01*
X169992080Y-99559606D01*
X170044741Y-99468394D01*
X170072000Y-99366661D01*
X170072000Y-99360447D01*
X170751474Y-100039921D01*
X170783859Y-99995349D01*
X170876755Y-99813031D01*
X170939990Y-99618417D01*
X170972000Y-99416317D01*
X170972000Y-99211682D01*
X170939990Y-99009582D01*
X170876755Y-98814968D01*
X170783859Y-98632650D01*
X170751474Y-98588077D01*
X170751474Y-98588076D01*
X170072000Y-99267551D01*
X170072000Y-99261339D01*
X170044741Y-99159606D01*
X169992080Y-99068394D01*
X169917606Y-98993920D01*
X169826394Y-98941259D01*
X169724661Y-98914000D01*
X169718446Y-98914000D01*
X170397922Y-98234524D01*
X170397921Y-98234523D01*
X170353359Y-98202147D01*
X170353350Y-98202141D01*
X170171031Y-98109244D01*
X169976417Y-98046009D01*
X169774317Y-98014000D01*
X169569683Y-98014000D01*
X169367582Y-98046009D01*
X169172968Y-98109244D01*
X168990644Y-98202143D01*
X168946077Y-98234523D01*
X168946077Y-98234524D01*
X169625554Y-98914000D01*
X169619339Y-98914000D01*
X169517606Y-98941259D01*
X169426394Y-98993920D01*
X169351920Y-99068394D01*
X169299259Y-99159606D01*
X169272000Y-99261339D01*
X169272000Y-99267553D01*
X168592524Y-98588077D01*
X168592523Y-98588077D01*
X168560143Y-98632644D01*
X168467244Y-98814968D01*
X168404009Y-99009582D01*
X168372000Y-99211682D01*
X168372000Y-99416317D01*
X168404009Y-99618417D01*
X168467244Y-99813031D01*
X168560141Y-99995350D01*
X168560147Y-99995359D01*
X168592523Y-100039921D01*
X168592524Y-100039922D01*
X169272000Y-99360446D01*
X169272000Y-99366661D01*
X169299259Y-99468394D01*
X169351920Y-99559606D01*
X169426394Y-99634080D01*
X169517606Y-99686741D01*
X169619339Y-99714000D01*
X169625553Y-99714000D01*
X168946076Y-100393474D01*
X168990650Y-100425859D01*
X169147965Y-100506015D01*
X169198761Y-100553989D01*
X169215556Y-100621810D01*
X169193019Y-100687945D01*
X169138304Y-100731397D01*
X169091670Y-100740500D01*
X167153530Y-100740500D01*
X167086491Y-100720815D01*
X167040736Y-100668011D01*
X167030792Y-100598853D01*
X167059817Y-100535297D01*
X167097235Y-100506015D01*
X167254549Y-100425859D01*
X167299121Y-100393474D01*
X166619647Y-99714000D01*
X166625861Y-99714000D01*
X166727594Y-99686741D01*
X166818806Y-99634080D01*
X166893280Y-99559606D01*
X166945941Y-99468394D01*
X166973200Y-99366661D01*
X166973200Y-99360447D01*
X167652674Y-100039921D01*
X167685059Y-99995349D01*
X167777955Y-99813031D01*
X167841190Y-99618417D01*
X167873200Y-99416317D01*
X167873200Y-99211682D01*
X167841190Y-99009582D01*
X167777955Y-98814968D01*
X167685059Y-98632650D01*
X167652674Y-98588077D01*
X167652674Y-98588076D01*
X166973200Y-99267551D01*
X166973200Y-99261339D01*
X166945941Y-99159606D01*
X166893280Y-99068394D01*
X166818806Y-98993920D01*
X166727594Y-98941259D01*
X166625861Y-98914000D01*
X166619646Y-98914000D01*
X167299122Y-98234524D01*
X167299121Y-98234523D01*
X167254559Y-98202147D01*
X167254550Y-98202141D01*
X167072231Y-98109244D01*
X166877617Y-98046009D01*
X166675517Y-98014000D01*
X166470883Y-98014000D01*
X166268781Y-98046010D01*
X166268778Y-98046010D01*
X166172618Y-98077255D01*
X166102777Y-98079250D01*
X166042944Y-98043169D01*
X166012116Y-97980468D01*
X166010300Y-97959324D01*
X166010300Y-93049200D01*
X166029985Y-92982161D01*
X166082789Y-92936406D01*
X166151947Y-92926462D01*
X166172614Y-92931267D01*
X166227518Y-92949107D01*
X166268665Y-92962477D01*
X166337270Y-92973343D01*
X166470848Y-92994500D01*
X166470849Y-92994500D01*
X166675551Y-92994500D01*
X166675552Y-92994500D01*
X166877734Y-92962477D01*
X167072419Y-92899220D01*
X167254810Y-92806287D01*
X167347790Y-92738732D01*
X167420413Y-92685971D01*
X167420415Y-92685968D01*
X167420419Y-92685966D01*
X167565166Y-92541219D01*
X167565168Y-92541215D01*
X167565171Y-92541213D01*
X167637436Y-92441747D01*
X167685487Y-92375610D01*
X167778420Y-92193219D01*
X167841677Y-91998534D01*
X167873700Y-91796352D01*
X167873700Y-91591648D01*
X167841677Y-91389466D01*
X167840722Y-91386528D01*
X167778418Y-91194776D01*
X167698772Y-91038464D01*
X167685487Y-91012390D01*
X167660138Y-90977500D01*
X167565171Y-90846786D01*
X167420413Y-90702028D01*
X167254813Y-90581715D01*
X167254812Y-90581714D01*
X167254810Y-90581713D01*
X167157353Y-90532056D01*
X167072423Y-90488781D01*
X166877734Y-90425522D01*
X166703195Y-90397878D01*
X166675552Y-90393500D01*
X166470848Y-90393500D01*
X166403454Y-90404174D01*
X166268664Y-90425523D01*
X166268661Y-90425523D01*
X166172618Y-90456730D01*
X166102777Y-90458725D01*
X166042944Y-90422644D01*
X166012116Y-90359943D01*
X166010300Y-90338799D01*
X166010300Y-90157306D01*
X166010299Y-90157292D01*
X166009213Y-90149047D01*
X165989668Y-90000585D01*
X165929178Y-89854550D01*
X165870887Y-89778583D01*
X165832954Y-89729148D01*
X165832948Y-89729141D01*
X165083658Y-88979851D01*
X165083651Y-88979845D01*
X164958250Y-88883622D01*
X164958247Y-88883620D01*
X164841212Y-88835143D01*
X164812215Y-88823132D01*
X164792625Y-88820553D01*
X164655507Y-88802500D01*
X164655500Y-88802500D01*
X163752810Y-88802500D01*
X163685771Y-88782815D01*
X163640016Y-88730011D01*
X163630072Y-88660853D01*
X163659097Y-88597297D01*
X163673034Y-88583569D01*
X163706639Y-88555329D01*
X164981549Y-87483953D01*
X165012615Y-87455961D01*
X165111014Y-87332256D01*
X165174044Y-87187299D01*
X165197408Y-87030968D01*
X165273673Y-82662168D01*
X165273765Y-82651600D01*
X165253133Y-82494885D01*
X165192643Y-82348850D01*
X165096418Y-82223447D01*
X164971015Y-82127222D01*
X164971014Y-82127221D01*
X164971012Y-82127220D01*
X164876609Y-82088117D01*
X164824980Y-82066732D01*
X164805390Y-82064153D01*
X164668272Y-82046100D01*
X164668265Y-82046100D01*
X161264665Y-82046100D01*
X161264657Y-82046100D01*
X161107946Y-82066732D01*
X161090000Y-82074166D01*
X161023896Y-82081271D01*
X161023819Y-82081861D01*
X161021387Y-82081540D01*
X161020531Y-82081633D01*
X161018306Y-82081135D01*
X160859054Y-82060168D01*
X160859047Y-82060168D01*
X157557047Y-82060168D01*
X157557039Y-82060168D01*
X157400332Y-82080800D01*
X157400331Y-82080800D01*
X157254299Y-82141288D01*
X157128894Y-82237515D01*
X157032667Y-82362920D01*
X156972179Y-82508952D01*
X156972179Y-82508953D01*
X156951547Y-82665660D01*
X156951547Y-86969596D01*
X156957690Y-87051800D01*
X156958274Y-87059604D01*
X156995005Y-87187296D01*
X157001972Y-87211514D01*
X157601958Y-88588211D01*
X157610696Y-88657532D01*
X157580570Y-88720573D01*
X157521143Y-88757319D01*
X157472100Y-88760691D01*
X157403812Y-88751701D01*
X157403804Y-88751700D01*
X157403800Y-88751700D01*
X157403793Y-88751700D01*
X156217466Y-88751700D01*
X156150427Y-88732015D01*
X156104672Y-88679211D01*
X156094728Y-88610053D01*
X156116776Y-88555329D01*
X156156513Y-88500041D01*
X156345293Y-88237392D01*
X156377996Y-88186750D01*
X156438486Y-88040715D01*
X156459118Y-87884000D01*
X156459118Y-82651600D01*
X156438486Y-82494885D01*
X156377996Y-82348850D01*
X156281771Y-82223447D01*
X156156368Y-82127222D01*
X156156367Y-82127221D01*
X156156365Y-82127220D01*
X156061962Y-82088117D01*
X156010333Y-82066732D01*
X155990743Y-82064153D01*
X155853625Y-82046100D01*
X155853618Y-82046100D01*
X152653107Y-82046100D01*
X152653102Y-82046100D01*
X152496397Y-82066760D01*
X152379310Y-82115283D01*
X152309842Y-82122764D01*
X152284386Y-82115291D01*
X152201118Y-82080801D01*
X152201116Y-82080800D01*
X152201115Y-82080800D01*
X152181525Y-82078221D01*
X152044407Y-82060168D01*
X152044400Y-82060168D01*
X148640800Y-82060168D01*
X148640792Y-82060168D01*
X148484085Y-82080800D01*
X148484084Y-82080800D01*
X148338052Y-82141288D01*
X148212647Y-82237515D01*
X148116420Y-82362920D01*
X148055932Y-82508952D01*
X148055932Y-82508953D01*
X148035300Y-82665660D01*
X148035300Y-87898023D01*
X148035344Y-87905363D01*
X148035344Y-87905364D01*
X148057860Y-88061812D01*
X148057861Y-88061814D01*
X148120103Y-88207108D01*
X148120104Y-88207110D01*
X148120105Y-88207111D01*
X148217834Y-88331346D01*
X148344387Y-88426054D01*
X148344390Y-88426056D01*
X149675710Y-89173463D01*
X150952002Y-89889977D01*
X151000823Y-89939960D01*
X151015300Y-89998103D01*
X151015300Y-91241501D01*
X151018201Y-91278367D01*
X151018202Y-91278373D01*
X151064054Y-91436193D01*
X151064054Y-91436194D01*
X151095422Y-91489235D01*
X151112604Y-91556959D01*
X151111443Y-91569891D01*
X151079200Y-91795601D01*
X151079200Y-93141130D01*
X151059515Y-93208169D01*
X151006711Y-93253924D01*
X150937553Y-93263868D01*
X150873997Y-93234843D01*
X150868921Y-93230192D01*
X150353012Y-92730405D01*
X149877993Y-92270231D01*
X149843540Y-92209448D01*
X149841176Y-92178289D01*
X149840500Y-92178289D01*
X149840500Y-91976577D01*
X149809709Y-91782173D01*
X149760557Y-91630902D01*
X149748884Y-91594975D01*
X149748882Y-91594972D01*
X149748882Y-91594970D01*
X149695007Y-91489235D01*
X149659524Y-91419595D01*
X149543828Y-91260354D01*
X149404646Y-91121172D01*
X149245405Y-91005476D01*
X149239998Y-91002721D01*
X149070029Y-90916117D01*
X148882826Y-90855290D01*
X148688422Y-90824500D01*
X148688417Y-90824500D01*
X148491583Y-90824500D01*
X148491578Y-90824500D01*
X148297173Y-90855290D01*
X148109970Y-90916117D01*
X147934594Y-91005476D01*
X147894501Y-91034606D01*
X147775354Y-91121172D01*
X147775352Y-91121174D01*
X147775351Y-91121174D01*
X147636174Y-91260351D01*
X147636174Y-91260352D01*
X147636172Y-91260354D01*
X147586485Y-91328741D01*
X147520476Y-91419594D01*
X147430485Y-91596213D01*
X147382511Y-91647009D01*
X147314690Y-91663804D01*
X147248555Y-91641267D01*
X147209515Y-91596213D01*
X147155007Y-91489235D01*
X147119524Y-91419595D01*
X147003828Y-91260354D01*
X146864646Y-91121172D01*
X146705405Y-91005476D01*
X146699998Y-91002721D01*
X146530029Y-90916117D01*
X146342826Y-90855290D01*
X146148422Y-90824500D01*
X146148417Y-90824500D01*
X145951583Y-90824500D01*
X145951578Y-90824500D01*
X145757173Y-90855290D01*
X145569970Y-90916117D01*
X145394594Y-91005476D01*
X145354501Y-91034606D01*
X145235354Y-91121172D01*
X145235352Y-91121174D01*
X145235351Y-91121174D01*
X145096174Y-91260351D01*
X145096174Y-91260352D01*
X145096172Y-91260354D01*
X145046485Y-91328741D01*
X144980476Y-91419594D01*
X144890485Y-91596213D01*
X144842511Y-91647009D01*
X144774690Y-91663804D01*
X144708555Y-91641267D01*
X144669515Y-91596213D01*
X144615007Y-91489235D01*
X144579524Y-91419595D01*
X144463828Y-91260354D01*
X144324646Y-91121172D01*
X144165405Y-91005476D01*
X144159998Y-91002721D01*
X143990029Y-90916117D01*
X143802826Y-90855290D01*
X143608422Y-90824500D01*
X143608417Y-90824500D01*
X143411583Y-90824500D01*
X143411578Y-90824500D01*
X143217172Y-90855291D01*
X143217169Y-90855291D01*
X143068863Y-90903479D01*
X142999022Y-90905474D01*
X142939189Y-90869393D01*
X142908361Y-90806692D01*
X142906835Y-90777079D01*
X143036244Y-88887707D01*
X143060463Y-88822171D01*
X143116271Y-88780131D01*
X143131028Y-88775603D01*
X143132684Y-88775204D01*
X143132701Y-88775202D01*
X143297445Y-88721673D01*
X143451788Y-88643032D01*
X143591928Y-88541214D01*
X143714414Y-88418728D01*
X143816232Y-88278588D01*
X143894873Y-88124245D01*
X143948402Y-87959501D01*
X143975500Y-87788411D01*
X143975500Y-87065189D01*
X143948402Y-86894099D01*
X143894873Y-86729355D01*
X143816232Y-86575012D01*
X143714414Y-86434872D01*
X143591928Y-86312386D01*
X143451788Y-86210568D01*
X143297445Y-86131927D01*
X143132701Y-86078398D01*
X143132699Y-86078397D01*
X143132698Y-86078397D01*
X143001271Y-86057581D01*
X142961611Y-86051300D01*
X142788389Y-86051300D01*
X142748728Y-86057581D01*
X142617302Y-86078397D01*
X142452552Y-86131928D01*
X142298211Y-86210568D01*
X142218256Y-86268659D01*
X142158072Y-86312386D01*
X142158070Y-86312388D01*
X142158069Y-86312388D01*
X142035588Y-86434869D01*
X142035581Y-86434878D01*
X141975317Y-86517823D01*
X141919987Y-86560489D01*
X141850374Y-86566467D01*
X141788579Y-86533861D01*
X141774683Y-86517823D01*
X141714418Y-86434878D01*
X141714414Y-86434872D01*
X141591928Y-86312386D01*
X141451788Y-86210568D01*
X141297445Y-86131927D01*
X141132701Y-86078398D01*
X141132699Y-86078397D01*
X141132698Y-86078397D01*
X141001271Y-86057581D01*
X140961611Y-86051300D01*
X140788389Y-86051300D01*
X140748728Y-86057581D01*
X140617302Y-86078397D01*
X140452552Y-86131928D01*
X140298211Y-86210568D01*
X140218256Y-86268659D01*
X140158072Y-86312386D01*
X140158070Y-86312388D01*
X140158069Y-86312388D01*
X140035588Y-86434869D01*
X140035581Y-86434878D01*
X139975317Y-86517823D01*
X139919987Y-86560489D01*
X139850374Y-86566467D01*
X139788579Y-86533861D01*
X139774683Y-86517823D01*
X139714418Y-86434878D01*
X139714414Y-86434872D01*
X139591928Y-86312386D01*
X139451788Y-86210568D01*
X139297445Y-86131927D01*
X139132701Y-86078398D01*
X139132699Y-86078397D01*
X139132698Y-86078397D01*
X139001271Y-86057581D01*
X138961611Y-86051300D01*
X138788389Y-86051300D01*
X138717896Y-86062464D01*
X138648603Y-86053509D01*
X138595152Y-86008512D01*
X138574513Y-85941760D01*
X138574500Y-85939991D01*
X138574500Y-85090696D01*
X138594185Y-85023657D01*
X138610814Y-85003020D01*
X140381319Y-83232514D01*
X140442640Y-83199031D01*
X140507315Y-83202265D01*
X140617299Y-83238002D01*
X140788389Y-83265100D01*
X140788390Y-83265100D01*
X140961610Y-83265100D01*
X140961611Y-83265100D01*
X141132701Y-83238002D01*
X141297445Y-83184473D01*
X141451788Y-83105832D01*
X141591928Y-83004014D01*
X141714414Y-82881528D01*
X141774682Y-82798575D01*
X141830012Y-82755911D01*
X141899626Y-82749932D01*
X141961421Y-82782538D01*
X141975315Y-82798573D01*
X142035586Y-82881528D01*
X142158072Y-83004014D01*
X142298212Y-83105832D01*
X142452555Y-83184473D01*
X142617299Y-83238002D01*
X142788389Y-83265100D01*
X142788390Y-83265100D01*
X142961610Y-83265100D01*
X142961611Y-83265100D01*
X143132701Y-83238002D01*
X143297445Y-83184473D01*
X143451788Y-83105832D01*
X143591928Y-83004014D01*
X143714414Y-82881528D01*
X143816232Y-82741388D01*
X143894873Y-82587045D01*
X143948402Y-82422301D01*
X143975500Y-82251211D01*
X143975500Y-81527989D01*
X143948402Y-81356899D01*
X143894873Y-81192155D01*
X143816232Y-81037812D01*
X143714414Y-80897672D01*
X143591928Y-80775186D01*
X143451788Y-80673368D01*
X143297445Y-80594727D01*
X143132701Y-80541198D01*
X143132699Y-80541197D01*
X143132698Y-80541197D01*
X143001271Y-80520381D01*
X142961611Y-80514100D01*
X142788389Y-80514100D01*
X142748728Y-80520381D01*
X142617302Y-80541197D01*
X142452552Y-80594728D01*
X142298211Y-80673368D01*
X142218256Y-80731459D01*
X142158072Y-80775186D01*
X142158070Y-80775188D01*
X142158069Y-80775188D01*
X142035588Y-80897669D01*
X142035581Y-80897678D01*
X141975317Y-80980623D01*
X141919987Y-81023289D01*
X141850374Y-81029267D01*
X141788579Y-80996661D01*
X141774683Y-80980623D01*
X141726899Y-80914857D01*
X141714414Y-80897672D01*
X141591928Y-80775186D01*
X141451788Y-80673368D01*
X141297445Y-80594727D01*
X141132701Y-80541198D01*
X141132699Y-80541197D01*
X141132698Y-80541197D01*
X141001271Y-80520381D01*
X140961611Y-80514100D01*
X140788389Y-80514100D01*
X140748728Y-80520381D01*
X140617302Y-80541197D01*
X140452552Y-80594728D01*
X140298211Y-80673368D01*
X140218256Y-80731459D01*
X140158072Y-80775186D01*
X140158070Y-80775188D01*
X140158069Y-80775188D01*
X140035588Y-80897669D01*
X140035581Y-80897678D01*
X139975317Y-80980623D01*
X139919987Y-81023289D01*
X139850374Y-81029267D01*
X139788579Y-80996661D01*
X139774683Y-80980623D01*
X139726899Y-80914857D01*
X139714414Y-80897672D01*
X139591928Y-80775186D01*
X139451788Y-80673368D01*
X139297445Y-80594727D01*
X139132701Y-80541198D01*
X139132699Y-80541197D01*
X139132698Y-80541197D01*
X139001271Y-80520381D01*
X138961611Y-80514100D01*
X138788389Y-80514100D01*
X138748728Y-80520381D01*
X138617302Y-80541197D01*
X138452552Y-80594728D01*
X138298211Y-80673368D01*
X138158073Y-80775185D01*
X138050166Y-80883092D01*
X137988843Y-80916576D01*
X137919151Y-80911592D01*
X137863218Y-80869720D01*
X137856946Y-80860506D01*
X137817317Y-80796256D01*
X137693345Y-80672284D01*
X137544124Y-80580243D01*
X137544119Y-80580241D01*
X137377697Y-80525094D01*
X137377690Y-80525093D01*
X137274986Y-80514600D01*
X137125000Y-80514600D01*
X137125000Y-81609270D01*
X137105255Y-81589525D01*
X137019745Y-81540156D01*
X136924370Y-81514600D01*
X136825630Y-81514600D01*
X136730255Y-81540156D01*
X136644745Y-81589525D01*
X136625000Y-81609270D01*
X136625000Y-80514600D01*
X136475027Y-80514600D01*
X136475012Y-80514601D01*
X136372302Y-80525094D01*
X136205880Y-80580241D01*
X136205875Y-80580243D01*
X136056654Y-80672284D01*
X135932684Y-80796254D01*
X135840643Y-80945475D01*
X135840641Y-80945480D01*
X135785494Y-81111902D01*
X135785493Y-81111909D01*
X135775000Y-81214613D01*
X135775000Y-81639600D01*
X136594670Y-81639600D01*
X136574925Y-81659345D01*
X136525556Y-81744855D01*
X136500000Y-81840230D01*
X136500000Y-81938970D01*
X136525556Y-82034345D01*
X136574925Y-82119855D01*
X136594670Y-82139600D01*
X135775001Y-82139600D01*
X135775001Y-82564586D01*
X135785494Y-82667297D01*
X135840641Y-82833719D01*
X135840643Y-82833724D01*
X135932684Y-82982945D01*
X136056654Y-83106915D01*
X136205875Y-83198956D01*
X136205880Y-83198958D01*
X136372304Y-83254105D01*
X136374864Y-83254367D01*
X136376342Y-83254970D01*
X136378929Y-83255524D01*
X136378830Y-83255984D01*
X136439559Y-83280757D01*
X136479716Y-83337933D01*
X136482586Y-83407744D01*
X136449955Y-83465407D01*
X132981286Y-86934078D01*
X132869481Y-87045882D01*
X132869477Y-87045887D01*
X132819589Y-87132298D01*
X132790423Y-87182815D01*
X132749499Y-87335543D01*
X132749499Y-87335545D01*
X132749499Y-87503646D01*
X132749500Y-87503659D01*
X132749500Y-90902403D01*
X132729815Y-90969442D01*
X132698386Y-91002721D01*
X132535352Y-91121173D01*
X132396174Y-91260351D01*
X132396174Y-91260352D01*
X132396172Y-91260354D01*
X132346485Y-91328741D01*
X132280476Y-91419594D01*
X132190485Y-91596213D01*
X132142511Y-91647009D01*
X132074690Y-91663804D01*
X132008555Y-91641267D01*
X131969515Y-91596213D01*
X131915007Y-91489235D01*
X131879524Y-91419595D01*
X131763828Y-91260354D01*
X131624646Y-91121172D01*
X131465405Y-91005476D01*
X131459998Y-91002721D01*
X131290029Y-90916117D01*
X131102826Y-90855290D01*
X130908422Y-90824500D01*
X130908417Y-90824500D01*
X130711583Y-90824500D01*
X130711578Y-90824500D01*
X130517173Y-90855290D01*
X130329970Y-90916117D01*
X130154594Y-91005476D01*
X130114501Y-91034606D01*
X129995354Y-91121172D01*
X129995352Y-91121174D01*
X129995351Y-91121174D01*
X129856174Y-91260351D01*
X129856174Y-91260352D01*
X129856172Y-91260354D01*
X129806485Y-91328741D01*
X129740476Y-91419594D01*
X129650485Y-91596213D01*
X129602511Y-91647009D01*
X129534690Y-91663804D01*
X129468555Y-91641267D01*
X129429515Y-91596213D01*
X129375007Y-91489235D01*
X129339524Y-91419595D01*
X129223828Y-91260354D01*
X129084646Y-91121172D01*
X128925405Y-91005476D01*
X128919998Y-91002721D01*
X128750029Y-90916117D01*
X128562826Y-90855290D01*
X128368422Y-90824500D01*
X128368417Y-90824500D01*
X128171583Y-90824500D01*
X128171578Y-90824500D01*
X127977173Y-90855290D01*
X127789970Y-90916117D01*
X127614594Y-91005476D01*
X127574501Y-91034606D01*
X127455354Y-91121172D01*
X127455352Y-91121174D01*
X127455351Y-91121174D01*
X127316174Y-91260351D01*
X127316174Y-91260352D01*
X127316172Y-91260354D01*
X127266485Y-91328741D01*
X127200476Y-91419594D01*
X127111117Y-91594970D01*
X127050290Y-91782173D01*
X127019500Y-91976577D01*
X127019500Y-92173422D01*
X127051023Y-92372453D01*
X127050321Y-92377878D01*
X127052234Y-92383005D01*
X127045891Y-92412160D01*
X127042068Y-92441747D01*
X127038236Y-92447350D01*
X127037382Y-92451278D01*
X127016232Y-92479532D01*
X126850286Y-92645478D01*
X126850285Y-92645478D01*
X126850284Y-92645479D01*
X126738481Y-92757282D01*
X126738479Y-92757285D01*
X126688361Y-92844094D01*
X126688359Y-92844096D01*
X126659425Y-92894209D01*
X126659424Y-92894210D01*
X126659423Y-92894215D01*
X126618499Y-93046943D01*
X126618499Y-93046945D01*
X126618499Y-93215046D01*
X126618500Y-93215059D01*
X126618500Y-103554019D01*
X126598815Y-103621058D01*
X126546011Y-103666813D01*
X126476853Y-103676757D01*
X126413297Y-103647732D01*
X126375523Y-103588954D01*
X126370829Y-103563046D01*
X126342639Y-103176850D01*
X126279037Y-102305534D01*
X126278894Y-102303277D01*
X126173638Y-100345083D01*
X126173534Y-100342727D01*
X126163073Y-100039922D01*
X126105823Y-98382859D01*
X126105767Y-98380588D01*
X126075627Y-96419781D01*
X126075614Y-96417453D01*
X126079350Y-95433130D01*
X126083056Y-94456423D01*
X126083087Y-94454159D01*
X126128109Y-92493644D01*
X126128185Y-92491307D01*
X126210771Y-90532015D01*
X126210892Y-90529683D01*
X126213403Y-90488780D01*
X126331006Y-88572408D01*
X126331173Y-88570056D01*
X126488779Y-86615373D01*
X126488991Y-86613031D01*
X126493645Y-86566467D01*
X126500059Y-86502292D01*
X126526313Y-86437544D01*
X126583406Y-86397267D01*
X126584079Y-86397039D01*
X132486400Y-84429600D01*
X133376534Y-79343112D01*
X133407480Y-79280471D01*
X133467381Y-79244504D01*
X133498677Y-79240489D01*
X165581465Y-79240498D01*
G37*
%TD.AperFunction*%
%TA.AperFunction,Conductor*%
G36*
X137354048Y-84344790D02*
G01*
X137370388Y-84345959D01*
X137385815Y-84357508D01*
X137403705Y-84364670D01*
X137413207Y-84378014D01*
X137426321Y-84387831D01*
X137433055Y-84405885D01*
X137444234Y-84421584D01*
X137445013Y-84437947D01*
X137450738Y-84453295D01*
X137446641Y-84472124D01*
X137447559Y-84491374D01*
X137436379Y-84519301D01*
X137435886Y-84521568D01*
X137434442Y-84524140D01*
X137414424Y-84558812D01*
X137414423Y-84558814D01*
X137414423Y-84558815D01*
X137373499Y-84711543D01*
X137373499Y-84711545D01*
X137373499Y-84879646D01*
X137373500Y-84879659D01*
X137373500Y-85927800D01*
X137353815Y-85994839D01*
X137301011Y-86040594D01*
X137249500Y-86051800D01*
X137125000Y-86051800D01*
X137125000Y-87146470D01*
X137105255Y-87126725D01*
X137019745Y-87077356D01*
X136924370Y-87051800D01*
X136825630Y-87051800D01*
X136730255Y-87077356D01*
X136644745Y-87126725D01*
X136625000Y-87146470D01*
X136625000Y-86051800D01*
X136475027Y-86051800D01*
X136475012Y-86051801D01*
X136372302Y-86062294D01*
X136205880Y-86117441D01*
X136205875Y-86117443D01*
X136056654Y-86209484D01*
X135932684Y-86333454D01*
X135840643Y-86482675D01*
X135840641Y-86482680D01*
X135785494Y-86649102D01*
X135785493Y-86649109D01*
X135775000Y-86751813D01*
X135775000Y-87176800D01*
X136594670Y-87176800D01*
X136574925Y-87196545D01*
X136525556Y-87282055D01*
X136500000Y-87377430D01*
X136500000Y-87476170D01*
X136525556Y-87571545D01*
X136574925Y-87657055D01*
X136594670Y-87676800D01*
X135775001Y-87676800D01*
X135775001Y-88101786D01*
X135785494Y-88204497D01*
X135840641Y-88370919D01*
X135840643Y-88370924D01*
X135932684Y-88520145D01*
X136056654Y-88644115D01*
X136205875Y-88736156D01*
X136205880Y-88736158D01*
X136372302Y-88791305D01*
X136372309Y-88791306D01*
X136475019Y-88801799D01*
X136624999Y-88801799D01*
X136625000Y-88801798D01*
X136625000Y-87707130D01*
X136644745Y-87726875D01*
X136730255Y-87776244D01*
X136825630Y-87801800D01*
X136924370Y-87801800D01*
X137019745Y-87776244D01*
X137105255Y-87726875D01*
X137125000Y-87707130D01*
X137125000Y-88801799D01*
X137249500Y-88801799D01*
X137316539Y-88821484D01*
X137362294Y-88874288D01*
X137373500Y-88925799D01*
X137373500Y-89690902D01*
X137353815Y-89757941D01*
X137337181Y-89778583D01*
X136294532Y-90821231D01*
X136233209Y-90854716D01*
X136187453Y-90856023D01*
X135988422Y-90824500D01*
X135988417Y-90824500D01*
X135791583Y-90824500D01*
X135791578Y-90824500D01*
X135597173Y-90855290D01*
X135409970Y-90916117D01*
X135234594Y-91005476D01*
X135194501Y-91034606D01*
X135075354Y-91121172D01*
X135075352Y-91121174D01*
X135075351Y-91121174D01*
X134936174Y-91260351D01*
X134936174Y-91260352D01*
X134936172Y-91260354D01*
X134886485Y-91328741D01*
X134820476Y-91419594D01*
X134730485Y-91596213D01*
X134682511Y-91647009D01*
X134614690Y-91663804D01*
X134548555Y-91641267D01*
X134509515Y-91596213D01*
X134455007Y-91489235D01*
X134419524Y-91419595D01*
X134303828Y-91260354D01*
X134164646Y-91121172D01*
X134045499Y-91034606D01*
X134001614Y-91002721D01*
X133958949Y-90947390D01*
X133950500Y-90902403D01*
X133950500Y-87714696D01*
X133959144Y-87685255D01*
X133965668Y-87655269D01*
X133969422Y-87650253D01*
X133970185Y-87647657D01*
X133986814Y-87627020D01*
X137239375Y-84374458D01*
X137256285Y-84365225D01*
X137270233Y-84351926D01*
X137286319Y-84348825D01*
X137300696Y-84340975D01*
X137319916Y-84342349D01*
X137338840Y-84338702D01*
X137354048Y-84344790D01*
G37*
%TD.AperFunction*%
%TD*%
M02*
