M48
; DRILL file {KiCad 9.0.4-9.0.4-0~ubuntu22.04.1} date 2025-10-04T20:24:49+0900
; FORMAT={-:-/ absolute / metric / decimal}
; #@! TF.CreationDate,2025-10-04T20:24:49+09:00
; #@! TF.GenerationSoftware,Kicad,Pcbnew,9.0.4-9.0.4-0~ubuntu22.04.1
; #@! TF.FileFunction,Plated,1,2,PTH
FMAT,2
METRIC
; #@! TA.AperFunction,Plated,PTH,ViaDrill
T1C0.300
; #@! TA.AperFunction,Plated,PTH,ComponentDrill
T2C0.800
; #@! TA.AperFunction,Plated,PTH,ComponentDrill
T3C0.900
; #@! TA.AperFunction,Plated,PTH,ComponentDrill
T4C1.000
%
G90
G05
T1
X142.24Y-57.15
X143.51Y-50.8
X148.59Y-50.8
T2
X125.73Y-48.26
X135.89Y-48.26
X139.7Y-50.8
X139.7Y-60.96
X146.05Y-53.34
X146.05Y-58.34
X151.13Y-50.8
X151.13Y-53.34
X151.13Y-55.88
X151.13Y-58.42
X153.67Y-45.72
X158.75Y-50.8
X158.75Y-53.34
X158.75Y-55.88
X158.75Y-58.42
X163.83Y-45.72
X167.64Y-48.26
X167.64Y-54.61
X167.64Y-60.96
X177.8Y-48.26
X177.8Y-54.61
X177.8Y-60.96
T3
X113.03Y-48.26
X113.03Y-50.8
X113.03Y-53.34
X113.03Y-55.88
X184.15Y-48.26
X184.15Y-50.8
X184.15Y-53.34
X184.15Y-55.88
T4
X153.71Y-66.04
X156.21Y-66.04
M30
